<svg width="463" height="436" viewBox="0 0 463 436" fill="none" xmlns="http://www.w3.org/2000/svg">
<g opacity="0.5">
<g clip-path="url(#clip0_135_1779)">
<path d="M409.173 230.049C406.086 228.618 402.733 227.847 399.331 227.785C395.928 227.723 392.55 228.371 389.413 229.688C387.317 215.247 380.682 201.846 370.468 191.424C360.254 181.002 346.99 174.098 332.594 171.711L332.062 171.624L352.54 156.736C367.824 162.543 381.203 172.465 391.198 185.404C401.193 198.343 407.414 213.794 409.173 230.049Z" fill="#EAEAEA"/>
<path d="M401.373 276.879C392.473 296.264 376.846 311.765 357.391 320.509C337.935 329.253 315.969 330.647 295.563 324.432C275.158 318.218 257.698 304.816 246.419 286.712C235.14 268.607 230.807 247.028 234.223 225.973L253.579 229.132C250.945 245.313 254.189 261.903 262.726 275.899C271.263 289.895 284.529 300.373 300.121 305.436C315.714 310.499 332.605 309.813 347.735 303.502C362.866 297.191 375.238 285.672 382.612 271.03C386.022 274.04 390.209 276.032 394.696 276.779C396.906 277.123 399.153 277.157 401.373 276.879Z" fill="#EAEAEA"/>
<path d="M225.742 315.742L383.025 341.416C387.734 342.185 391.946 344.793 394.732 348.667C397.519 352.541 398.653 357.363 397.884 362.073L205.086 330.602C205.855 325.892 208.463 321.681 212.337 318.894C216.211 316.107 221.033 314.974 225.742 315.742Z" fill="#575072"/>
<path d="M225.742 315.742L383.025 341.416C387.734 342.185 391.946 344.793 394.732 348.667C397.519 352.541 398.653 357.363 397.884 362.073L205.086 330.602C205.855 325.892 208.463 321.681 212.337 318.894C216.211 316.107 221.033 314.974 225.742 315.742Z" stroke="#281A3B" stroke-width="4" stroke-linecap="round" stroke-linejoin="round"/>
<path d="M409.173 230.049C406.086 228.618 402.733 227.847 399.331 227.785C395.928 227.723 392.55 228.371 389.413 229.688C387.317 215.247 380.682 201.846 370.468 191.424C360.254 181.002 346.99 174.098 332.594 171.711L332.062 171.624L352.54 156.736C367.824 162.543 381.203 172.465 391.198 185.404C401.193 198.343 407.414 213.794 409.173 230.049Z" fill="#EAEAEA"/>
<path d="M409.173 230.049C406.086 228.618 402.733 227.847 399.331 227.785C395.928 227.723 392.55 228.371 389.413 229.688C387.317 215.247 380.682 201.846 370.468 191.424C360.254 181.002 346.99 174.098 332.594 171.711L332.062 171.624L352.54 156.736C367.824 162.543 381.203 172.465 391.198 185.404C401.193 198.343 407.414 213.794 409.173 230.049Z" stroke="#281A3B" stroke-width="4" stroke-linecap="round" stroke-linejoin="round"/>
<path d="M283.723 215.822L217.766 205.055L214.867 222.813L280.825 233.579L283.723 215.822Z" fill="#575072"/>
<path d="M283.723 215.822L217.766 205.055L214.867 222.813L280.825 233.579L283.723 215.822Z" stroke="#281A3B" stroke-width="4" stroke-linecap="round" stroke-linejoin="round"/>
<path d="M359.129 151.795L309.53 187.922L293.731 165.68L343.33 129.553L359.129 151.795Z" fill="#575072"/>
<path d="M359.129 151.795L309.53 187.922L293.731 165.68L343.33 129.553L359.129 151.795Z" stroke="#281A3B" stroke-width="4" stroke-linecap="round" stroke-linejoin="round"/>
<path d="M315.782 149.616L331.581 171.858" stroke="#281A3B" stroke-width="4" stroke-linecap="round" stroke-linejoin="round"/>
<path d="M356.649 148.317L346.256 133.651L368.273 117.634L378.65 132.245L356.649 148.317Z" fill="#EAEAEA"/>
<path d="M356.649 148.317L346.256 133.651L368.273 117.634L378.65 132.245L356.649 148.317Z" stroke="#281A3B" stroke-width="4" stroke-linecap="round" stroke-linejoin="round"/>
<path d="M401.373 276.879C392.473 296.264 376.846 311.765 357.391 320.509C337.935 329.253 315.969 330.647 295.563 324.432C275.158 318.218 257.698 304.816 246.419 286.712C235.14 268.607 230.807 247.028 234.223 225.973L253.579 229.132C250.945 245.313 254.189 261.903 262.726 275.899C271.263 289.895 284.529 300.373 300.121 305.436C315.714 310.499 332.605 309.813 347.735 303.502C362.866 297.191 375.238 285.672 382.612 271.03C386.022 274.04 390.209 276.032 394.696 276.779C396.906 277.123 399.153 277.157 401.373 276.879Z" stroke="#281A3B" stroke-width="4" stroke-linecap="round" stroke-linejoin="round"/>
<path d="M394.814 276.694C408.166 278.873 420.766 269.76 422.957 256.338C425.148 242.916 416.1 230.268 402.748 228.089C389.396 225.909 376.796 235.023 374.605 248.445C372.414 261.867 381.462 274.514 394.814 276.694Z" fill="#575072"/>
<path d="M394.814 276.694C408.166 278.873 420.766 269.76 422.957 256.338C425.148 242.916 416.1 230.268 402.748 228.089C389.396 225.909 376.796 235.023 374.605 248.445C372.414 261.867 381.462 274.514 394.814 276.694Z" stroke="#281A3B" stroke-width="4" stroke-linecap="round" stroke-linejoin="round"/>
<path d="M397.195 262.107C402.533 262.979 407.57 259.335 408.446 253.969C409.322 248.603 405.705 243.547 400.367 242.675C395.029 241.804 389.991 245.448 389.115 250.814C388.24 256.18 391.857 261.236 397.195 262.107Z" fill="#EAEAEA"/>
<path d="M397.195 262.107C402.533 262.979 407.57 259.335 408.446 253.969C409.322 248.603 405.705 243.547 400.367 242.675C395.029 241.804 389.991 245.448 389.115 250.814C388.24 256.18 391.857 261.236 397.195 262.107Z" stroke="#281A3B" stroke-width="4" stroke-linecap="round" stroke-linejoin="round"/>
</g>
<path d="M142.32 262.361L143.399 273.363C143.472 274.107 142.943 274.752 142.199 274.825L66.3242 282.27C65.5803 282.343 64.9353 281.814 64.8623 281.07L63.7827 270.068C63.3485 265.644 66.5931 261.649 71.0174 261.215L133.503 255.084C137.927 254.649 141.886 257.937 142.32 262.361Z" fill="#252625"/>
<path d="M105.196 207.503L110.863 265.251C110.947 266.112 110.311 266.886 109.45 266.97L96.9218 268.2C96.0603 268.284 95.2868 267.648 95.2024 266.787L89.5355 209.04C89.451 208.178 90.0867 207.404 90.9476 207.32L103.476 206.09C104.337 206.006 105.111 206.641 105.196 207.503Z" fill="#504F4F"/>
<path d="M13.0496 127.686L18.4897 183.124C22.2894 221.844 54.5126 251.332 93.4408 251.663C93.5191 251.655 93.6404 251.683 93.7187 251.675C96.4861 251.68 99.0462 251.587 101.591 251.337C104.136 251.088 106.744 250.674 109.379 250.138C109.458 250.13 109.571 250.08 109.65 250.072C126.465 246.603 141.799 237.312 152.854 223.894C165.773 208.119 171.822 188.395 169.847 168.271L164.407 112.833L13.0496 127.686ZM164.445 168.801C166.278 187.476 160.685 205.812 148.641 220.434C138.476 232.855 124.302 241.48 108.849 244.735C108.775 244.782 108.657 244.793 108.579 244.801C106.022 245.329 103.571 245.727 101.065 245.973C98.5986 246.215 96.1555 246.297 93.4665 246.284C93.3882 246.292 93.2668 246.264 93.1885 246.272C57.1728 245.814 27.4154 218.495 23.8923 182.593L18.9823 132.558L159.535 118.766L164.445 168.801L164.445 168.801Z" fill="#252625"/>
<path d="M158.278 128.207C163.536 127.691 167.416 122.966 166.9 117.708C166.384 112.449 161.659 108.569 156.401 109.085L150.293 109.685L152.169 128.807L158.278 128.207L158.278 128.207Z" fill="#949394"/>
<path d="M26.2715 121.843L28.1502 140.988L22.0428 141.587C21.2988 141.66 20.5863 141.651 19.8627 141.524C18.8646 141.424 17.9299 141.16 17.0577 140.732C16.3106 140.37 15.638 139.963 15.0327 139.428C14.6887 139.146 14.3838 138.86 14.1181 138.569C12.7077 137.088 11.7678 135.164 11.5526 132.972C11.0339 127.686 14.9181 122.957 20.1641 122.442L26.2715 121.843Z" fill="#949394"/>
<path d="M152.907 110.839L157.475 157.39C159.215 175.125 153.512 191.931 142.994 204.782C134.022 215.663 121.532 223.727 107.105 226.961C104.591 227.524 101.984 227.938 99.321 228.199C96.6588 228.46 94.0591 228.557 91.4406 228.459C59.2303 227.706 31.7311 202.853 28.5116 170.045L23.9436 123.495L152.907 110.839Z" fill="#252625"/>
<g opacity="0.5">
<path d="M154.301 126.068L25.5354 138.704L27.0286 153.92L155.795 141.285L154.301 126.068Z" fill="#161616"/>
</g>
<path d="M154.878 103.531L20.5898 116.709L22.0844 131.939L156.372 118.761L154.878 103.531Z" fill="#DCDBDB"/>
<path d="M156.372 118.76L22.0842 131.938L23.5749 147.129L157.863 133.951L156.372 118.76Z" fill="#504F4F"/>
<path d="M148.485 65.7763L152.527 106.963L23.5632 119.619L19.5215 78.4316C17.7811 60.6961 23.4842 43.8905 34.0027 31.0392C34.4265 30.5232 34.8856 29.9643 35.3524 29.4841C37.1998 27.3662 39.1414 25.3966 41.2506 23.5297C51.107 14.8143 63.6594 8.99767 77.6756 7.62226C90.4778 6.36597 102.792 8.99187 113.491 14.5035C114.493 15.0378 115.493 15.5722 116.498 16.1451C118.931 17.5663 121.218 19.1209 123.442 20.8393C127.632 24.0647 131.477 27.7985 134.773 31.9809C142.255 41.3663 147.229 52.9741 148.485 65.7763Z" fill="#C9C9C9"/>
<path d="M43.139 26.6643C43.3696 29.0137 41.6788 31.1163 39.3293 31.3468C37.6853 31.5082 36.1872 30.7459 35.3518 29.4842C37.1992 27.3663 39.1408 25.3967 41.2501 23.5298C42.3058 24.2164 43.0084 25.3335 43.139 26.6643Z" fill="#504F4F"/>
<path d="M79.616 27.3971C81.9647 27.1666 83.6819 25.0757 83.4515 22.727C83.221 20.3782 81.1301 18.6611 78.7813 18.8915C76.4326 19.122 74.7154 21.2129 74.9459 23.5616C75.1764 25.9104 77.2673 27.6276 79.616 27.3971Z" fill="#504F4F"/>
<path d="M116.494 16.1466C115.61 17.0198 115.109 18.2688 115.24 19.6055C115.471 21.956 117.558 23.6765 119.908 23.4459C121.533 23.2864 122.854 22.2347 123.441 20.8212L116.494 16.1466Z" fill="#504F4F"/>
<path d="M42.811 66.8802C45.16 66.6497 46.8774 64.5586 46.6469 62.2095C46.4164 59.8605 44.3252 58.1431 41.9762 58.3736C39.6272 58.6041 37.9098 60.6953 38.1403 63.0443C38.3708 65.3933 40.4619 67.1107 42.811 66.8802Z" fill="#504F4F"/>
<path d="M83.1026 62.9259C85.4513 62.6954 87.1685 60.6045 86.938 58.2558C86.7075 55.907 84.6167 54.1898 82.2679 54.4203C79.9192 54.6508 78.202 56.7417 78.4325 59.0904C78.6629 61.4392 80.7538 63.1564 83.1026 62.9259Z" fill="#504F4F"/>
<path d="M123.395 58.972C125.743 58.7415 127.461 56.6507 127.23 54.3019C127 51.9532 124.909 50.236 122.56 50.4665C120.211 50.6969 118.494 52.7878 118.724 55.1366C118.955 57.4853 121.046 59.2025 123.395 58.972Z" fill="#504F4F"/>
<path d="M46.2975 102.409C48.6466 102.179 50.364 100.088 50.1335 97.7388C49.903 95.3898 47.8118 93.6724 45.4628 93.9029C43.1137 94.1334 41.3963 96.2245 41.6269 98.5736C41.8574 100.923 43.9485 102.64 46.2975 102.409Z" fill="#504F4F"/>
<path d="M86.5889 98.4551C88.9376 98.2247 90.6548 96.1338 90.4244 93.785C90.1939 91.4363 88.103 89.7191 85.7542 89.9496C83.4055 90.1801 81.6883 92.2709 81.9188 94.6197C82.1493 96.9684 84.2402 98.6856 86.5889 98.4551Z" fill="#504F4F"/>
<path d="M126.881 94.5013C129.23 94.2708 130.947 92.1799 130.717 89.8312C130.486 87.4824 128.395 85.7652 126.046 85.9957C123.698 86.2262 121.981 88.3171 122.211 90.6658C122.442 93.0146 124.532 94.7317 126.881 94.5013Z" fill="#504F4F"/>
<path opacity="0.2" d="M41.25 23.5292C39.1408 25.3961 37.1992 27.3656 35.3518 29.4836C34.885 29.9642 34.4259 30.5232 34.0021 31.0387C23.4841 43.8894 17.7805 60.6955 19.5209 78.4311L23.2514 116.447L20.5892 116.708L21.1424 122.346L20.1635 122.442C14.9181 122.957 11.034 127.686 11.5526 132.971C11.7677 135.164 12.7077 137.088 14.1177 138.57C14.3834 138.86 14.6882 139.146 15.0322 139.429C15.6375 139.962 16.3107 140.371 17.0572 140.732L21.1911 182.859C24.8679 220.327 56.581 248.64 93.4538 248.974L94.4296 258.918L71.0174 261.216C66.5937 261.65 63.3485 265.645 63.7827 270.069L64.8623 281.07C64.9353 281.814 65.5803 282.344 66.3242 282.271L104.262 278.548L77.6755 7.62219C63.6594 8.9976 51.107 14.8143 41.25 23.5292ZM93.1892 246.272C57.1734 245.814 27.416 218.495 23.8929 182.593L19.8628 141.524C20.5868 141.651 21.2988 141.66 22.0428 141.587L23.0217 141.491L23.5749 147.128L26.2371 146.867L28.5115 170.044C31.731 202.853 59.2307 227.705 91.4405 228.458L93.1886 246.272L93.1892 246.272Z" fill="white"/>
<g clip-path="url(#clip1_135_1779)">
<path d="M195.847 314.806L204.688 255.919L162.718 249.618L153.889 308.43C153.124 313.52 149.876 317.942 145.177 320.041C129.384 327.094 117.423 341.831 114.74 360.234C110.582 388.758 130.641 415.498 159.186 419.505C187.528 423.483 213.844 403.889 218.102 375.524C220.847 357.241 213.761 339.753 200.811 328.419C196.941 325.032 195.084 319.892 195.847 314.806Z" fill="#E0E0E3"/>
<path d="M204.686 255.919L162.717 249.618L161.184 259.829L203.153 266.13L204.686 255.919Z" fill="#D2D1D3"/>
<path d="M206.185 256.144L161.222 249.393C158.462 248.979 156.562 246.406 156.976 243.647L157.018 243.366C157.432 240.607 160.005 238.706 162.764 239.12L207.727 245.871C210.487 246.285 212.387 248.858 211.973 251.617L211.931 251.898C211.517 254.657 208.944 256.558 206.185 256.144Z" fill="#E0E0E3"/>
<path d="M205.797 374.419C204.992 379.775 203.157 384.72 200.524 389.085C192.162 402.967 175.729 410.988 158.65 407.662C144.41 404.885 133.225 394.629 128.661 381.612C126.844 376.46 126.073 370.878 126.559 365.158C126.922 360.865 127.949 356.815 129.517 353.076C129.915 352.124 130.831 351.501 131.859 351.46C138.105 351.198 145.916 349.735 154.93 345.734C179.013 335.046 186.441 362.128 200.553 354.898C200.564 354.895 200.57 354.886 200.581 354.882C202.053 354.127 203.86 354.817 204.364 356.395C206.165 362.034 206.735 368.169 205.797 374.419Z" fill="#00ABE7"/>
<path d="M200.524 389.086C192.162 402.967 175.729 410.988 158.65 407.662C144.41 404.885 133.225 394.629 128.661 381.612C134.668 381.206 142.014 379.678 150.393 375.96C174.476 365.271 181.903 392.354 196.016 385.124C196.027 385.12 196.033 385.111 196.044 385.108C197.516 384.353 199.323 385.043 199.827 386.621C200.088 387.431 200.318 388.253 200.524 389.086Z" fill="#009AE5"/>
<path d="M211.911 336.709C211.03 335.421 209.272 335.091 207.984 335.971C206.696 336.85 206.366 338.609 207.246 339.897C214.304 350.224 217.166 362.727 215.308 375.104C211.301 401.795 186.3 420.458 159.578 416.707C159.419 416.684 159.261 416.661 159.103 416.638C146.237 414.706 134.834 407.873 126.953 397.36C118.978 386.722 115.634 373.682 117.535 360.641C119.992 343.788 130.756 329.574 146.328 322.62C151.889 320.136 155.76 314.988 156.682 308.849L165.092 252.831L201.475 258.293L193.053 314.386C192.139 320.473 194.344 326.514 198.95 330.545C200.123 331.572 201.909 331.454 202.936 330.279C203.964 329.105 203.845 327.32 202.671 326.293C199.521 323.535 198.014 319.398 198.64 315.225L207.079 259.015C210.851 258.947 214.146 256.17 214.724 252.317L214.766 252.036C215.412 247.741 212.442 243.722 208.147 243.077L180.794 238.97C179.251 238.739 177.812 239.802 177.581 241.345C177.349 242.888 178.412 244.326 179.955 244.558L207.308 248.665C208.522 248.847 209.362 249.983 209.179 251.197L209.137 251.478C208.955 252.693 207.819 253.532 206.605 253.35L161.641 246.599C160.427 246.417 159.587 245.281 159.77 244.066L159.812 243.786C159.994 242.571 161.13 241.732 162.344 241.914L169.049 242.921C170.592 243.152 172.031 242.089 172.263 240.546C172.494 239.003 171.431 237.565 169.889 237.333L163.184 236.326C158.888 235.682 154.869 238.651 154.225 242.947L154.182 243.228C153.604 247.08 155.938 250.702 159.523 251.875L151.095 308.011C150.461 312.235 147.818 315.768 144.025 317.461C126.676 325.209 114.683 341.047 111.945 359.827C109.825 374.366 113.55 388.9 122.432 400.749C131.212 412.46 143.919 420.072 158.263 422.225C158.44 422.252 158.616 422.278 158.793 422.302C173.249 424.331 187.657 420.64 199.364 411.907C211.079 403.169 218.726 390.397 220.896 375.943C222.967 362.151 219.776 348.218 211.911 336.709Z" fill="black"/>
<path d="M199.265 352.384C194.786 354.679 191.263 352.456 185.422 348.328C178.143 343.184 169.085 336.781 154.644 342.783C153.204 343.382 152.521 345.035 153.12 346.476C153.719 347.916 155.372 348.6 156.813 348C168.371 343.196 175.382 348.15 182.161 352.942C188.009 357.074 194.055 361.348 201.741 357.464C203.419 362.832 203.844 368.395 203.003 374.001C201.486 384.099 196.056 392.904 187.711 398.795C179.371 404.682 169.242 406.843 159.19 404.887C140.588 401.263 127.769 384.285 129.371 365.396C129.697 361.556 130.606 357.816 132.074 354.278C136.546 354.082 141.167 353.326 145.811 352.031C147.314 351.612 148.192 350.054 147.773 348.55C147.354 347.047 145.796 346.169 144.293 346.588C140.033 347.776 135.809 348.466 131.741 348.637C129.62 348.726 127.723 350.041 126.908 351.987C125.186 356.101 124.121 360.452 123.742 364.918C122.855 375.372 125.878 385.78 132.254 394.224C138.63 402.671 147.813 408.426 158.11 410.433C158.741 410.556 159.373 410.665 160.005 410.76C170.956 412.404 181.883 409.825 190.969 403.411C200.585 396.623 206.843 386.476 208.59 374.839C209.572 368.296 209.056 361.801 207.056 355.534C206.571 354.013 205.444 352.788 203.965 352.174C202.456 351.548 200.752 351.619 199.31 352.361C199.305 352.364 199.271 352.381 199.265 352.384Z" fill="black"/>
<path d="M165.395 315.169L173.138 316.331C174.681 316.563 176.12 315.5 176.352 313.957C176.583 312.414 175.52 310.975 173.977 310.744L166.234 309.581C164.691 309.349 163.252 310.413 163.02 311.955C162.789 313.499 163.852 314.937 165.395 315.169Z" fill="black"/>
<path d="M167.232 302.929L174.976 304.091C176.519 304.323 177.958 303.26 178.189 301.717C178.421 300.174 177.358 298.735 175.815 298.504L168.071 297.341C166.529 297.109 165.09 298.172 164.858 299.715C164.626 301.258 165.69 302.697 167.232 302.929Z" fill="black"/>
<path d="M169.07 290.688L176.814 291.851C178.357 292.083 179.795 291.02 180.027 289.477C180.259 287.934 179.196 286.495 177.653 286.263L169.909 285.101C168.366 284.869 166.927 285.932 166.696 287.475C166.464 289.018 167.527 290.457 169.07 290.688Z" fill="black"/>
<path d="M170.908 278.448L178.651 279.611C180.194 279.843 181.633 278.78 181.865 277.237C182.096 275.694 181.033 274.255 179.49 274.023L171.747 272.861C170.204 272.629 168.765 273.692 168.533 275.235C168.302 276.778 169.365 278.217 170.908 278.448Z" fill="black"/>
</g>
</g>
<defs>
<clipPath id="clip0_135_1779">
<rect width="246.757" height="246.757" fill="white" transform="translate(218.643 88) rotate(9.2709)"/>
</clipPath>
<clipPath id="clip1_135_1779">
<rect width="184.569" height="184.569" fill="white" transform="translate(94.4033 226) rotate(8.53843)"/>
</clipPath>
</defs>
</svg>
