<svg width="1440" height="1024" viewBox="0 0 1440 1024" fill="none" xmlns="http://www.w3.org/2000/svg">
<rect width="1440" height="1024" fill="url(#paint0_linear_224_187)"/>
<path d="M1383.62 854.372C1364.5 850.997 1348.75 864.495 1329.62 854.372C1308.25 844.248 1293.62 858.871 1273.37 862.245C1292.5 865.62 1308.25 852.122 1327.37 862.245C1348.75 872.369 1363.37 858.871 1383.62 854.372Z" fill="#B4D7EE"/>
<path d="M848.124 898.239C828.999 894.865 813.249 908.363 794.124 898.239C772.749 888.116 758.124 902.739 737.874 906.113C756.999 909.488 772.749 895.99 791.874 906.113C813.249 916.236 827.874 902.739 848.124 898.239Z" fill="#B4D7EE"/>
<path d="M1267.75 898.239C1249.75 894.865 1235.12 902.739 1217.12 904.988C1196.87 907.238 1181.12 900.489 1162 894.865C1127.12 882.492 1101.25 906.113 1068.62 912.862C1086.62 916.236 1101.25 908.363 1119.25 906.113C1139.5 903.863 1155.25 910.612 1174.37 916.236C1209.25 928.609 1235.12 904.988 1267.75 898.239Z" fill="#B4D7EE"/>
<path d="M1047.25 948.856C1029.25 945.482 1014.62 953.355 996.623 955.605C976.373 957.855 960.623 951.106 941.498 945.482C906.623 933.109 880.748 956.73 848.123 963.479C866.123 967.978 880.748 958.98 898.748 956.73C918.998 954.48 934.748 961.229 953.873 966.853C988.748 979.226 1014.62 955.605 1047.25 948.856Z" fill="#B4D7EE"/>
<path d="M1005.62 853.247C978.624 849.872 954.999 868.994 927.999 855.496C897.624 841.998 876.249 861.12 848.124 865.62C875.124 868.994 898.749 849.872 925.749 863.37C954.999 876.868 976.374 856.621 1005.62 853.247Z" fill="#B4D7EE"/>
<path d="M898.749 991.599C871.749 988.225 848.124 1007.35 821.124 993.849C790.749 980.351 769.374 999.473 741.249 1003.97C768.249 1007.35 791.874 988.225 818.874 1001.72C848.124 1015.22 869.499 994.974 898.749 991.599Z" fill="#B4D7EE"/>
<path d="M1399.37 982.601C1372.37 979.226 1348.75 998.348 1321.75 984.85C1292.5 971.352 1270 990.474 1241.87 994.974C1268.87 998.348 1292.5 979.226 1319.5 992.724C1348.75 1006.22 1370.12 987.1 1399.37 982.601Z" fill="#B4D7EE"/>
<path d="M0 731L352 741.5L506.5 790.5L615.5 806.5L717.5 813.5L879.5 805L1051 764.5L1093.5 742.5L1440 731V1024H0V731Z" fill="url(#paint1_linear_224_187)"/>
<path d="M260.125 806.902C242.125 803.528 227.5 811.401 209.5 813.651C189.25 815.901 173.5 809.152 154.375 803.528C119.5 791.155 93.625 814.776 61.0001 821.525C79 826.024 93.625 817.025 111.625 814.776C131.875 812.526 147.625 819.275 166.75 824.899C201.625 837.272 227.5 813.651 260.125 806.902Z" fill="#B4D7EE"/>
<path d="M1290.12 943.902C1272.13 940.528 1257.5 948.401 1239.5 950.651C1219.25 952.901 1203.5 946.152 1184.38 940.528C1149.5 928.155 1123.63 951.776 1091 958.525C1109 963.024 1123.63 954.025 1141.63 951.776C1161.88 949.526 1177.63 956.275 1196.75 961.899C1231.63 974.272 1257.5 950.651 1290.12 943.902Z" fill="#B4D7EE"/>
<path d="M392 876.613C380.068 874.358 370.373 879.62 358.441 881.124C345.017 882.628 334.576 878.117 321.898 874.358C298.78 866.088 281.627 881.876 260 886.387C271.932 889.394 281.627 883.38 293.559 881.876C306.983 880.372 317.424 884.883 330.102 888.642C353.22 896.912 370.373 881.124 392 876.613Z" fill="#B4D7EE"/>
<path d="M260 941.613C248.068 939.358 238.373 944.62 226.441 946.124C213.017 947.628 202.576 943.117 189.898 939.358C166.78 931.088 149.627 946.876 128 951.387C139.932 954.394 149.627 948.38 161.559 946.876C174.983 945.372 185.424 949.883 198.102 953.642C221.22 961.912 238.373 946.124 260 941.613Z" fill="#B4D7EE"/>
<path d="M589 851.613C577.068 849.358 567.373 854.62 555.441 856.124C542.017 857.628 531.576 853.117 518.898 849.358C495.78 841.088 478.627 856.876 457 861.387C468.932 864.394 478.627 858.38 490.559 856.876C503.983 855.372 514.424 859.883 527.102 863.642C550.22 871.912 567.373 856.124 589 851.613Z" fill="#B4D7EE"/>
<path d="M1391 861.613C1379.07 859.358 1369.37 864.62 1357.44 866.124C1344.02 867.628 1333.58 863.117 1320.9 859.358C1297.78 851.088 1280.63 866.876 1259 871.387C1270.93 874.394 1280.63 868.38 1292.56 866.876C1305.98 865.372 1316.42 869.883 1329.1 873.642C1352.22 881.912 1369.37 866.124 1391 861.613Z" fill="#B4D7EE"/>
<path d="M632 946.613C620.068 944.358 610.373 949.62 598.441 951.124C585.017 952.628 574.576 948.117 561.898 944.358C538.78 936.088 521.627 951.876 500 956.387C511.932 959.394 521.627 953.38 533.559 951.876C546.983 950.372 557.424 954.883 570.102 958.642C593.22 966.912 610.373 951.124 632 946.613Z" fill="#B4D7EE"/>
<path d="M965 876.613C953.068 874.358 943.373 879.62 931.441 881.124C918.017 882.628 907.576 878.117 894.898 874.358C871.78 866.088 854.627 881.876 833 886.387C844.932 889.394 854.627 883.38 866.559 881.876C879.983 880.372 890.424 884.883 903.102 888.642C926.22 896.912 943.373 881.124 965 876.613Z" fill="#B4D7EE"/>
<path d="M741 897.613C729.068 895.358 719.373 900.62 707.441 902.124C694.017 903.628 683.576 899.117 670.898 895.358C647.78 887.088 630.627 902.876 609 907.387C620.932 910.394 630.627 904.38 642.559 902.876C655.983 901.372 666.424 905.883 679.102 909.642C702.22 917.912 719.373 902.124 741 897.613Z" fill="#B4D7EE"/>
<path d="M1100 832.613C1088.07 830.358 1078.37 835.62 1066.44 837.124C1053.02 838.628 1042.58 834.117 1029.9 830.358C1006.78 822.088 989.627 837.876 968 842.387C979.932 845.394 989.627 839.38 1001.56 837.876C1014.98 836.372 1025.42 840.883 1038.1 844.642C1061.22 852.912 1078.37 837.124 1100 832.613Z" fill="#B4D7EE"/>
<path d="M496.174 221.022C496.174 201.473 512.02 185.627 531.569 185.627C534.519 185.627 537.341 186.094 540.08 186.773C549.316 176.8 562.411 170.458 577.077 170.458C605.003 170.458 627.641 193.097 627.641 221.022H496.174Z" fill="white"/>
<path d="M129.625 238.328C129.625 217.119 146.819 199.927 168.027 199.927C171.228 199.927 174.288 200.433 177.261 201.17C187.281 190.348 201.489 183.469 217.4 183.469C247.698 183.469 272.259 208.03 272.259 238.328H129.625ZM515.606 212.775C512.925 212.775 510.391 213.303 507.963 214.069C500.27 203.011 487.508 195.739 473.017 195.739C458.527 195.739 445.764 203.009 438.072 214.069C435.644 213.303 433.109 212.775 430.428 212.775C416.316 212.775 404.875 224.216 404.875 238.328H541.161C541.159 224.216 529.719 212.775 515.606 212.775Z" fill="white"/>
<path d="M139.025 191.508C136.991 191.508 135.067 191.908 133.225 192.489C127.387 184.098 117.705 178.581 106.708 178.581C95.7109 178.581 86.0281 184.098 80.1906 192.489C78.3484 191.908 76.425 191.508 74.3906 191.508C63.6812 191.508 55 200.189 55 210.899H158.412C158.414 200.189 149.733 191.508 139.025 191.508Z" fill="white"/>
<path d="M431.87 61.7672C429.972 61.7672 428.178 62.1406 426.459 62.6828C421.014 54.8547 411.978 49.7062 401.719 49.7062C391.459 49.7062 382.423 54.8531 376.978 62.6828C375.258 62.1406 373.464 61.7672 371.567 61.7672C368.099 61.7672 364.889 62.7922 362.134 64.4859C356.297 51.8312 343.58 43 328.728 43C318.038 43 308.491 47.6234 301.759 54.8937C299.763 54.3984 297.706 54.0578 295.555 54.0578C281.305 54.0578 269.753 65.6109 269.753 79.8594H449.961C449.963 69.8672 441.863 61.7672 431.87 61.7672Z" fill="white"/>
<path d="M226.264 111.978C224.717 111.978 223.255 112.283 221.853 112.725C217.414 106.344 210.05 102.147 201.688 102.147C195.52 102.147 189.919 104.453 185.609 108.209C179.728 99.7218 169.945 94.1421 158.838 94.1421C149.388 94.1421 140.948 98.228 134.998 104.656C133.233 104.217 131.416 103.917 129.514 103.917C116.917 103.917 106.706 114.128 106.706 126.725H241.011C241.011 122.814 239.457 119.063 236.692 116.297C233.926 113.532 230.175 111.978 226.264 111.978Z" fill="white"/>
<path d="M643.095 100.828C637.242 94.1078 631.238 87.5249 624.955 81.2109C624.456 81.5843 623.916 81.9046 623.447 82.314C617.566 73.8265 607.783 68.2468 596.675 68.2468C587.225 68.2468 578.786 72.3328 572.836 78.7609C571.07 78.3218 569.253 78.0218 567.352 78.0218C554.756 78.0203 544.545 88.2312 544.545 100.828H643.095Z" fill="white"/>
<path d="M1250.17 258.022C1250.17 238.473 1266.02 222.627 1285.57 222.627C1288.52 222.627 1291.34 223.094 1294.08 223.773C1303.32 213.8 1316.41 207.458 1331.08 207.458C1359 207.458 1381.64 230.097 1381.64 258.022H1250.17Z" fill="white"/>
<path d="M883.625 275.328C883.625 254.119 900.819 236.927 922.027 236.927C925.228 236.927 928.288 237.433 931.261 238.17C941.281 227.348 955.489 220.469 971.4 220.469C1001.7 220.469 1026.26 245.03 1026.26 275.328H883.625ZM1269.61 249.775C1266.93 249.775 1264.39 250.303 1261.96 251.069C1254.27 240.011 1241.51 232.739 1227.02 232.739C1212.53 232.739 1199.76 240.009 1192.07 251.069C1189.64 250.303 1187.11 249.775 1184.43 249.775C1170.32 249.775 1158.88 261.216 1158.88 275.328H1295.16C1295.16 261.216 1283.72 249.775 1269.61 249.775Z" fill="white"/>
<path d="M893.025 228.508C890.991 228.508 889.067 228.908 887.225 229.489C881.387 221.098 871.705 215.581 860.708 215.581C849.711 215.581 840.028 221.098 834.191 229.489C832.348 228.908 830.425 228.508 828.391 228.508C817.681 228.508 809 237.189 809 247.899H912.412C912.414 237.189 903.733 228.508 893.025 228.508Z" fill="white"/>
<path d="M1185.87 98.7672C1183.97 98.7672 1182.18 99.1406 1180.46 99.6828C1175.01 91.8547 1165.98 86.7062 1155.72 86.7062C1145.46 86.7062 1136.42 91.8531 1130.98 99.6828C1129.26 99.1406 1127.46 98.7672 1125.57 98.7672C1122.1 98.7672 1118.89 99.7922 1116.13 101.486C1110.3 88.8312 1097.58 80 1082.73 80C1072.04 80 1062.49 84.6234 1055.76 91.8937C1053.76 91.3984 1051.71 91.0578 1049.55 91.0578C1035.3 91.0578 1023.75 102.611 1023.75 116.859H1203.96C1203.96 106.867 1195.86 98.7672 1185.87 98.7672Z" fill="white"/>
<path d="M980.264 148.978C978.717 148.978 977.255 149.283 975.853 149.725C971.414 143.344 964.05 139.147 955.688 139.147C949.52 139.147 943.919 141.453 939.609 145.209C933.728 136.722 923.945 131.142 912.838 131.142C903.388 131.142 894.948 135.228 888.998 141.656C887.233 141.217 885.416 140.917 883.514 140.917C870.917 140.917 860.706 151.128 860.706 163.725H995.011C995.011 159.814 993.457 156.063 990.692 153.297C987.926 150.532 984.175 148.978 980.264 148.978Z" fill="white"/>
<path d="M1397.1 137.828C1391.24 131.108 1385.24 124.525 1378.95 118.211C1378.46 118.584 1377.92 118.905 1377.45 119.314C1371.57 110.827 1361.78 105.247 1350.68 105.247C1341.23 105.247 1332.79 109.333 1326.84 115.761C1325.07 115.322 1323.25 115.022 1321.35 115.022C1308.76 115.02 1298.55 125.231 1298.55 137.828H1397.1Z" fill="white"/>
<path d="M345.659 745.75L558.28 634.889C582.769 594.713 600.288 549.852 609.369 502C609.369 502 525.086 504.344 491.494 489.5C450.188 471.248 356.566 342.087 298.009 264.55C287.122 250.856 276.556 238.142 266.494 227C249.13 207.772 198.42 202 191.494 202C185.492 202 136.903 259.163 101.438 302.005C47.9719 367.292 -14.9766 445.969 -46.0078 477L-98 583.25L-23 730.5L61 733L259 739L345.659 745.75Z" fill="#6E6E84"/>
<path d="M567.511 525.939C506.053 525.939 445.042 535.125 372.719 473.875C344.594 450.056 316.784 427.153 293.031 455.906C278.188 473.875 250.691 533.25 216.469 508.25C182.247 483.25 167.833 405.984 135.219 405.125C108.656 404.425 86.7812 443.16 67.2156 421.792C54.3344 407.725 -64 490.281 -64 490.281C-64 490.281 57.0938 597.8 74.2812 596.775C91.4688 595.75 192.878 611.238 192.878 611.238C192.878 611.238 228.852 653.608 247.327 646.792C265.802 639.977 310.945 654.191 336.825 642.72C362.705 631.252 486.139 580.125 488.803 573.875C491.467 567.625 567.511 525.939 567.511 525.939Z" fill="#5F5F74"/>
<path d="M297.984 264.55C287.097 250.856 276.531 238.142 266.469 227C249.105 207.772 198.395 202 191.469 202C185.467 202 136.878 259.163 101.412 302.005C87.8172 318.606 73.6094 336.072 59.4688 353.403C65.5828 361.934 77.4125 373.95 94.9281 372.242C129.398 368.88 136.123 328.525 162.186 331.886C197.689 336.467 192.3 439.5 229.445 439.5C265.597 439.5 240.527 361.359 283.252 345.337C314.723 333.536 326.327 367.372 379.361 371.767C350.353 334.683 321.372 295.519 297.984 264.55Z" fill="#C3E1F5"/>
<path d="M312.953 284.445C307.78 277.555 302.742 270.848 297.986 264.55C287.098 250.856 276.533 238.142 266.47 227C249.106 207.772 198.397 202 191.47 202C187.287 202 162.416 229.773 135.72 261.105C164.908 237.937 180.833 247.47 186.261 274.57C198.797 337.156 212.303 387.416 227.928 347.833C243.553 308.25 236.686 285.581 282.519 290.281C300.609 292.136 304.336 286.839 312.953 284.445Z" fill="#EDF5FB"/>
<path d="M1031.73 766L772.33 630.826C742.453 581.838 721.079 527.139 710 468.793C710 468.793 812.826 471.651 853.809 453.552C904.203 431.297 1018.42 273.81 1089.86 179.268C1103.15 162.571 1116.04 147.069 1128.31 133.483C1149.5 110.038 1211.36 103 1219.81 103C1227.14 103 1286.41 172.699 1329.68 224.937C1394.91 304.542 1471.71 400.474 1509.57 438.31L1440 731L1351.5 734L1256 737L1031.73 766Z" fill="#6E6E84"/>
<path d="M761 496.529C836.033 496.529 910.52 507.745 998.818 432.957C1033.16 403.874 1067.11 375.908 1096.11 411.017C1114.23 432.957 1147.8 505.456 1189.58 474.93C1231.36 444.404 1248.96 350.061 1288.78 349.011C1321.21 348.157 1347.91 395.453 1371.8 369.363C1387.53 352.186 1532 452.99 1532 452.99C1532 452.99 1384.16 584.273 1363.17 583.021C1342.19 581.77 1218.38 600.681 1218.38 600.681C1218.38 600.681 1174.46 652.416 1151.91 644.094C1129.35 635.772 1074.24 653.128 1042.64 639.122C1011.04 625.118 860.345 562.691 857.093 555.06C853.84 547.428 761 496.529 761 496.529Z" fill="#5F5F74"/>
<path d="M1090.21 177.377C1103.48 160.656 1116.37 145.132 1128.63 131.526C1149.8 108.048 1211.63 101 1220.07 101C1227.39 101 1286.63 170.798 1329.86 223.111C1346.44 243.382 1363.76 264.709 1381 285.871C1373.55 296.288 1359.12 310.96 1337.77 308.875C1295.74 304.769 1287.55 255.494 1255.77 259.598C1212.49 265.192 1219.06 391 1173.77 391C1129.7 391 1160.26 295.586 1108.17 276.023C1069.8 261.612 1055.66 302.928 991 308.295C1026.37 263.013 1061.7 215.191 1090.21 177.377Z" fill="#C3E1F5"/>
<path d="M1072 201.55C1078.31 193.147 1084.44 184.968 1090.24 177.286C1103.51 160.585 1116.39 145.079 1128.65 131.49C1149.81 108.039 1211.61 101 1220.06 101C1225.15 101 1255.47 134.873 1288 173.084C1252.43 144.829 1233.02 156.456 1226.4 189.507C1211.13 265.837 1194.67 327.133 1175.62 278.858C1156.58 230.583 1164.95 202.936 1109.09 208.668C1087.04 210.93 1082.5 204.47 1072 201.55Z" fill="#EDF5FB"/>
<path d="M-268 489C-258.378 605.398 -198.998 707.648 -111.089 774.384H33.3L230.508 655.634C66.4969 655.634 -24.9266 489.689 -268 489Z" fill="#52C883"/>
<path d="M833 554C842.805 641.691 903.315 718.723 992.899 769H1140.04L1341 679.537C1173.87 679.537 1080.7 554.519 833 554Z" fill="#52C883"/>
<path d="M258.5 768C453.766 768 488.263 715.683 523.383 530.636C375.478 530.679 194.558 715.762 30.5078 693.134C-60.1172 680.634 -83.5546 655.583 -200.653 680.015C-128.706 785.995 120.753 768 258.5 768Z" fill="#34BE71"/>
<path d="M1252.15 772.364C1447.42 772.364 1481.92 720.047 1517.04 535C1369.13 535.044 1188.21 720.127 1024.16 697.498C933.536 684.998 910.098 659.947 793 684.38C864.947 790.359 1114.41 772.364 1252.15 772.364Z" fill="#34BE71"/>
<path d="M489.461 632.006C268.008 590.009 221.117 762.267 -126.038 762.309C-56.5798 820.484 158.309 771 256 771C413.589 771 424.291 764.453 489.461 632.006Z" fill="#44A67D"/>
<path d="M1525.92 641.889C1309.55 578.744 1246.27 745.68 900.73 712.263C964.257 776.861 1050.76 771.084 1148 780.5C1304.86 795.689 1448.29 767.438 1525.92 641.889Z" fill="#44A67D"/>
<path d="M264.805 679.247C264.308 679.247 263.817 679.15 263.358 678.96C262.9 678.771 262.483 678.493 262.132 678.142C261.781 677.791 261.503 677.375 261.313 676.916C261.123 676.458 261.025 675.967 261.025 675.47V634.791C261.025 634.295 261.123 633.803 261.313 633.345C261.503 632.886 261.781 632.47 262.132 632.119C262.483 631.768 262.9 631.49 263.358 631.301C263.817 631.111 264.308 631.014 264.805 631.014C265.301 631.014 265.792 631.111 266.251 631.301C266.709 631.49 267.126 631.768 267.477 632.119C267.828 632.47 268.107 632.886 268.297 633.345C268.486 633.803 268.584 634.295 268.584 634.791V675.47C268.584 675.967 268.486 676.458 268.297 676.916C268.107 677.375 267.828 677.791 267.477 678.142C267.126 678.493 266.709 678.771 266.251 678.96C265.792 679.15 265.301 679.247 264.805 679.247Z" fill="#674447"/>
<path d="M288.609 631.325C288.609 644.472 277.952 655.13 264.805 655.13C251.658 655.13 241 644.472 241 631.325C241 618.178 251.658 577.764 264.805 577.764C277.952 577.764 288.609 618.178 288.609 631.325Z" fill="#00A07D"/>
<path d="M264.803 577.764C261.503 577.764 258.361 580.316 255.503 584.338C267.536 584.338 277.291 621.327 277.291 633.36C277.291 643.827 269.903 652.553 260.063 654.652C261.622 654.968 263.21 655.128 264.802 655.13C277.948 655.13 288.606 644.472 288.606 631.325C288.609 618.178 277.952 577.764 264.803 577.764Z" fill="#36B294"/>
<path d="M376.041 645.63C375.356 645.63 374.677 645.496 374.044 645.234C373.411 644.972 372.836 644.588 372.351 644.104C371.866 643.62 371.482 643.045 371.22 642.412C370.957 641.779 370.822 641.101 370.822 640.416V584.252C370.822 581.372 373.156 579.038 376.041 579.038C378.925 579.038 381.259 581.372 381.259 584.252V640.416C381.259 641.101 381.124 641.779 380.862 642.412C380.599 643.045 380.215 643.62 379.73 644.104C379.245 644.588 378.67 644.972 378.037 645.234C377.404 645.496 376.726 645.63 376.041 645.63Z" fill="#674447"/>
<path d="M408.906 579.467C408.906 597.619 394.192 612.334 376.041 612.334C357.889 612.334 343.173 597.62 343.173 579.467C343.173 561.314 357.887 505.517 376.041 505.517C394.194 505.517 408.906 561.316 408.906 579.467Z" fill="#00A07D"/>
<path d="M376.039 505.517C371.483 505.517 367.144 509.039 363.198 514.594H363.2C379.814 514.594 393.281 565.663 393.281 582.277C393.281 596.728 383.083 608.777 369.495 611.674C371.611 612.1 373.797 612.333 376.039 612.333C394.191 612.333 408.906 597.619 408.906 579.467C408.906 561.316 394.191 505.517 376.039 505.517Z" fill="#36B294"/>
<path d="M307.294 670.394C306.656 670.394 306.024 670.269 305.435 670.025C304.845 669.781 304.31 669.424 303.858 668.973C303.407 668.522 303.049 667.987 302.805 667.398C302.56 666.809 302.435 666.177 302.434 665.539V613.244C302.434 610.563 304.608 608.389 307.294 608.389C309.98 608.389 312.153 610.563 312.153 613.244V665.539C312.153 666.177 312.027 666.809 311.783 667.398C311.538 667.987 311.18 668.522 310.729 668.973C310.278 669.424 309.742 669.781 309.153 670.025C308.563 670.269 307.932 670.394 307.294 670.394Z" fill="#674447"/>
<path d="M337.895 608.788C337.895 625.689 324.194 639.391 307.292 639.391C290.391 639.391 276.689 625.689 276.689 608.788C276.689 591.886 290.391 539.931 307.292 539.931C324.194 539.931 337.895 591.886 337.895 608.788Z" fill="#00A07D"/>
<path d="M307.292 539.931C303.05 539.931 299.009 543.211 295.336 548.383H295.338C310.806 548.383 323.347 595.935 323.347 611.403C323.347 624.86 313.85 636.078 301.2 638.775C303.17 639.174 305.206 639.389 307.294 639.389C324.195 639.389 337.897 625.688 337.897 608.786C337.895 591.886 324.194 539.931 307.292 539.931Z" fill="#36B294"/>
<path d="M1245.6 697.462C1244.97 697.463 1244.34 697.338 1243.75 697.094C1243.16 696.85 1242.62 696.493 1242.17 696.042C1241.72 695.591 1241.36 695.056 1241.12 694.466C1240.87 693.877 1240.75 693.246 1240.75 692.608V640.312C1240.75 637.631 1242.92 635.458 1245.6 635.458C1248.29 635.458 1250.46 637.631 1250.46 640.312V692.608C1250.46 693.246 1250.34 693.877 1250.09 694.466C1249.85 695.056 1249.49 695.591 1249.04 696.042C1248.59 696.493 1248.05 696.85 1247.46 697.094C1246.87 697.338 1246.24 697.463 1245.6 697.462Z" fill="#674447"/>
<path d="M1276.21 635.856C1276.21 652.758 1262.5 666.459 1245.6 666.459C1228.7 666.459 1215 652.758 1215 635.856C1215 618.955 1228.7 567 1245.6 567C1262.5 567 1276.21 618.955 1276.21 635.856Z" fill="#00A07D"/>
<path d="M1245.6 567C1241.36 567 1237.32 570.28 1233.65 575.452H1233.65C1249.12 575.452 1261.66 623.003 1261.66 638.472C1261.66 651.928 1252.16 663.147 1239.51 665.844C1241.48 666.242 1243.52 666.458 1245.6 666.458C1262.51 666.458 1276.21 652.756 1276.21 635.855C1276.21 618.955 1262.5 567 1245.6 567Z" fill="#36B294"/>
<path d="M431.919 658.433C430.919 658.434 429.929 658.237 429.006 657.855C428.082 657.473 427.243 656.913 426.536 656.207C425.829 655.5 425.268 654.661 424.885 653.738C424.502 652.814 424.305 651.825 424.305 650.825V568.878C424.305 564.677 427.711 561.271 431.919 561.271C436.127 561.271 439.533 564.677 439.533 568.878V650.825C439.533 651.825 439.335 652.814 438.953 653.738C438.57 654.661 438.009 655.5 437.302 656.207C436.595 656.913 435.755 657.473 434.832 657.855C433.908 658.237 432.918 658.434 431.919 658.433Z" fill="#674447"/>
<path d="M479.87 561.897C479.87 588.381 458.4 609.852 431.916 609.852C405.431 609.852 383.961 588.381 383.961 561.897C383.961 535.412 405.431 454 431.916 454C458.402 454 479.87 535.412 479.87 561.897Z" fill="#00A07D"/>
<path d="M431.917 454C425.269 454 418.939 459.139 413.183 467.242H413.184C437.425 467.242 457.075 541.755 457.075 565.995C457.075 587.081 442.194 604.661 422.37 608.887C425.458 609.511 428.647 609.85 431.919 609.85C458.403 609.85 479.873 588.38 479.873 561.897C479.87 535.412 458.4 454 431.917 454Z" fill="#36B294"/>
<path d="M727.754 618.595C727.754 618.595 351.317 733.532 350.504 741.845C349.692 750.157 501.192 816.97 754.379 813.47C995.879 810.157 1089.19 748.532 1090.82 741.845C1092.44 735.157 736.066 616.907 727.754 618.595Z" fill="#44A67D"/>
<path d="M710.441 302.72L683.504 268.845C683.504 268.845 640.004 314.47 628.254 326.907C616.504 339.345 607.442 346.532 601.817 358.22C593.754 374.907 568.192 518.97 568.192 518.97L494.254 594.907C494.254 594.907 480.317 586.22 476.879 589.032C473.442 591.845 360.192 726.845 360.192 726.845L350.442 741.782C350.442 741.782 372.942 746.782 379.879 746.095C383.254 745.782 399.879 741.97 418.692 740.032C438.504 737.97 463.817 739.657 466.629 739.345C469.817 739.032 480.817 735.783 480.817 735.783L579.191 677.095L660.004 657.032L733.941 690.22L879.004 697.157L958.442 578.345L785.754 349.657L710.441 302.72Z" fill="#9EA2A3"/>
<path d="M499.754 650.345C499.754 650.345 497.066 642.657 495.066 636.97C493.066 631.282 494.254 594.907 494.254 594.907C494.254 594.907 539.316 621.532 544.316 625.907C549.316 630.282 593.941 658.095 593.941 658.095C593.941 658.095 625.754 654.095 636.816 653.407C647.879 652.72 667.004 653.72 667.004 653.72L659.629 664.47C659.629 664.47 587.567 687.907 574.817 691.97C562.067 695.97 480.379 737.532 480.504 735.97C480.754 732.72 501.754 702.657 501.754 702.657L499.754 650.345Z" fill="#717A7C"/>
<path d="M825.879 685.907L518.004 734.532C518.004 734.532 503.129 747.72 504.629 751.22C506.129 754.72 562.941 765.282 582.566 767.782C602.191 770.282 736.379 777.845 750.941 776.845C765.504 775.845 914.317 768.282 934.942 765.782C955.567 763.282 1024.88 758.47 1029.44 756.407C1038.25 752.407 1078.69 730.595 1078.69 730.595C1078.69 730.595 1033.44 659.22 1024.38 642.095C1015.32 625.032 1000.25 594.345 989.692 583.783C979.129 573.22 971.567 568.72 971.567 568.72C971.567 568.72 957.316 535.595 940.691 514.47C924.129 493.345 904.442 456.345 899.192 451.095C879.254 431.22 875.629 432.157 875.629 432.157L888.129 582.782C888.129 582.782 865.004 629.033 856.941 641.595C849.004 654.283 825.879 685.907 825.879 685.907Z" fill="#717A7C"/>
<path d="M715.254 211.907L709.191 334.532L780.504 378.782C780.504 378.782 801.941 433.72 802.941 438.782C803.941 443.782 802.004 457.345 804.004 460.845C806.004 464.345 842.942 489.782 844.379 489.845C852.567 490.282 869.504 487.345 868.504 485.845C867.504 484.345 875.254 451.72 875.254 451.72C875.254 451.72 826.254 372.282 815.691 350.157C805.129 328.032 765.441 270.72 760.879 261.157C756.316 251.595 734.754 219.907 730.191 214.907C725.629 209.907 718.316 208.407 715.254 211.907Z" fill="#717A7C"/>
<path d="M746.441 445.845C746.441 445.845 780.129 390.345 781.129 381.845C782.129 373.345 754.004 321.532 746.941 302.907C739.879 284.282 721.316 246.095 719.316 241.095C717.316 236.095 715.316 211.97 715.316 211.97C715.316 211.97 701.254 227.032 696.191 239.095C691.191 251.157 672.254 280.845 672.254 280.845C672.254 280.845 684.129 349.72 688.691 379.345C693.191 409.032 696.566 447.97 695.879 449.408C691.566 458.158 662.566 528.658 662.566 528.658C662.566 528.658 658.816 562.845 662.316 566.345C665.816 569.845 686.129 574.47 687.691 572.095C690.754 567.533 690.691 550.22 690.691 550.22C690.691 550.22 747.067 474.095 748.879 470.345C749.567 468.908 746.441 445.845 746.441 445.845Z" fill="#C0C0C0"/>
<path d="M631.566 451.282C631.379 443.72 620.317 407.845 618.317 399.782C616.317 391.72 612.067 351.907 606.504 351.907C601.004 351.907 575.504 422.032 572.941 428.595C570.441 435.157 534.754 512.032 530.191 521.095C525.691 530.157 505.067 569.345 501.067 575.907C497.067 582.47 491.754 593.595 491.754 593.595L593.879 658.157L630.754 653.97C630.754 653.97 609.192 596.032 604.129 582.97C599.067 569.907 593.067 548.782 593.067 548.782C593.067 548.782 604.754 520.782 612.379 500.657C620.066 480.407 631.816 458.782 631.566 451.282Z" fill="#C0C0C0"/>
<path d="M479.566 589.095C479.816 590.032 481.129 613.595 480.441 627.657C479.754 641.782 477.004 655.908 477.004 655.908L435.692 709.657C435.692 709.657 360.942 738.595 356.442 739.97C351.942 741.345 350.504 741.845 350.504 741.845C350.504 741.845 341.129 736.157 369.192 705.532C405.442 665.97 451.816 611.782 457.691 604.97C468.129 592.845 478.879 586.282 479.566 589.095Z" fill="#C0C0C0"/>
<path d="M570.066 605.47C565.816 605.032 560.441 619.22 557.566 629.783C555.504 637.22 542.192 674.908 540.629 682.22C539.004 689.595 530.754 711.345 533.004 712.345C535.254 713.283 552.691 714.533 562.004 712.595C571.254 710.658 591.504 694.407 591.504 690.595C591.504 686.782 582.754 647.282 581.942 642.595C579.692 629.157 576.691 606.157 570.066 605.47Z" fill="#367C2D"/>
<path d="M988.254 663.157C984.504 661.595 974.941 703.907 972.941 718.845C970.941 733.782 965.629 762.157 967.004 764.97C971.004 772.907 1013.63 767.657 1017.75 760.845C1018.94 758.907 1012.94 727.095 1008.63 713.657C1002.75 695.282 997.941 667.22 988.254 663.157Z" fill="#367C2D"/>
<path d="M1062.94 609.845C1057.07 610.095 1050.82 661.407 1046.94 672.595C1042.57 685.282 1027.94 745.345 1034 752.22C1040.07 759.095 1063.25 753.657 1071.88 751.157C1080.19 748.782 1087.38 744.782 1089.38 740.345C1091.38 735.907 1086.63 700.095 1080.88 675.095C1075 649.782 1072.19 609.407 1062.94 609.845Z" fill="#367C2D"/>
<path d="M518.004 734.595C518.004 734.595 534.192 740.72 589.629 744.157C645.067 747.595 672.316 747.282 672.316 747.282L798.941 728.782L827.691 683.282C827.691 683.282 789.441 681.845 769.129 681.157C748.816 680.47 718.504 680.345 717.129 676.595C715.754 672.782 751.316 646.97 761.316 641.845C771.316 636.658 795.441 633.907 800.941 628.095C806.441 622.22 875.942 583.032 884.504 582.72C893.129 582.345 920.004 598.908 925.129 597.158C930.317 595.408 907.254 534.407 904.192 522.97C903.942 521.97 891.754 462.532 891.379 461.407C888.504 452.595 879.691 429.72 874.129 432.47C868.629 435.22 859.317 456.22 852.442 477.22C845.567 498.22 841.441 509.282 838.004 514.407C834.566 519.532 794.629 545.095 789.066 550.908C783.566 556.783 767.004 569.158 757.004 573.283C747.004 577.408 737.379 577.408 730.129 583.97C722.879 590.533 713.941 601.908 703.941 612.533C693.941 623.22 673.629 647.72 666.941 653.72C660.254 659.72 654.254 665.532 654.254 665.532C654.254 665.532 605.941 679.22 589.691 687.095C573.566 695.033 513.816 733.532 518.004 734.595Z" fill="#C0C0C0"/>
<path d="M799.566 701.97C795.066 702.345 788.754 736.095 786.504 743.595C785.254 747.845 774.817 776.908 777.629 781.783C783.254 791.783 829.504 789.095 831.566 783.845C833.566 778.595 818.379 743.47 815.567 736.97C812.692 730.595 806.191 701.408 799.566 701.97Z" fill="#367C2D"/>
<path d="M608.254 619.595C604.566 620.845 600.004 635.095 595.692 649.845C592.942 659.157 584.942 687.095 586.879 688.47C588.817 689.845 608.129 690.782 615.754 686.095C623.379 681.407 628.942 677.345 629.942 674.595C630.942 671.845 622.191 647.595 618.816 638.72C616.191 632.032 612.129 618.22 608.254 619.595Z" fill="#367C2D"/>
<path d="M1209.8 716.483C1209.31 716.483 1208.82 716.386 1208.36 716.196C1207.9 716.007 1207.48 715.728 1207.13 715.378C1206.78 715.027 1206.5 714.611 1206.31 714.152C1206.12 713.694 1206.02 713.202 1206.02 712.706V672.027C1206.02 671.53 1206.12 671.039 1206.31 670.581C1206.5 670.122 1206.78 669.706 1207.13 669.355C1207.48 669.004 1207.9 668.726 1208.36 668.537C1208.82 668.347 1209.31 668.25 1209.8 668.25C1210.3 668.25 1210.79 668.347 1211.25 668.537C1211.71 668.726 1212.13 669.004 1212.48 669.355C1212.83 669.706 1213.11 670.122 1213.3 670.581C1213.49 671.039 1213.58 671.53 1213.58 672.027V712.706C1213.58 713.202 1213.49 713.694 1213.3 714.152C1213.11 714.611 1212.83 715.027 1212.48 715.378C1212.13 715.728 1211.71 716.007 1211.25 716.196C1210.79 716.386 1210.3 716.483 1209.8 716.483Z" fill="#674447"/>
<path d="M1233.61 668.561C1233.61 681.708 1222.95 692.366 1209.8 692.366C1196.66 692.366 1186 681.708 1186 668.561C1186 655.414 1196.66 615 1209.8 615C1222.95 615 1233.61 655.414 1233.61 668.561Z" fill="#00A07D"/>
<path d="M1209.8 615C1206.5 615 1203.36 617.552 1200.5 621.573C1212.54 621.573 1222.29 658.563 1222.29 670.595C1222.29 681.063 1214.9 689.789 1205.06 691.888C1206.62 692.204 1208.21 692.364 1209.8 692.366C1222.95 692.366 1233.61 681.708 1233.61 668.561C1233.61 655.414 1222.95 615 1209.8 615Z" fill="#36B294"/>
<path d="M1275 708C1274.61 708 1274.22 707.92 1273.85 707.762C1273.49 707.605 1273.16 707.374 1272.88 707.084C1272.6 706.793 1272.38 706.447 1272.23 706.067C1272.08 705.687 1272 705.28 1272 704.868V671.132C1272 670.72 1272.08 670.313 1272.23 669.933C1272.38 669.553 1272.6 669.207 1272.88 668.916C1273.16 668.626 1273.49 668.395 1273.85 668.238C1274.22 668.08 1274.61 668 1275 668C1275.39 668 1275.78 668.08 1276.15 668.238C1276.51 668.395 1276.84 668.626 1277.12 668.916C1277.4 669.207 1277.62 669.553 1277.77 669.933C1277.92 670.313 1278 670.72 1278 671.132V704.868C1278 705.28 1277.92 705.687 1277.77 706.067C1277.62 706.447 1277.4 706.793 1277.12 707.084C1276.84 707.374 1276.51 707.605 1276.15 707.762C1275.78 707.92 1275.39 708 1275 708Z" fill="#674447"/>
<path d="M1295 668.308C1295 679.183 1286.05 688 1275 688C1263.95 688 1255 679.183 1255 668.308C1255 657.432 1263.95 624 1275 624C1286.05 624 1295 657.432 1295 668.308Z" fill="#00A07D"/>
<path d="M1274.87 624C1272.08 624 1269.42 626.111 1267 629.438C1277.18 629.438 1285.43 660.037 1285.43 669.991C1285.43 678.65 1279.18 685.869 1270.86 687.604C1272.18 687.866 1273.52 687.999 1274.87 688C1285.99 688 1295 679.183 1295 668.308C1295 657.432 1285.99 624 1274.87 624Z" fill="#36B294"/>
<defs>
<linearGradient id="paint0_linear_224_187" x1="720" y1="0" x2="720" y2="1024" gradientUnits="userSpaceOnUse">
<stop offset="0.11" stop-color="#95C4F8"/>
<stop offset="0.295" stop-color="#FEE6A9"/>
<stop offset="1" stop-color="#FF3D00"/>
</linearGradient>
<linearGradient id="paint1_linear_224_187" x1="720" y1="731" x2="720" y2="1024" gradientUnits="userSpaceOnUse">
<stop offset="0.345" stop-color="#1D8299"/>
<stop offset="1" stop-color="#111B21"/>
</linearGradient>
</defs>
</svg>
