<svg width="1440" height="1024" viewBox="0 0 1440 1024" fill="none" xmlns="http://www.w3.org/2000/svg">
<g clip-path="url(#clip0_222_100)">
<rect width="1440" height="1024" fill="white"/>
<rect width="1440" height="1024" fill="url(#paint0_linear_222_100)"/>
<rect y="762" width="1440" height="262" fill="url(#paint1_linear_222_100)"/>
<path d="M1330 853.832C1362.44 848.233 1389.15 870.628 1421.59 853.832C1457.85 837.036 1482.65 861.297 1517 866.896C1484.56 872.494 1457.85 850.1 1425.41 866.896C1389.15 883.692 1364.35 861.297 1330 853.832Z" fill="#B4D7EE"/>
<path d="M274 837.516C293.125 834.141 308.875 847.641 328 837.516C349.375 827.391 364 842.016 384.25 845.391C365.125 848.766 349.375 835.266 330.25 845.391C308.875 855.516 294.25 842.016 274 837.516Z" fill="#B4D7EE"/>
<path d="M136 888.832C167.745 883.233 193.888 905.628 225.633 888.832C261.112 872.036 285.388 896.297 319 901.896C287.255 907.494 261.112 885.1 229.367 901.896C193.888 918.692 169.612 896.297 136 888.832Z" fill="#B4D7EE"/>
<path d="M-73 842.832C-41.2551 837.233 -15.1122 859.628 16.6327 842.832C52.1123 826.036 76.3878 850.297 110 855.896C78.2551 861.494 52.1122 839.1 20.3673 855.896C-15.1123 872.692 -39.3878 850.297 -73 842.832Z" fill="#B4D7EE"/>
<path d="M1098 901.832C1129.74 896.233 1155.89 918.628 1187.63 901.832C1223.11 885.036 1247.39 909.297 1281 914.896C1249.26 920.494 1223.11 898.1 1191.37 914.896C1155.89 931.692 1131.61 909.297 1098 901.832Z" fill="#B4D7EE"/>
<path d="M413 883.516C432.125 880.141 447.875 893.641 467 883.516C488.375 873.391 503 888.016 523.25 891.391C504.125 894.766 488.375 881.266 469.25 891.391C447.875 901.516 433.25 888.016 413 883.516Z" fill="#B4D7EE"/>
<path d="M568 844.516C587.125 841.141 602.875 854.641 622 844.516C643.375 834.391 658 849.016 678.25 852.391C659.125 855.766 643.375 842.266 624.25 852.391C602.875 862.516 588.25 849.016 568 844.516Z" fill="#B4D7EE"/>
<path d="M678 899.666C704.367 895.187 726.082 913.102 752.449 899.666C781.918 886.229 802.082 905.638 830 910.116C803.633 914.595 781.918 896.68 755.551 910.116C726.082 923.553 705.918 905.638 678 899.666Z" fill="#B4D7EE"/>
<path d="M872 853.666C898.367 849.187 920.082 867.102 946.449 853.666C975.918 840.229 996.082 859.638 1024 864.116C997.633 868.595 975.918 850.68 949.551 864.116C920.082 877.553 899.918 859.638 872 853.666Z" fill="#B4D7EE"/>
<path d="M1031.73 699L772.33 563.826C742.453 514.838 721.079 460.139 710 401.793C710 401.793 812.826 404.651 853.809 386.552C904.203 364.297 1018.42 206.81 1089.86 112.268C1103.15 95.5709 1116.04 80.0685 1128.31 66.4828C1149.5 43.0377 1211.36 36 1219.81 36C1227.14 36 1286.41 105.699 1329.68 157.937C1394.91 237.542 1471.71 333.474 1509.57 371.31L1440 545V664L1351.5 667L1256 670L1031.73 699Z" fill="#6E6E84"/>
<path d="M761 496.529C836.033 496.529 910.52 507.745 998.818 432.957C1033.16 403.874 1067.11 375.908 1096.11 411.017C1114.23 432.957 1147.8 505.456 1189.58 474.93C1231.36 444.404 1248.96 350.061 1288.78 349.011C1321.21 348.157 1347.91 395.453 1371.8 369.363C1387.53 352.186 1532 452.99 1532 452.99C1532 452.99 1455.5 544.5 1418 557C1359 585.5 1218.38 600.681 1218.38 600.681C1218.38 600.681 1174.46 652.416 1151.91 644.094C1129.35 635.772 1074.24 653.128 1042.64 639.122C1011.04 625.118 860.345 562.691 857.093 555.06C853.84 547.428 761 496.529 761 496.529Z" fill="#5F5F74"/>
<path d="M1090.21 112.377C1103.48 95.656 1116.37 80.1315 1128.63 66.5263C1149.8 43.0478 1211.63 36 1220.07 36C1227.39 36 1286.63 105.798 1329.86 158.111C1346.44 178.382 1363.76 199.709 1381 220.871C1373.55 231.288 1359.12 245.96 1337.77 243.875C1295.74 239.769 1287.55 190.494 1255.77 194.598C1212.49 200.192 1219.06 326 1173.77 326C1129.7 326 1160.26 230.586 1108.17 211.023C1069.8 196.612 1055.66 237.928 991 243.295C1026.37 198.013 1061.7 150.191 1090.21 112.377Z" fill="#C3E1F5"/>
<path d="M1074 138.55C1080.31 130.147 1086.44 121.968 1092.24 114.286C1105.51 97.5852 1118.39 82.0791 1130.65 68.49C1151.81 45.0394 1213.61 38 1222.06 38C1227.15 38 1257.47 71.8725 1290 110.084C1254.43 81.8294 1235.02 93.4557 1228.4 126.507C1213.13 202.837 1196.67 264.133 1177.62 215.858C1158.58 167.583 1166.95 139.936 1111.09 145.668C1089.04 147.93 1084.5 141.47 1074 138.55Z" fill="#EDF5FB"/>
<path d="M345.659 745.75L558.28 634.889C582.769 594.712 600.288 549.852 609.369 502C609.369 502 525.086 504.344 491.494 489.5C450.188 471.248 356.566 342.087 298.009 264.55C287.122 250.856 276.556 238.142 266.494 227C249.13 207.772 198.42 202 191.494 202C185.492 202 136.903 259.163 101.438 302.005C47.9719 367.292 -14.9766 445.969 -46.0078 477L-98 583.25L-23 730.5L61 733L259 739L345.659 745.75Z" fill="#6E6E84"/>
<path d="M-2.24422 289.713L89.5 383.5L-2.24432 424L-2.24422 289.713Z" fill="#6E6E84"/>
<path d="M567.511 525.939C506.053 525.939 445.042 535.125 372.719 473.875C344.594 450.056 316.784 427.153 293.031 455.906C278.187 473.875 250.691 533.25 216.469 508.25C182.247 483.25 167.833 405.984 135.219 405.125C108.656 404.425 91.5 432.5 67.2156 421.792C45 417.5 -0.500045 394 -0.500045 394C-0.500045 394 -17.6875 545.025 -0.500021 544C16.6875 542.975 192.878 611.238 192.878 611.238C192.878 611.238 228.852 653.608 247.327 646.792C265.802 639.977 310.945 654.191 336.825 642.72C362.705 631.252 486.139 580.125 488.803 573.875C491.467 567.625 567.511 525.939 567.511 525.939Z" fill="#5F5F74"/>
<path d="M297.984 264.55C287.097 250.856 276.531 238.142 266.469 227C249.105 207.772 198.395 202 191.469 202C185.467 202 136.878 259.163 101.412 302.005C87.8172 318.606 73.6094 336.072 59.4688 353.403C65.5828 361.934 77.4125 373.95 94.9281 372.242C129.398 368.88 136.123 328.525 162.186 331.886C197.689 336.467 192.3 439.5 229.445 439.5C265.597 439.5 240.527 361.359 283.252 345.337C314.723 333.536 326.327 367.372 379.361 371.767C350.353 334.683 321.372 295.519 297.984 264.55Z" fill="#C3E1F5"/>
<path d="M312.953 284.445C307.78 277.555 302.742 270.848 297.986 264.55C287.098 250.856 276.533 238.142 266.47 227C249.106 207.772 198.397 202 191.47 202C187.287 202 162.416 229.773 135.72 261.105C164.908 237.937 180.833 247.47 186.261 274.57C198.797 337.156 212.303 387.416 227.928 347.833C243.553 308.25 236.686 285.581 282.519 290.281C300.609 292.136 304.336 286.839 312.953 284.445Z" fill="#EDF5FB"/>
<path d="M1440 623.5C1438.5 738 1485.32 687.284 1397.5 753.93L1321.5 762.93L1220.51 757.93L1086.5 675C1250.34 675 1258.5 631 1440 623.5Z" fill="#52C883"/>
<path d="M1037.87 750.846C842.614 750.846 808.119 698.643 773 514C920.898 514.044 1101.81 698.722 1265.85 676.144C1356.47 663.671 1361.91 655.121 1479 679.5C1519 828 1175.61 750.846 1037.87 750.846Z" fill="#34BE71"/>
<path d="M807 614.628C1028.27 572.432 1094.13 752.958 1441 753C1548 842 1137.88 754.28 1040.27 754.28C882.811 754.28 872.118 747.701 807 614.628Z" fill="#44A67D"/>
<path d="M1245.6 697.462C1244.97 697.463 1244.33 697.338 1243.75 697.094C1243.16 696.85 1242.62 696.493 1242.17 696.042C1241.72 695.591 1241.36 695.056 1241.12 694.466C1240.87 693.877 1240.75 693.246 1240.75 692.608V640.312C1240.75 637.631 1242.92 635.458 1245.6 635.458C1248.29 635.458 1250.46 637.631 1250.46 640.312V692.608C1250.46 693.246 1250.34 693.877 1250.09 694.466C1249.85 695.056 1249.49 695.591 1249.04 696.042C1248.59 696.493 1248.05 696.85 1247.46 697.094C1246.87 697.338 1246.24 697.463 1245.6 697.462Z" fill="#674447"/>
<path d="M1276.21 635.856C1276.21 652.758 1262.5 666.459 1245.6 666.459C1228.7 666.459 1215 652.758 1215 635.856C1215 618.955 1228.7 567 1245.6 567C1262.5 567 1276.21 618.955 1276.21 635.856Z" fill="#00A07D"/>
<path d="M1245.6 567C1241.36 567 1237.32 570.28 1233.65 575.452H1233.65C1249.12 575.452 1261.66 623.003 1261.66 638.472C1261.66 651.928 1252.16 663.147 1239.51 665.844C1241.48 666.242 1243.52 666.458 1245.6 666.458C1262.51 666.458 1276.21 652.756 1276.21 635.855C1276.21 618.955 1262.5 567 1245.6 567Z" fill="#36B294"/>
<path d="M1209.8 716.483C1209.31 716.483 1208.82 716.386 1208.36 716.196C1207.9 716.007 1207.48 715.729 1207.13 715.378C1206.78 715.027 1206.5 714.611 1206.31 714.152C1206.12 713.694 1206.02 713.202 1206.02 712.706V672.027C1206.02 671.53 1206.12 671.039 1206.31 670.581C1206.5 670.122 1206.78 669.706 1207.13 669.355C1207.48 669.004 1207.9 668.726 1208.36 668.537C1208.82 668.347 1209.31 668.25 1209.8 668.25C1210.3 668.25 1210.79 668.347 1211.25 668.537C1211.71 668.726 1212.13 669.004 1212.48 669.355C1212.83 669.706 1213.11 670.122 1213.3 670.581C1213.49 671.039 1213.58 671.53 1213.58 672.027V712.706C1213.58 713.202 1213.49 713.694 1213.3 714.152C1213.11 714.611 1212.83 715.027 1212.48 715.378C1212.13 715.729 1211.71 716.007 1211.25 716.196C1210.79 716.386 1210.3 716.483 1209.8 716.483Z" fill="#674447"/>
<path d="M1233.61 668.561C1233.61 681.708 1222.95 692.366 1209.8 692.366C1196.66 692.366 1186 681.708 1186 668.561C1186 655.414 1196.66 615 1209.8 615C1222.95 615 1233.61 655.414 1233.61 668.561Z" fill="#00A07D"/>
<path d="M1209.8 615C1206.5 615 1203.36 617.552 1200.5 621.573C1212.54 621.573 1222.29 658.563 1222.29 670.595C1222.29 681.063 1214.9 689.789 1205.06 691.888C1206.62 692.204 1208.21 692.364 1209.8 692.366C1222.95 692.366 1233.61 681.708 1233.61 668.561C1233.61 655.414 1222.95 615 1209.8 615Z" fill="#36B294"/>
<path d="M1275 708C1274.61 708 1274.22 707.92 1273.85 707.762C1273.49 707.605 1273.16 707.374 1272.88 707.084C1272.6 706.793 1272.38 706.447 1272.23 706.067C1272.08 705.687 1272 705.28 1272 704.868V671.132C1272 670.72 1272.08 670.313 1272.23 669.933C1272.38 669.553 1272.6 669.207 1272.88 668.916C1273.16 668.626 1273.49 668.395 1273.85 668.238C1274.22 668.08 1274.61 668 1275 668C1275.39 668 1275.78 668.08 1276.15 668.238C1276.51 668.395 1276.84 668.626 1277.12 668.916C1277.4 669.207 1277.62 669.553 1277.77 669.933C1277.92 670.313 1278 670.72 1278 671.132V704.868C1278 705.28 1277.92 705.687 1277.77 706.067C1277.62 706.447 1277.4 706.793 1277.12 707.084C1276.84 707.374 1276.51 707.605 1276.15 707.762C1275.78 707.92 1275.39 708 1275 708Z" fill="#674447"/>
<path d="M1295 668.308C1295 679.183 1286.05 688 1275 688C1263.95 688 1255 679.183 1255 668.308C1255 657.432 1263.95 624 1275 624C1286.05 624 1295 657.432 1295 668.308Z" fill="#00A07D"/>
<path d="M1274.87 624C1272.08 624 1269.42 626.111 1267 629.438C1277.18 629.438 1285.43 660.037 1285.43 669.991C1285.43 678.65 1279.18 685.869 1270.86 687.604C1272.18 687.866 1273.52 687.999 1274.87 688C1285.99 688 1295 679.183 1295 668.308C1295 657.432 1285.99 624 1274.87 624Z" fill="#36B294"/>
<path d="M-22.5 622C-15.2049 731.647 -94.6413 711.135 -27.9906 774H81.4816L231 662.138C106.651 662.138 120.49 630 -22.5 622Z" fill="#52C883"/>
<path d="M258.5 768C453.766 768 488.263 715.683 523.383 530.636C375.478 530.679 197.05 699.128 33 676.5C-57.625 664 -83.5546 655.583 -200.653 680.015C-128.706 785.995 120.753 768 258.5 768Z" fill="#34BE71"/>
<path d="M489.461 632.006C268.008 590.009 221.117 762.267 -126.038 762.309C-56.5798 820.484 158.309 771 256 771C477.5 766 424.291 764.453 489.461 632.006Z" fill="#44A67D"/>
<path d="M264.805 679.247C264.308 679.247 263.817 679.15 263.358 678.96C262.9 678.771 262.483 678.493 262.132 678.142C261.781 677.791 261.503 677.375 261.313 676.916C261.123 676.458 261.025 675.967 261.025 675.47V634.791C261.025 634.295 261.123 633.803 261.313 633.345C261.503 632.886 261.781 632.47 262.132 632.119C262.483 631.768 262.9 631.49 263.358 631.301C263.817 631.111 264.308 631.014 264.805 631.014C265.301 631.014 265.792 631.111 266.251 631.301C266.709 631.49 267.126 631.768 267.477 632.119C267.828 632.47 268.107 632.886 268.297 633.345C268.486 633.803 268.584 634.295 268.584 634.791V675.47C268.584 675.967 268.486 676.458 268.297 676.916C268.107 677.375 267.828 677.791 267.477 678.142C267.126 678.493 266.709 678.771 266.251 678.96C265.792 679.15 265.301 679.247 264.805 679.247Z" fill="#674447"/>
<path d="M288.609 631.325C288.609 644.472 277.952 655.13 264.805 655.13C251.658 655.13 241 644.472 241 631.325C241 618.178 251.658 577.764 264.805 577.764C277.952 577.764 288.609 618.178 288.609 631.325Z" fill="#00A07D"/>
<path d="M264.803 577.764C261.503 577.764 258.361 580.316 255.503 584.338C267.536 584.338 277.291 621.327 277.291 633.36C277.291 643.827 269.903 652.553 260.063 654.652C261.622 654.968 263.21 655.128 264.802 655.13C277.948 655.13 288.606 644.472 288.606 631.325C288.609 618.178 277.952 577.764 264.803 577.764Z" fill="#36B294"/>
<path d="M376.041 645.63C375.356 645.63 374.677 645.496 374.044 645.234C373.411 644.972 372.836 644.588 372.351 644.104C371.866 643.62 371.482 643.045 371.22 642.412C370.957 641.779 370.822 641.101 370.822 640.416V584.252C370.822 581.372 373.156 579.038 376.041 579.038C378.925 579.038 381.259 581.372 381.259 584.252V640.416C381.259 641.101 381.124 641.779 380.862 642.412C380.599 643.045 380.215 643.62 379.73 644.104C379.245 644.588 378.67 644.972 378.037 645.234C377.404 645.496 376.726 645.63 376.041 645.63Z" fill="#674447"/>
<path d="M408.906 579.467C408.906 597.619 394.192 612.334 376.041 612.334C357.889 612.334 343.173 597.62 343.173 579.467C343.173 561.314 357.887 505.517 376.041 505.517C394.194 505.517 408.906 561.316 408.906 579.467Z" fill="#00A07D"/>
<path d="M376.039 505.517C371.483 505.517 367.144 509.039 363.198 514.594H363.2C379.814 514.594 393.281 565.663 393.281 582.277C393.281 596.728 383.083 608.777 369.495 611.674C371.611 612.1 373.797 612.333 376.039 612.333C394.191 612.333 408.906 597.619 408.906 579.467C408.906 561.316 394.191 505.517 376.039 505.517Z" fill="#36B294"/>
<path d="M307.294 670.394C306.656 670.394 306.024 670.269 305.435 670.025C304.845 669.781 304.31 669.424 303.858 668.973C303.407 668.522 303.049 667.987 302.805 667.398C302.56 666.809 302.435 666.177 302.434 665.539V613.244C302.434 610.563 304.608 608.389 307.294 608.389C309.98 608.389 312.153 610.563 312.153 613.244V665.539C312.153 666.177 312.027 666.809 311.783 667.398C311.538 667.987 311.18 668.522 310.729 668.973C310.278 669.424 309.742 669.781 309.153 670.025C308.563 670.269 307.932 670.394 307.294 670.394Z" fill="#674447"/>
<path d="M337.895 608.788C337.895 625.689 324.194 639.391 307.292 639.391C290.391 639.391 276.689 625.689 276.689 608.788C276.689 591.886 290.391 539.931 307.292 539.931C324.194 539.931 337.895 591.886 337.895 608.788Z" fill="#00A07D"/>
<path d="M307.292 539.931C303.05 539.931 299.009 543.211 295.336 548.383H295.338C310.806 548.383 323.347 595.935 323.347 611.403C323.347 624.86 313.85 636.078 301.2 638.775C303.17 639.174 305.206 639.389 307.294 639.389C324.195 639.389 337.897 625.688 337.897 608.786C337.895 591.886 324.194 539.931 307.292 539.931Z" fill="#36B294"/>
<path d="M1245.6 697.462C1244.97 697.463 1244.33 697.338 1243.75 697.094C1243.16 696.85 1242.62 696.493 1242.17 696.042C1241.72 695.591 1241.36 695.056 1241.12 694.466C1240.87 693.877 1240.75 693.246 1240.75 692.608V640.312C1240.75 637.631 1242.92 635.458 1245.6 635.458C1248.29 635.458 1250.46 637.631 1250.46 640.312V692.608C1250.46 693.246 1250.34 693.877 1250.09 694.466C1249.85 695.056 1249.49 695.591 1249.04 696.042C1248.59 696.493 1248.05 696.85 1247.46 697.094C1246.87 697.338 1246.24 697.463 1245.6 697.462Z" fill="#674447"/>
<path d="M1276.21 635.856C1276.21 652.758 1262.5 666.459 1245.6 666.459C1228.7 666.459 1215 652.758 1215 635.856C1215 618.955 1228.7 567 1245.6 567C1262.5 567 1276.21 618.955 1276.21 635.856Z" fill="#00A07D"/>
<path d="M1245.6 567C1241.36 567 1237.32 570.28 1233.65 575.452H1233.65C1249.12 575.452 1261.66 623.003 1261.66 638.472C1261.66 651.928 1252.16 663.147 1239.51 665.844C1241.48 666.242 1243.52 666.458 1245.6 666.458C1262.51 666.458 1276.21 652.756 1276.21 635.855C1276.21 618.955 1262.5 567 1245.6 567Z" fill="#36B294"/>
<path d="M431.919 658.433C430.919 658.434 429.929 658.237 429.006 657.855C428.082 657.473 427.243 656.913 426.536 656.207C425.829 655.5 425.268 654.661 424.885 653.738C424.502 652.814 424.305 651.825 424.305 650.825V568.878C424.305 564.677 427.711 561.271 431.919 561.271C436.127 561.271 439.533 564.677 439.533 568.878V650.825C439.533 651.825 439.335 652.814 438.953 653.738C438.57 654.661 438.009 655.5 437.302 656.207C436.595 656.913 435.755 657.473 434.832 657.855C433.908 658.237 432.918 658.434 431.919 658.433Z" fill="#674447"/>
<path d="M479.87 561.897C479.87 588.381 458.4 609.852 431.916 609.852C405.431 609.852 383.961 588.381 383.961 561.897C383.961 535.412 405.431 454 431.916 454C458.402 454 479.87 535.412 479.87 561.897Z" fill="#00A07D"/>
<path d="M431.917 454C425.269 454 418.939 459.139 413.183 467.242H413.184C437.425 467.242 457.075 541.755 457.075 565.995C457.075 587.081 442.194 604.661 422.37 608.887C425.458 609.511 428.647 609.85 431.919 609.85C458.403 609.85 479.873 588.38 479.873 561.897C479.87 535.412 458.4 454 431.917 454Z" fill="#36B294"/>
<path d="M727.754 618.595C727.754 618.595 351.317 733.532 350.504 741.845C349.692 750.157 501.192 816.97 754.379 813.47C995.879 810.157 1048.5 760.845 1119 760.845C1120.62 754.157 736.066 616.907 727.754 618.595Z" fill="#44A67D"/>
<path d="M710.441 302.72L683.504 268.845C683.504 268.845 640.004 314.47 628.254 326.907C616.504 339.345 607.442 346.532 601.817 358.22C593.754 374.907 568.192 518.97 568.192 518.97L494.254 594.907C494.254 594.907 480.316 586.22 476.879 589.032C473.442 591.845 360.192 726.845 360.192 726.845L350.442 741.782C350.442 741.782 372.942 746.782 379.879 746.095C383.254 745.782 399.879 741.97 418.692 740.032C438.504 737.97 463.817 739.657 466.629 739.345C469.817 739.032 480.817 735.783 480.817 735.783L579.191 677.095L660.004 657.032L733.941 690.22L879.004 697.157L958.442 578.345L785.754 349.657L710.441 302.72Z" fill="#9EA2A3"/>
<path d="M499.754 650.345C499.754 650.345 497.066 642.657 495.066 636.97C493.066 631.282 494.254 594.907 494.254 594.907C494.254 594.907 539.316 621.532 544.316 625.907C549.316 630.282 593.941 658.095 593.941 658.095C593.941 658.095 625.754 654.095 636.816 653.407C647.879 652.72 667.004 653.72 667.004 653.72L659.629 664.47C659.629 664.47 587.567 687.907 574.817 691.97C562.067 695.97 480.379 737.532 480.504 735.97C480.754 732.72 501.754 702.657 501.754 702.657L499.754 650.345Z" fill="#717A7C"/>
<path d="M825.879 685.907L518.004 734.532C518.004 734.532 503.129 747.72 504.629 751.22C506.129 754.72 562.941 765.282 582.566 767.782C602.191 770.282 736.379 777.845 750.941 776.845C765.504 775.845 914.317 768.282 934.942 765.782C955.567 763.282 1024.88 758.47 1029.44 756.407C1038.25 752.407 1078.69 730.595 1078.69 730.595C1078.69 730.595 1033.44 659.22 1024.38 642.095C1015.32 625.032 1000.25 594.345 989.692 583.783C979.129 573.22 971.567 568.72 971.567 568.72C971.567 568.72 957.316 535.595 940.691 514.47C924.129 493.345 904.442 456.345 899.192 451.095C879.254 431.22 875.629 432.157 875.629 432.157L888.129 582.782C888.129 582.782 865.004 629.033 856.941 641.595C849.004 654.283 825.879 685.907 825.879 685.907Z" fill="#717A7C"/>
<path d="M715.254 211.907L709.191 334.532L780.504 378.782C780.504 378.782 801.941 433.72 802.941 438.782C803.941 443.782 802.004 457.345 804.004 460.845C806.004 464.345 842.942 489.782 844.379 489.845C852.567 490.282 869.504 487.345 868.504 485.845C867.504 484.345 875.254 451.72 875.254 451.72C875.254 451.72 826.254 372.282 815.691 350.157C805.129 328.032 765.441 270.72 760.879 261.157C756.316 251.595 734.754 219.907 730.191 214.907C725.629 209.907 718.316 208.407 715.254 211.907Z" fill="#717A7C"/>
<path d="M746.441 445.845C746.441 445.845 780.129 390.345 781.129 381.845C782.129 373.345 754.004 321.532 746.941 302.907C739.879 284.282 721.316 246.095 719.316 241.095C717.316 236.095 715.316 211.97 715.316 211.97C715.316 211.97 701.254 227.032 696.191 239.095C691.191 251.157 672.254 280.845 672.254 280.845C672.254 280.845 684.129 349.72 688.691 379.345C693.191 409.032 696.566 447.97 695.879 449.408C691.566 458.158 662.566 528.658 662.566 528.658C662.566 528.658 658.816 562.845 662.316 566.345C665.816 569.845 686.129 574.47 687.691 572.095C690.754 567.533 690.691 550.22 690.691 550.22C690.691 550.22 747.067 474.095 748.879 470.345C749.567 468.908 746.441 445.845 746.441 445.845Z" fill="#C0C0C0"/>
<path d="M631.566 451.282C631.379 443.72 620.317 407.845 618.317 399.782C616.317 391.72 612.067 351.907 606.504 351.907C601.004 351.907 575.504 422.032 572.941 428.595C570.441 435.157 534.754 512.032 530.191 521.095C525.691 530.157 505.067 569.345 501.067 575.907C497.067 582.47 491.754 593.595 491.754 593.595L593.879 658.157L630.754 653.97C630.754 653.97 609.192 596.032 604.129 582.97C599.067 569.907 593.067 548.782 593.067 548.782C593.067 548.782 604.754 520.782 612.379 500.657C620.066 480.407 631.816 458.782 631.566 451.282Z" fill="#C0C0C0"/>
<path d="M479.566 589.095C479.816 590.032 481.129 613.595 480.441 627.657C479.754 641.782 477.004 655.908 477.004 655.908L435.692 709.657C435.692 709.657 360.942 738.595 356.442 739.97C351.942 741.345 350.504 741.845 350.504 741.845C350.504 741.845 341.129 736.157 369.192 705.532C405.442 665.97 451.816 611.782 457.691 604.97C468.129 592.845 478.879 586.282 479.566 589.095Z" fill="#C0C0C0"/>
<path d="M570.066 605.47C565.816 605.032 560.441 619.22 557.566 629.783C555.504 637.22 542.192 674.908 540.629 682.22C539.004 689.595 530.754 711.345 533.004 712.345C535.254 713.283 552.691 714.533 562.004 712.595C571.254 710.658 591.504 694.407 591.504 690.595C591.504 686.782 582.754 647.282 581.942 642.595C579.692 629.157 576.691 606.157 570.066 605.47Z" fill="#367C2D"/>
<path d="M988.254 663.157C984.504 661.595 974.941 703.907 972.941 718.845C970.941 733.782 965.629 762.157 967.004 764.97C971.004 772.907 1013.63 767.657 1017.75 760.845C1018.94 758.907 1012.94 727.095 1008.63 713.657C1002.75 695.282 997.941 667.22 988.254 663.157Z" fill="#367C2D"/>
<path d="M1062.94 609.845C1057.07 610.095 1050.82 661.407 1046.94 672.595C1042.57 685.282 1027.94 745.345 1034 752.22C1040.07 759.095 1063.25 753.657 1071.88 751.157C1080.19 748.782 1087.38 744.782 1089.38 740.345C1091.38 735.907 1086.63 700.095 1080.88 675.095C1075 649.782 1072.19 609.407 1062.94 609.845Z" fill="#367C2D"/>
<path d="M518.004 734.595C518.004 734.595 534.192 740.72 589.629 744.157C645.067 747.595 672.316 747.282 672.316 747.282L798.941 728.782L827.691 683.282C827.691 683.282 789.441 681.845 769.129 681.157C748.816 680.47 718.504 680.345 717.129 676.595C715.754 672.782 751.316 646.97 761.316 641.845C771.316 636.658 795.441 633.907 800.941 628.095C806.441 622.22 875.942 583.032 884.504 582.72C893.129 582.345 920.004 598.908 925.129 597.158C930.317 595.408 907.254 534.407 904.192 522.97C903.942 521.97 891.754 462.532 891.379 461.407C888.504 452.595 879.691 429.72 874.129 432.47C868.629 435.22 859.317 456.22 852.442 477.22C845.567 498.22 841.441 509.282 838.004 514.407C834.566 519.532 794.629 545.095 789.066 550.908C783.566 556.783 767.004 569.158 757.004 573.283C747.004 577.408 737.379 577.408 730.129 583.97C722.879 590.533 713.941 601.908 703.941 612.533C693.941 623.22 673.629 647.72 666.941 653.72C660.254 659.72 654.254 665.532 654.254 665.532C654.254 665.532 605.941 679.22 589.691 687.095C573.566 695.033 513.816 733.532 518.004 734.595Z" fill="#C0C0C0"/>
<path d="M799.566 701.97C795.066 702.345 788.754 736.095 786.504 743.595C785.254 747.845 774.817 776.908 777.629 781.783C783.254 791.783 829.504 789.095 831.566 783.845C833.566 778.595 818.379 743.47 815.567 736.97C812.692 730.595 806.191 701.408 799.566 701.97Z" fill="#367C2D"/>
<path d="M608.254 619.595C604.566 620.845 600.004 635.095 595.692 649.845C592.942 659.157 584.942 687.095 586.879 688.47C588.817 689.845 608.129 690.782 615.754 686.095C623.379 681.407 628.942 677.345 629.942 674.595C630.942 671.845 622.191 647.595 618.816 638.72C616.191 632.032 612.129 618.22 608.254 619.595Z" fill="#367C2D"/>
<path d="M1209.8 716.483C1209.31 716.483 1208.82 716.386 1208.36 716.196C1207.9 716.007 1207.48 715.729 1207.13 715.378C1206.78 715.027 1206.5 714.611 1206.31 714.152C1206.12 713.694 1206.02 713.202 1206.02 712.706V672.027C1206.02 671.53 1206.12 671.039 1206.31 670.581C1206.5 670.122 1206.78 669.706 1207.13 669.355C1207.48 669.004 1207.9 668.726 1208.36 668.537C1208.82 668.347 1209.31 668.25 1209.8 668.25C1210.3 668.25 1210.79 668.347 1211.25 668.537C1211.71 668.726 1212.13 669.004 1212.48 669.355C1212.83 669.706 1213.11 670.122 1213.3 670.581C1213.49 671.039 1213.58 671.53 1213.58 672.027V712.706C1213.58 713.202 1213.49 713.694 1213.3 714.152C1213.11 714.611 1212.83 715.027 1212.48 715.378C1212.13 715.729 1211.71 716.007 1211.25 716.196C1210.79 716.386 1210.3 716.483 1209.8 716.483Z" fill="#674447"/>
<path d="M1233.61 668.561C1233.61 681.708 1222.95 692.366 1209.8 692.366C1196.66 692.366 1186 681.708 1186 668.561C1186 655.414 1196.66 615 1209.8 615C1222.95 615 1233.61 655.414 1233.61 668.561Z" fill="#00A07D"/>
<path d="M1209.8 615C1206.5 615 1203.36 617.552 1200.5 621.573C1212.54 621.573 1222.29 658.563 1222.29 670.595C1222.29 681.063 1214.9 689.789 1205.06 691.888C1206.62 692.204 1208.21 692.364 1209.8 692.366C1222.95 692.366 1233.61 681.708 1233.61 668.561C1233.61 655.414 1222.95 615 1209.8 615Z" fill="#36B294"/>
<path d="M1275 708C1274.61 708 1274.22 707.92 1273.85 707.762C1273.49 707.605 1273.16 707.374 1272.88 707.084C1272.6 706.793 1272.38 706.447 1272.23 706.067C1272.08 705.687 1272 705.28 1272 704.868V671.132C1272 670.72 1272.08 670.313 1272.23 669.933C1272.38 669.553 1272.6 669.207 1272.88 668.916C1273.16 668.626 1273.49 668.395 1273.85 668.238C1274.22 668.08 1274.61 668 1275 668C1275.39 668 1275.78 668.08 1276.15 668.238C1276.51 668.395 1276.84 668.626 1277.12 668.916C1277.4 669.207 1277.62 669.553 1277.77 669.933C1277.92 670.313 1278 670.72 1278 671.132V704.868C1278 705.28 1277.92 705.687 1277.77 706.067C1277.62 706.447 1277.4 706.793 1277.12 707.084C1276.84 707.374 1276.51 707.605 1276.15 707.762C1275.78 707.92 1275.39 708 1275 708Z" fill="#674447"/>
<path d="M1295 668.308C1295 679.183 1286.05 688 1275 688C1263.95 688 1255 679.183 1255 668.308C1255 657.432 1263.95 624 1275 624C1286.05 624 1295 657.432 1295 668.308Z" fill="#00A07D"/>
<path d="M1274.87 624C1272.08 624 1269.42 626.111 1267 629.438C1277.18 629.438 1285.43 660.037 1285.43 669.991C1285.43 678.65 1279.18 685.869 1270.86 687.604C1272.18 687.866 1273.52 687.999 1274.87 688C1285.99 688 1295 679.183 1295 668.308C1295 657.432 1285.99 624 1274.87 624Z" fill="#36B294"/>
<path d="M496.174 221.022C496.174 201.473 512.02 185.627 531.569 185.627C534.519 185.627 537.341 186.094 540.08 186.773C549.316 176.8 562.411 170.458 577.077 170.458C605.003 170.458 627.641 193.097 627.641 221.022H496.174Z" fill="white"/>
<path d="M129.625 238.328C129.625 217.119 146.819 199.927 168.027 199.927C171.228 199.927 174.288 200.433 177.261 201.17C187.281 190.348 201.489 183.469 217.4 183.469C247.698 183.469 272.259 208.03 272.259 238.328H129.625ZM515.606 212.775C512.925 212.775 510.391 213.303 507.963 214.069C500.27 203.011 487.508 195.739 473.017 195.739C458.527 195.739 445.764 203.009 438.072 214.069C435.644 213.303 433.109 212.775 430.428 212.775C416.316 212.775 404.875 224.216 404.875 238.328H541.161C541.159 224.216 529.719 212.775 515.606 212.775Z" fill="white"/>
<path d="M139.025 191.508C136.991 191.508 135.067 191.908 133.225 192.489C127.387 184.098 117.705 178.581 106.708 178.581C95.7109 178.581 86.0281 184.098 80.1906 192.489C78.3484 191.908 76.425 191.508 74.3906 191.508C63.6812 191.508 55 200.189 55 210.899H158.412C158.414 200.189 149.733 191.508 139.025 191.508Z" fill="white"/>
<path d="M431.87 61.7672C429.972 61.7672 428.178 62.1406 426.459 62.6828C421.014 54.8547 411.978 49.7062 401.719 49.7062C391.459 49.7062 382.423 54.8531 376.978 62.6828C375.258 62.1406 373.464 61.7672 371.567 61.7672C368.099 61.7672 364.889 62.7922 362.134 64.4859C356.297 51.8312 343.58 43 328.728 43C318.038 43 308.491 47.6234 301.759 54.8937C299.763 54.3984 297.706 54.0578 295.555 54.0578C281.305 54.0578 269.753 65.6109 269.753 79.8594H449.961C449.963 69.8672 441.863 61.7672 431.87 61.7672Z" fill="white"/>
<path d="M226.264 111.978C224.717 111.978 223.255 112.283 221.853 112.725C217.414 106.344 210.05 102.147 201.688 102.147C195.52 102.147 189.919 104.453 185.609 108.209C179.728 99.7218 169.945 94.1421 158.838 94.1421C149.388 94.1421 140.948 98.228 134.998 104.656C133.233 104.217 131.416 103.917 129.514 103.917C116.917 103.917 106.706 114.128 106.706 126.725H241.011C241.011 122.814 239.457 119.063 236.692 116.297C233.926 113.532 230.175 111.978 226.264 111.978Z" fill="white"/>
<path d="M643.095 100.828C637.242 94.1078 631.238 87.5249 624.955 81.2109C624.456 81.5843 623.916 81.9046 623.447 82.314C617.566 73.8265 607.783 68.2468 596.675 68.2468C587.225 68.2468 578.786 72.3328 572.836 78.7609C571.07 78.3218 569.253 78.0218 567.352 78.0218C554.756 78.0203 544.545 88.2312 544.545 100.828H643.095Z" fill="white"/>
<path d="M1250.17 258.022C1250.17 238.473 1266.02 222.627 1285.57 222.627C1288.52 222.627 1291.34 223.094 1294.08 223.773C1303.32 213.8 1316.41 207.458 1331.08 207.458C1359 207.458 1381.64 230.097 1381.64 258.022H1250.17Z" fill="white"/>
<path d="M883.625 275.328C883.625 254.119 900.819 236.927 922.027 236.927C925.228 236.927 928.288 237.433 931.261 238.17C941.281 227.348 955.489 220.469 971.4 220.469C1001.7 220.469 1026.26 245.03 1026.26 275.328H883.625ZM1269.61 249.775C1266.93 249.775 1264.39 250.303 1261.96 251.069C1254.27 240.011 1241.51 232.739 1227.02 232.739C1212.53 232.739 1199.76 240.009 1192.07 251.069C1189.64 250.303 1187.11 249.775 1184.43 249.775C1170.32 249.775 1158.88 261.216 1158.88 275.328H1295.16C1295.16 261.216 1283.72 249.775 1269.61 249.775Z" fill="white"/>
<path d="M893.025 228.508C890.991 228.508 889.067 228.908 887.225 229.489C881.387 221.098 871.705 215.581 860.708 215.581C849.711 215.581 840.028 221.098 834.191 229.489C832.348 228.908 830.425 228.508 828.391 228.508C817.681 228.508 809 237.189 809 247.899H912.412C912.414 237.189 903.733 228.508 893.025 228.508Z" fill="white"/>
<path d="M1185.87 98.7672C1183.97 98.7672 1182.18 99.1406 1180.46 99.6828C1175.01 91.8547 1165.98 86.7062 1155.72 86.7062C1145.46 86.7062 1136.42 91.8531 1130.98 99.6828C1129.26 99.1406 1127.46 98.7672 1125.57 98.7672C1122.1 98.7672 1118.89 99.7922 1116.13 101.486C1110.3 88.8312 1097.58 80 1082.73 80C1072.04 80 1062.49 84.6234 1055.76 91.8937C1053.76 91.3984 1051.71 91.0578 1049.55 91.0578C1035.3 91.0578 1023.75 102.611 1023.75 116.859H1203.96C1203.96 106.867 1195.86 98.7672 1185.87 98.7672Z" fill="white"/>
<path d="M980.264 148.978C978.717 148.978 977.255 149.283 975.853 149.725C971.414 143.344 964.05 139.147 955.688 139.147C949.52 139.147 943.919 141.453 939.609 145.209C933.728 136.722 923.945 131.142 912.838 131.142C903.388 131.142 894.948 135.228 888.998 141.656C887.233 141.217 885.416 140.917 883.514 140.917C870.917 140.917 860.706 151.128 860.706 163.725H995.011C995.011 159.814 993.457 156.063 990.692 153.297C987.926 150.532 984.175 148.978 980.264 148.978Z" fill="white"/>
<path d="M1397.1 137.828C1391.24 131.108 1385.24 124.525 1378.95 118.211C1378.46 118.584 1377.92 118.905 1377.45 119.314C1371.57 110.827 1361.78 105.247 1350.68 105.247C1341.23 105.247 1332.79 109.333 1326.84 115.761C1325.07 115.322 1323.25 115.022 1321.35 115.022C1308.76 115.02 1298.55 125.231 1298.55 137.828H1397.1Z" fill="white"/>
</g>
<defs>
<linearGradient id="paint0_linear_222_100" x1="720" y1="0" x2="720" y2="1024" gradientUnits="userSpaceOnUse">
<stop offset="0.11" stop-color="#95C4F8"/>
<stop offset="1" stop-color="#FF3D00"/>
</linearGradient>
<linearGradient id="paint1_linear_222_100" x1="720" y1="762" x2="720" y2="1024" gradientUnits="userSpaceOnUse">
<stop stop-color="#68BBFF"/>
<stop offset="0.442699" stop-color="#2A6696"/>
<stop offset="0.937699" stop-color="#111B21"/>
</linearGradient>
<clipPath id="clip0_222_100">
<rect width="1440" height="1024" fill="white"/>
</clipPath>
</defs>
</svg>
