<svg width="1440" height="1023" viewBox="0 0 1440 1023" fill="none" xmlns="http://www.w3.org/2000/svg">
<rect width="1440" height="1022" fill="url(#paint0_linear_215_296)"/>
<path d="M0 830.661H720V1021.91H0V830.661Z" fill="url(#paint1_linear_215_296)"/>
<path d="M0 891.411C0 891.411 40.5 892.536 84.375 909.411C123.75 925.161 191.25 949.911 225 949.911C232.875 949.911 252 944.286 252 944.286C252 944.286 354.375 973.536 393.75 971.286C403.875 971.286 424.125 961.161 424.125 961.161C424.125 961.161 436.5 962.286 439.875 961.161C452.25 958.911 465.75 948.786 477 946.536C487.125 944.286 510.75 945.411 519.75 943.161C529.875 940.911 549 927.411 549 927.411C549 927.411 576 927.411 585 926.286C594 925.161 616.5 920.661 616.5 920.661C616.5 920.661 645.75 924.036 655.875 924.036C671.625 924.036 718.875 917.286 718.875 917.286V830.661H0V891.411Z" fill="#2B95BF"/>
<path d="M0 620.286C0 620.286 40.5 616.911 84.375 559.536C123.75 507.786 191.25 420.036 225 418.911C232.875 418.911 252 440.286 252 440.286C252 440.286 354.375 340.161 392.625 346.911C402.75 349.161 423 382.911 423 382.911C423 382.911 435.375 380.661 438.75 382.911C451.125 389.661 464.625 424.536 475.875 432.411C486 439.161 509.625 435.786 518.625 444.786C528.75 453.786 547.875 497.661 547.875 497.661C547.875 497.661 574.875 498.786 583.875 502.161C592.875 505.536 615.375 523.536 615.375 523.536C615.375 523.536 644.625 512.286 654.75 513.411C670.5 514.536 717.75 537.036 717.75 537.036V830.661H0V620.286Z" fill="#77994F"/>
<path d="M633.374 666.411L550.124 496.536C573.749 556.161 561.374 652.911 633.374 666.411Z" fill="#8BCE4A"/>
<path d="M617.624 522.411C617.624 522.411 627.749 588.786 680.624 606.786L617.624 522.411Z" fill="#8BCE4A"/>
<path d="M212.625 830.661L180 711.411L221.625 728.286L189 642.786H240.75L213.75 553.911L247.5 540.411L270 497.661L250.875 440.286L318.375 571.911L419.625 704.661L501.75 783.411L586.125 804.786L633.375 830.661H212.625Z" fill="#8BCE4A"/>
<path d="M424.125 382.911L434.249 470.661L462.374 526.911H443.25L506.25 614.661L464.624 596.661L497.25 691.161L560.249 738.411L536.625 756.411L607.499 793.536L651.375 830.661H720V799.161L644.624 760.911L626.625 742.911L613.124 756.411L550.125 647.286L487.124 502.161L461.25 462.786L424.125 382.911Z" fill="#8BCE4A"/>
<path d="M474.75 830.661H0V756.411L474.75 830.661Z" fill="#DBF763"/>
<path d="M474.75 830.661H0V865.536L474.75 830.661Z" fill="#1D8299"/>
<path d="M56.25 852.036C75.375 848.661 91.125 862.161 110.25 852.036C131.625 841.911 146.25 856.536 166.5 859.911C147.375 863.286 131.625 849.786 112.5 859.911C91.125 870.036 76.5 856.536 56.25 852.036Z" fill="#B4D7EE"/>
<path d="M591.751 895.911C610.876 892.536 626.626 906.036 645.751 895.911C667.126 885.786 681.751 900.411 702.001 903.786C682.876 907.161 667.126 893.661 648.001 903.786C626.626 913.911 612.001 900.411 591.751 895.911Z" fill="#B4D7EE"/>
<path d="M172.125 895.911C190.125 892.536 204.75 900.411 222.75 902.661C243 904.911 258.75 898.161 277.875 892.536C312.75 880.161 338.625 903.786 371.25 910.536C353.25 913.911 338.625 906.036 320.625 903.786C300.375 901.536 284.625 908.286 265.5 913.911C230.625 926.286 204.75 902.661 172.125 895.911Z" fill="#B4D7EE"/>
<path d="M434.251 850.911C461.251 847.536 484.876 866.661 511.876 853.161C542.251 839.661 563.626 858.786 591.751 863.286C564.751 866.661 541.126 847.536 514.126 861.036C484.876 874.536 463.501 854.286 434.251 850.911Z" fill="#B4D7EE"/>
<path d="M541.126 989.286C568.126 985.911 591.751 1005.04 618.751 991.536C649.126 978.036 670.501 997.161 698.626 1001.66C671.626 1005.04 648.001 985.911 621.001 999.411C591.751 1012.91 570.376 992.661 541.126 989.286Z" fill="#B4D7EE"/>
<path d="M40.5012 980.286C67.5012 976.911 91.1262 996.036 118.126 982.536C147.376 969.036 169.876 988.161 198.001 992.661C171.001 996.036 147.376 976.911 120.376 990.411C91.1262 1003.91 69.7512 984.786 40.5012 980.286Z" fill="#B4D7EE"/>
<path d="M1440 830.998H720V1022.22H1440V830.998Z" fill="url(#paint2_linear_215_296)"/>
<path d="M1440 891.738C1440 891.738 1399.33 892.863 1355.27 909.735C1315.73 925.483 1247.95 950.229 1214.06 950.229C1206.15 950.229 1186.95 944.605 1186.95 944.605C1186.95 944.605 1084.15 973.85 1044.61 971.6C1034.44 971.6 1014.11 961.477 1014.11 961.477C1014.11 961.477 1001.68 962.602 998.289 961.477C985.863 959.227 972.306 949.104 961.009 946.854C950.842 944.605 927.119 945.729 918.081 943.48C907.914 941.23 888.709 927.732 888.709 927.732C888.709 927.732 861.596 927.732 852.559 926.608C843.521 925.483 820.927 920.983 820.927 920.983C820.927 920.983 791.555 924.358 781.388 924.358C765.572 924.358 718.125 917.609 718.125 917.609V830.998H1440V891.738Z" fill="#2B95BF"/>
<path d="M1440 620.658C1440 620.658 1399.2 617.284 1355.01 559.918C1315.34 508.176 1247.35 420.44 1213.35 419.315C1205.42 419.315 1186.16 440.687 1186.16 440.687C1186.16 440.687 1083.03 340.578 1044.5 347.327C1034.3 349.576 1013.91 383.321 1013.91 383.321C1013.91 383.321 1001.44 381.071 998.041 383.321C985.575 390.07 971.976 424.939 960.644 432.813C950.445 439.562 926.647 436.187 917.581 445.186C907.382 454.185 888.118 498.053 888.118 498.053C888.118 498.053 860.92 499.177 851.854 502.552C842.788 505.926 820.124 523.924 820.124 523.924C820.124 523.924 790.66 512.675 780.461 513.8C764.596 514.925 717 537.421 717 537.421V831H1440V620.658Z" fill="#77994F"/>
<path d="M806.626 666.775L889.876 496.927C866.251 556.543 878.626 653.277 806.626 666.775Z" fill="#8BCE4A"/>
<path d="M822.376 522.798C822.376 522.798 812.251 589.162 759.376 607.159L822.376 522.798Z" fill="#8BCE4A"/>
<path d="M1227.38 830.998L1260 711.767L1218.37 728.64L1251 643.154H1199.25L1226.25 554.293L1192.5 540.795L1170 498.052L1189.13 440.686L1121.63 572.29L1020.38 705.018L938.25 783.756L853.875 805.127L806.625 830.998H1227.38Z" fill="#8BCE4A"/>
<path d="M1015.88 382.321L1005.65 470.056L977.238 526.297H996.557L932.918 614.033L974.965 596.036L942.009 690.521L878.37 737.763L902.235 755.76L830.641 792.879L786.321 829.998H717.001V798.503L793.14 760.259L811.322 742.262L824.959 755.76L888.598 646.653L952.237 501.551L978.374 462.183L1015.88 382.321Z" fill="#8BCE4A"/>
<path d="M965.25 830.998H1440V756.76L965.25 830.998Z" fill="#DBF763"/>
<path d="M965.25 830.998H1440V865.867L965.25 830.998Z" fill="#1D8299"/>
<path d="M1383.75 852.37C1364.62 848.995 1348.87 862.493 1329.75 852.37C1308.37 842.246 1293.75 856.869 1273.5 860.243C1292.62 863.618 1308.37 850.12 1327.5 860.243C1348.87 870.367 1363.5 856.869 1383.75 852.37Z" fill="#B4D7EE"/>
<path d="M848.249 896.237C829.124 892.863 813.374 906.361 794.249 896.237C772.874 886.114 758.249 900.737 737.999 904.111C757.124 907.486 772.874 893.988 791.999 904.111C813.374 914.235 827.999 900.737 848.249 896.237Z" fill="#B4D7EE"/>
<path d="M1267.87 896.237C1249.87 892.863 1235.25 900.737 1217.25 902.986C1197 905.236 1181.25 898.487 1162.12 892.863C1127.25 880.49 1101.37 904.111 1068.75 910.86C1086.75 914.235 1101.37 906.361 1119.37 904.111C1139.62 901.862 1155.37 908.611 1174.5 914.235C1209.37 926.608 1235.25 902.986 1267.87 896.237Z" fill="#B4D7EE"/>
<path d="M1005.75 851.245C978.749 847.87 955.124 866.992 928.124 853.494C897.749 839.997 876.374 859.119 848.249 863.618C875.249 866.992 898.874 847.87 925.874 861.368C955.124 874.866 976.499 854.619 1005.75 851.245Z" fill="#B4D7EE"/>
<path d="M898.874 989.597C871.874 986.223 848.249 1005.34 821.249 991.847C790.874 978.349 769.499 997.471 741.374 1001.97C768.374 1005.34 791.999 986.223 818.999 999.721C848.249 1013.22 869.624 992.972 898.874 989.597Z" fill="#B4D7EE"/>
<path d="M1399.5 980.599C1372.5 977.224 1348.87 996.346 1321.87 982.848C1292.62 969.351 1270.12 988.473 1242 992.972C1269 996.346 1292.62 977.224 1319.62 990.722C1348.87 1004.22 1370.25 985.098 1399.5 980.599Z" fill="#B4D7EE"/>
<defs>
<linearGradient id="paint0_linear_215_296" x1="720" y1="0" x2="720" y2="1022" gradientUnits="userSpaceOnUse">
<stop offset="0.11" stop-color="#FEE6A9"/>
<stop offset="0.305" stop-color="#FEE6A9"/>
<stop offset="1" stop-color="#FF3D00"/>
</linearGradient>
<linearGradient id="paint1_linear_215_296" x1="360" y1="830.661" x2="360" y2="1021.91" gradientUnits="userSpaceOnUse">
<stop stop-color="#2C6D9C"/>
<stop offset="1" stop-color="#111B21"/>
</linearGradient>
<linearGradient id="paint2_linear_215_296" x1="1080" y1="830.998" x2="1080" y2="1022.22" gradientUnits="userSpaceOnUse">
<stop stop-color="#2C6D9C"/>
<stop offset="1" stop-color="#111B21"/>
</linearGradient>
</defs>
</svg>
