<svg width="1440" height="1024" viewBox="0 0 1440 1024" fill="none" xmlns="http://www.w3.org/2000/svg">
<g clip-path="url(#clip0_222_100)">
<rect width="1440" height="1024" fill="white"/>
<rect width="1440" height="1024" fill="url(#paint0_linear_222_100)"/>
<circle cx="752" cy="375" r="129" fill="url(#paint1_linear_222_100)"/>
<rect y="762" width="1440" height="262" fill="url(#paint2_linear_222_100)"/>
<path d="M1330 853.832C1362.44 848.233 1389.15 870.628 1421.59 853.832C1457.85 837.036 1482.65 861.297 1517 866.896C1484.56 872.494 1457.85 850.1 1425.41 866.896C1389.15 883.692 1364.35 861.297 1330 853.832Z" fill="#B4D7EE"/>
<path d="M274 837.516C293.125 834.141 308.875 847.641 328 837.516C349.375 827.391 364 842.016 384.25 845.391C365.125 848.766 349.375 835.266 330.25 845.391C308.875 855.516 294.25 842.016 274 837.516Z" fill="#B4D7EE"/>
<path d="M136 888.832C167.745 883.233 193.888 905.628 225.633 888.832C261.112 872.036 285.388 896.297 319 901.896C287.255 907.494 261.112 885.1 229.367 901.896C193.888 918.692 169.612 896.297 136 888.832Z" fill="#B4D7EE"/>
<path d="M-73 842.832C-41.2551 837.233 -15.1122 859.628 16.6327 842.832C52.1123 826.036 76.3878 850.297 110 855.896C78.2551 861.494 52.1122 839.1 20.3673 855.896C-15.1123 872.692 -39.3878 850.297 -73 842.832Z" fill="#B4D7EE"/>
<path d="M1098 901.832C1129.74 896.233 1155.89 918.628 1187.63 901.832C1223.11 885.036 1247.39 909.297 1281 914.896C1249.26 920.494 1223.11 898.1 1191.37 914.896C1155.89 931.692 1131.61 909.297 1098 901.832Z" fill="#B4D7EE"/>
<path d="M413 883.516C432.125 880.141 447.875 893.641 467 883.516C488.375 873.391 503 888.016 523.25 891.391C504.125 894.766 488.375 881.266 469.25 891.391C447.875 901.516 433.25 888.016 413 883.516Z" fill="#B4D7EE"/>
<path d="M568 844.516C587.125 841.141 602.875 854.641 622 844.516C643.375 834.391 658 849.016 678.25 852.391C659.125 855.766 643.375 842.266 624.25 852.391C602.875 862.516 588.25 849.016 568 844.516Z" fill="#B4D7EE"/>
<path d="M678 899.666C704.367 895.187 726.082 913.102 752.449 899.666C781.918 886.229 802.082 905.638 830 910.116C803.633 914.595 781.918 896.68 755.551 910.116C726.082 923.553 705.918 905.638 678 899.666Z" fill="#B4D7EE"/>
<path d="M872 853.666C898.367 849.187 920.082 867.102 946.449 853.666C975.918 840.229 996.082 859.638 1024 864.116C997.633 868.595 975.918 850.68 949.551 864.116C920.082 877.553 899.918 859.638 872 853.666Z" fill="#B4D7EE"/>
<path d="M1030.01 706L768.893 571.03C738.819 522.116 694.152 484.68 683 426.422C683 426.422 809.657 412.095 850.911 394.023C901.638 371.802 1016.61 214.553 1088.52 120.153C1101.89 103.481 1114.87 88.0021 1127.23 74.4368C1148.55 51.0271 1210.83 44 1219.33 44C1226.7 44 1286.37 113.594 1329.93 165.753C1395.59 245.239 1472.89 341.025 1511 378.805L1440.97 552.232V671.053L1351.89 674.048L1255.76 677.044L1030.01 706Z" fill="#56AE4F"/>
<path d="M757 504.529C832.033 504.529 906.52 515.745 994.818 440.957C1029.16 411.874 1063.11 383.908 1092.11 419.017C1110.23 440.957 1143.8 513.456 1185.58 482.93C1227.36 452.404 1244.96 358.061 1284.78 357.011C1317.21 356.157 1343.91 403.453 1367.8 377.363C1383.53 360.186 1528 460.99 1528 460.99C1528 460.99 1451.5 552.5 1414 565C1355 593.5 1214.38 608.681 1214.38 608.681C1214.38 608.681 1170.46 660.416 1147.91 652.094C1125.35 643.772 1070.24 661.127 1038.64 647.122C1007.04 633.118 856.345 570.691 853.093 563.06C849.84 555.428 757 504.529 757 504.529Z" fill="#498A4F"/>
<path d="M1089.21 120.377C1102.48 103.656 1115.37 88.1315 1127.63 74.5263C1148.8 51.0478 1210.63 44 1219.07 44C1226.39 44 1285.63 113.798 1328.86 166.111C1345.44 186.382 1362.76 207.709 1380 228.871C1372.55 239.288 1358.12 253.96 1336.77 251.875C1294.74 247.769 1286.55 198.494 1254.77 202.598C1211.49 208.192 1218.06 334 1172.77 334C1128.7 334 1159.26 238.586 1107.17 219.023C1068.8 204.612 1054.66 245.928 990 251.295C1025.37 206.013 1060.7 158.191 1089.21 120.377Z" fill="#3A874B"/>
<path d="M341.659 753.75L554.28 642.889C578.769 602.713 596.288 557.852 605.369 510C605.369 510 521.086 512.344 487.494 497.5C446.188 479.248 352.566 350.087 294.009 272.55C283.122 258.856 272.556 246.142 262.494 235C245.13 215.772 194.42 210 187.494 210C181.492 210 132.903 267.163 97.4375 310.005C43.9719 375.292 -18.9766 453.969 -50.0078 485L-102 591.25L-27 738.5L57 741L255 747L341.659 753.75Z" fill="#56AE4F"/>
<path d="M-10.718 286.621L10 323L32.5 350.5L57 360L85.3436 388.495L-10.4429 432.218L-10.718 286.621Z" fill="#56AE4F"/>
<path d="M563.511 533.939C502.053 533.939 441.042 543.125 368.719 481.875C340.594 458.056 312.784 435.153 289.031 463.906C274.187 481.875 246.691 541.25 212.469 516.25C178.247 491.25 163.833 413.984 131.219 413.125C104.656 412.425 87.5 440.5 63.2156 429.792C41 425.5 -4.50004 402 -4.50004 402C-4.50004 402 -21.6875 550.025 -4.50002 549C12.6875 547.975 188.878 616.238 188.878 616.238C188.878 616.238 224.852 661.608 243.327 654.792C261.802 647.977 306.945 662.191 332.825 650.72C358.705 639.252 482.139 588.125 484.803 581.875C487.467 575.625 563.511 533.939 563.511 533.939Z" fill="#498A4F"/>
<path d="M308.953 292.445C303.78 285.555 298.742 278.848 293.986 272.55C283.098 258.856 272.533 246.142 262.47 235C245.106 215.772 194.397 210 187.47 210C183.287 210 158.416 237.773 131.72 269.105C160.908 245.937 176.833 255.47 182.261 282.57C194.797 345.156 208.303 395.416 223.928 355.833C239.553 316.25 232.686 293.581 278.519 298.281C296.609 300.136 300.336 294.839 308.953 292.445Z" fill="#3A874B"/>
<path d="M1440 623.5C1438.5 738 1485.32 687.284 1397.5 753.93L1321.5 762.93L1220.51 757.93L1086.5 675C1250.34 675 1258.5 631 1440 623.5Z" fill="#39DC3C"/>
<path d="M1037.87 750.846C842.614 750.846 808.119 698.643 773 514C920.898 514.044 1101.81 698.722 1265.85 676.144C1356.47 663.671 1361.91 655.121 1479 679.5C1519 828 1175.61 750.846 1037.87 750.846Z" fill="#34BE49"/>
<path d="M807.001 614.628C1028.27 572.432 1094.13 752.958 1441 753C1548 842 1091.11 763 993.5 763C836.039 763 872.118 747.701 807.001 614.628Z" fill="#44A65D"/>
<path d="M-22.5 622C-15.2049 731.647 -94.6413 711.135 -27.9906 774H81.4816L231 662.138C106.651 662.138 120.49 630 -22.5 622Z" fill="#39DC3C"/>
<path d="M258.5 768C453.766 768 488.263 715.683 523.383 530.636C375.478 530.679 197.05 699.128 33 676.5C-57.625 664 -83.5546 655.583 -200.653 680.015C-128.706 785.995 120.753 768 258.5 768Z" fill="#34BE49"/>
<path d="M51.9768 682.111H44.4438V688.605H51.9768V682.111Z" fill="#997668"/>
<path opacity="0.2" d="M48.2102 682.111H44.4438V688.605H48.2102V682.111Z" fill="#222222"/>
<path opacity="0.3" d="M44.4438 682.111V685.449C45.6483 685.619 46.9104 685.709 48.2102 685.709C49.5102 685.709 50.7722 685.619 51.9768 685.449V682.111H44.4438Z" fill="#222222"/>
<path d="M61 677.441C61 673.576 58.1201 658 48.2098 658C38.2995 658 35.4197 673.576 35.4197 677.441C35.4197 681.306 41.146 684.44 48.2098 684.44C55.2737 684.44 61 681.306 61 677.441Z" fill="#218649"/>
<path opacity="0.2" d="M35.4197 677.441C35.4197 681.306 41.146 684.44 48.2098 684.44V658C38.2994 658 35.4197 673.576 35.4197 677.441Z" fill="#222222"/>
<path opacity="0.2" d="M43.3068 664.994C42.7299 663.557 42.0894 662.265 41.3907 661.125C36.9004 665.879 35.4197 674.67 35.4197 677.441C35.4197 679.945 37.8239 682.14 41.4361 683.377C44.2731 681.873 46.0395 679.768 46.0395 677.441C46.0396 675.601 45.3718 670.138 43.3068 664.994Z" fill="#222222"/>
<path d="M36.5004 703.536H27.3074V711.462H36.5004V703.536Z" fill="#997668"/>
<path opacity="0.2" d="M31.9038 703.536H27.3074V711.462H31.9038V703.536Z" fill="#222222"/>
<path opacity="0.3" d="M27.3074 703.536V707.61C28.7772 707.817 30.3175 707.927 31.9038 707.927C33.4903 707.927 35.0306 707.817 36.5004 707.61V703.536H27.3074Z" fill="#222222"/>
<path d="M47.5122 697.838C47.5122 693.12 43.9977 671.661 31.9035 671.661C19.8092 671.661 16.2947 693.12 16.2947 697.838C16.2947 702.555 23.283 706.379 31.9035 706.379C40.5239 706.379 47.5122 702.555 47.5122 697.838Z" fill="#77BC1F"/>
<path opacity="0.2" d="M31.9035 671.661C19.8092 671.661 16.2947 693.12 16.2947 697.838C16.2947 702.555 23.283 706.379 31.9035 706.379V671.661Z" fill="#218649"/>
<path d="M92.1884 687.546H84.832V693.888H92.1884V687.546Z" fill="#997668"/>
<path opacity="0.2" d="M88.5101 687.546H84.832V693.888H88.5101V687.546Z" fill="#222222"/>
<path opacity="0.3" d="M84.832 687.546V690.805C86.0082 690.971 87.2408 691.059 88.5101 691.059C89.7796 691.059 91.0121 690.971 92.1884 690.805V687.546H84.832Z" fill="#222222"/>
<path d="M101 682.985C101 679.211 98.1876 664 88.5096 664C78.8316 664 76.0193 679.211 76.0193 682.985C76.0193 686.76 81.6114 689.82 88.5096 689.82C95.4079 689.82 101 686.76 101 682.985Z" fill="#218649"/>
<path opacity="0.2" d="M76.0193 682.985C76.0193 686.76 81.6114 689.82 88.5096 689.82V664C78.8315 664 76.0193 679.211 76.0193 682.985Z" fill="#222222"/>
<path opacity="0.2" d="M83.7216 670.83C83.1581 669.427 82.5326 668.165 81.8503 667.052C77.4653 671.694 76.0193 680.279 76.0193 682.985C76.0193 685.43 78.3672 687.574 81.8947 688.782C84.6651 687.314 86.3901 685.258 86.3901 682.985C86.3903 681.188 85.7381 675.853 83.7216 670.83Z" fill="#222222"/>
<path d="M77.5667 704.848H68.9724V712.258H77.5667V704.848Z" fill="#997668"/>
<path opacity="0.2" d="M73.2695 704.848H68.9724V712.258H73.2695V704.848Z" fill="#222222"/>
<path opacity="0.3" d="M68.9724 704.848V708.657C70.3465 708.85 71.7865 708.953 73.2695 708.953C74.7526 708.953 76.1925 708.85 77.5667 708.657V704.848H68.9724Z" fill="#222222"/>
<path d="M87.8613 699.521C87.8613 695.111 84.5757 677.34 73.269 677.34C61.9624 677.34 58.6768 695.111 58.6768 699.521C58.6768 703.931 65.2099 707.506 73.269 707.506C81.3282 707.506 87.8613 703.931 87.8613 699.521Z" fill="#218649"/>
<path opacity="0.2" d="M58.6768 699.521C58.6768 703.931 65.2099 707.506 73.269 707.506V677.34C61.9622 677.34 58.6768 695.111 58.6768 699.521Z" fill="#222222"/>
<path opacity="0.2" d="M67.6752 685.32C67.0169 683.681 66.2862 682.206 65.4891 680.906C60.3661 686.33 58.6768 696.359 58.6768 699.521C58.6768 702.377 61.4197 704.882 65.5409 706.293C68.7776 704.577 70.7929 702.176 70.7929 699.521C70.7931 697.421 70.0312 691.188 67.6752 685.32Z" fill="#222222"/>
<circle cx="78.5" cy="683.5" r="1.5" fill="#D9D9D9"/>
<circle cx="78.5" cy="683.5" r="1.5" fill="url(#paint3_linear_222_100)"/>
<circle cx="71.5" cy="686.5" r="1.5" fill="#D9D9D9"/>
<circle cx="71.5" cy="686.5" r="1.5" fill="url(#paint4_linear_222_100)"/>
<circle cx="65.5" cy="692.5" r="1.5" fill="#D9D9D9"/>
<circle cx="65.5" cy="692.5" r="1.5" fill="url(#paint5_linear_222_100)"/>
<circle cx="71.5" cy="696.5" r="1.5" fill="#D9D9D9"/>
<circle cx="71.5" cy="696.5" r="1.5" fill="url(#paint6_linear_222_100)"/>
<circle cx="80.5" cy="703.5" r="1.5" fill="#D9D9D9"/>
<circle cx="80.5" cy="703.5" r="1.5" fill="url(#paint7_linear_222_100)"/>
<circle cx="78.5" cy="693.5" r="1.5" fill="#D9D9D9"/>
<circle cx="78.5" cy="693.5" r="1.5" fill="url(#paint8_linear_222_100)"/>
<circle cx="64.5" cy="703.5" r="1.5" fill="#D9D9D9"/>
<path d="M63.7344 725.812H54.7568V733.551H63.7344V725.812Z" fill="#997668"/>
<path opacity="0.2" d="M59.2455 725.812H54.7568V733.551H59.2455V725.812Z" fill="#222222"/>
<path opacity="0.3" d="M54.7568 725.812V729.79C56.1922 729.992 57.6964 730.1 59.2455 730.1C60.7948 730.1 62.299 729.992 63.7344 729.79V725.812H54.7568Z" fill="#222222"/>
<path d="M74.4879 720.247C74.4879 715.64 71.0558 694.683 59.2451 694.683C47.4343 694.683 44.0022 715.64 44.0022 720.247C44.0022 724.853 50.8267 728.588 59.2451 728.588C67.6635 728.588 74.4879 724.853 74.4879 720.247Z" fill="#77BC1F"/>
<path opacity="0.2" d="M59.2451 694.683C47.4343 694.683 44.0022 715.64 44.0022 720.247C44.0022 724.853 50.8267 728.588 59.2451 728.588V694.683Z" fill="#218649"/>
<circle cx="64.5" cy="701.5" r="1.5" fill="#D9D9D9"/>
<circle cx="64.5" cy="701.5" r="1.5" fill="url(#paint9_linear_222_100)"/>
<circle cx="57.5" cy="704.5" r="1.5" fill="#D9D9D9"/>
<circle cx="57.5" cy="704.5" r="1.5" fill="url(#paint10_linear_222_100)"/>
<circle cx="51.5" cy="710.5" r="1.5" fill="#D9D9D9"/>
<circle cx="51.5" cy="710.5" r="1.5" fill="url(#paint11_linear_222_100)"/>
<circle cx="57.5" cy="714.5" r="1.5" fill="#D9D9D9"/>
<circle cx="57.5" cy="714.5" r="1.5" fill="url(#paint12_linear_222_100)"/>
<circle cx="66.5" cy="721.5" r="1.5" fill="#D9D9D9"/>
<circle cx="66.5" cy="721.5" r="1.5" fill="url(#paint13_linear_222_100)"/>
<circle cx="64.5" cy="711.5" r="1.5" fill="#D9D9D9"/>
<circle cx="64.5" cy="711.5" r="1.5" fill="url(#paint14_linear_222_100)"/>
<circle cx="50.5" cy="721.5" r="1.5" fill="#D9D9D9"/>
<circle cx="50.5" cy="721.5" r="1.5" fill="url(#paint15_linear_222_100)"/>
<path d="M24.9163 730.615H15.3994V738.82H24.9163V730.615Z" fill="#997668"/>
<path opacity="0.2" d="M20.158 730.615H15.3994V738.82H20.158V730.615Z" fill="#222222"/>
<path opacity="0.3" d="M15.3994 730.615V734.832C16.921 735.047 18.5156 735.161 20.1578 735.161C21.8001 735.161 23.3945 735.047 24.9163 734.832V730.615H15.3994Z" fill="#222222"/>
<path d="M36.3175 724.716C36.3175 719.832 32.6791 697.616 20.1587 697.616C7.63833 697.616 4 719.832 4 724.716C4 729.599 11.2345 733.558 20.1587 733.558C29.083 733.558 36.3175 729.599 36.3175 724.716Z" fill="#218649"/>
<path opacity="0.2" d="M31.1506 705.559C30.5857 706.618 30.0544 707.761 29.5609 708.991C26.9523 715.489 26.1084 722.391 26.1084 724.716C26.1084 727.281 27.8076 729.632 30.621 731.452C34.105 729.83 36.3181 727.415 36.3181 724.716C36.3181 721.758 34.9835 712.446 31.1506 705.559Z" fill="#222222"/>
<path opacity="0.2" d="M20.1587 697.616C7.63833 697.616 4 719.832 4 724.715C4 729.599 11.2345 733.558 20.1587 733.558V697.616Z" fill="#222222"/>
<path d="M489.498 631.197C268.045 589.2 221.155 761.458 -126 761.5C-56.5422 819.675 158.309 771 256 771C477.5 766 424.328 763.644 489.498 631.197Z" fill="#44A65D"/>
<path d="M108.828 683.265C108.54 683.265 108.255 683.208 107.988 683.098C107.722 682.988 107.48 682.827 107.276 682.623C107.072 682.419 106.91 682.177 106.8 681.911C106.689 681.645 106.633 681.359 106.633 681.071V657.439C106.633 657.151 106.689 656.866 106.8 656.599C106.91 656.333 107.072 656.091 107.276 655.888C107.48 655.684 107.722 655.522 107.988 655.412C108.255 655.302 108.54 655.245 108.828 655.246C109.117 655.245 109.402 655.302 109.668 655.412C109.935 655.522 110.177 655.684 110.381 655.888C110.585 656.091 110.746 656.333 110.857 656.599C110.967 656.866 111.024 657.151 111.024 657.439V681.071C111.024 681.359 110.967 681.645 110.857 681.911C110.746 682.177 110.585 682.419 110.381 682.623C110.177 682.827 109.935 682.988 109.668 683.098C109.402 683.208 109.117 683.265 108.828 683.265Z" fill="#674447"/>
<path d="M122.657 655.426C122.657 663.063 116.466 669.255 108.829 669.255C101.191 669.255 95 663.063 95 655.426C95 647.789 101.191 624.312 108.829 624.312C116.466 624.312 122.657 647.789 122.657 655.426Z" fill="#00A048"/>
<path d="M108.828 624.312C106.911 624.312 105.085 625.794 103.425 628.13C110.415 628.13 116.082 649.618 116.082 656.608C116.082 662.689 111.79 667.758 106.074 668.977C106.98 669.161 107.902 669.254 108.827 669.255C116.464 669.255 122.655 663.063 122.655 655.426C122.657 647.789 116.466 624.312 108.828 624.312Z" fill="#36B24F"/>
<path d="M186.467 662.489C186.101 662.49 185.738 662.418 185.4 662.278C185.061 662.138 184.753 661.932 184.494 661.673C184.235 661.414 184.029 661.107 183.889 660.768C183.749 660.43 183.676 660.067 183.676 659.701V629.663C183.676 628.122 184.925 626.874 186.467 626.874C188.01 626.874 189.259 628.122 189.259 629.663V659.701C189.258 660.067 189.186 660.43 189.046 660.768C188.905 661.107 188.7 661.414 188.441 661.673C188.181 661.932 187.874 662.138 187.535 662.278C187.197 662.418 186.834 662.49 186.467 662.489Z" fill="#674447"/>
<path d="M204.045 627.104C204.045 636.812 196.175 644.682 186.467 644.682C176.759 644.682 168.889 636.813 168.889 627.104C168.889 617.395 176.758 587.553 186.467 587.553C196.176 587.553 204.045 617.396 204.045 627.104Z" fill="#00A048"/>
<path d="M186.466 587.553C184.03 587.553 181.709 589.437 179.599 592.408H179.6C188.485 592.408 195.688 619.721 195.688 628.606C195.688 636.335 190.234 642.779 182.967 644.329C184.098 644.557 185.267 644.681 186.466 644.681C196.174 644.681 204.045 636.812 204.045 627.104C204.045 617.396 196.174 587.553 186.466 587.553Z" fill="#36B24F"/>
<path d="M127.121 678.566C126.75 678.566 126.383 678.493 126.041 678.352C125.699 678.21 125.387 678.002 125.125 677.741C124.863 677.479 124.655 677.168 124.513 676.825C124.371 676.483 124.298 676.116 124.298 675.746V645.367C124.298 643.809 125.561 642.546 127.121 642.546C128.681 642.546 129.944 643.809 129.944 645.367V675.746C129.944 676.116 129.871 676.483 129.729 676.825C129.587 677.168 129.379 677.479 129.117 677.741C128.854 678.002 128.543 678.21 128.201 678.352C127.859 678.493 127.492 678.566 127.121 678.566Z" fill="#674447"/>
<path d="M144.898 642.778C144.898 652.596 136.939 660.556 127.12 660.556C117.302 660.556 109.342 652.596 109.342 642.778C109.342 632.959 117.302 602.778 127.12 602.778C136.939 602.778 144.898 632.959 144.898 642.778Z" fill="#00A048"/>
<path d="M127.12 602.778C124.656 602.778 122.309 604.683 120.175 607.688H120.175C129.162 607.688 136.447 635.311 136.447 644.297C136.447 652.114 130.93 658.631 123.581 660.198C124.726 660.429 125.908 660.555 127.121 660.555C136.939 660.555 144.899 652.595 144.899 642.777C144.898 632.959 136.939 602.778 127.12 602.778Z" fill="#36B24F"/>
<path d="M1229.65 690.872C1229.2 690.872 1228.74 690.783 1228.32 690.608C1227.9 690.434 1227.52 690.178 1227.19 689.855C1226.87 689.533 1226.61 689.15 1226.44 688.728C1226.27 688.306 1226.17 687.854 1226.17 687.398V649.975C1226.17 648.057 1227.73 646.501 1229.65 646.501C1231.57 646.501 1233.13 648.057 1233.13 649.975V687.398C1233.13 687.854 1233.04 688.306 1232.86 688.728C1232.69 689.15 1232.43 689.533 1232.11 689.855C1231.79 690.178 1231.4 690.434 1230.98 690.608C1230.56 690.783 1230.11 690.872 1229.65 690.872Z" fill="#674447"/>
<path d="M1251.55 646.787C1251.55 658.881 1241.75 668.686 1229.65 668.686C1217.56 668.686 1207.75 658.881 1207.75 646.787C1207.75 634.692 1217.56 597.513 1229.65 597.513C1241.75 597.513 1251.55 634.692 1251.55 646.787Z" fill="#00A048"/>
<path d="M1229.65 597.513C1226.62 597.513 1223.72 599.86 1221.1 603.561H1221.1C1232.17 603.561 1241.14 637.589 1241.14 648.658C1241.14 658.288 1234.34 666.316 1225.29 668.246C1226.7 668.531 1228.16 668.685 1229.65 668.685C1241.75 668.685 1251.55 658.88 1251.55 646.785C1251.55 634.692 1241.75 597.513 1229.65 597.513Z" fill="#36B24F"/>
<path d="M216.352 669.337C215.818 669.337 215.288 669.232 214.794 669.028C214.3 668.824 213.851 668.524 213.473 668.146C213.095 667.768 212.795 667.32 212.59 666.826C212.386 666.332 212.28 665.803 212.28 665.268V621.44C212.28 619.193 214.102 617.371 216.352 617.371C218.603 617.371 220.424 619.193 220.424 621.44V665.268C220.424 665.803 220.319 666.332 220.114 666.826C219.909 667.32 219.609 667.768 219.231 668.146C218.853 668.524 218.404 668.824 217.91 669.028C217.416 669.232 216.887 669.337 216.352 669.337Z" fill="#674447"/>
<path d="M241.998 617.706C241.998 631.871 230.515 643.354 216.351 643.354C202.186 643.354 190.703 631.871 190.703 617.706C190.703 603.542 202.186 560 216.351 560C230.516 560 241.998 603.542 241.998 617.706Z" fill="#00A048"/>
<path d="M216.351 560C212.796 560 209.41 562.749 206.332 567.082H206.333C219.297 567.082 229.807 606.934 229.807 619.898C229.807 631.176 221.848 640.578 211.246 642.838C212.897 643.172 214.602 643.353 216.352 643.353C230.517 643.353 242 631.87 242 617.706C241.998 603.542 230.515 560 216.351 560Z" fill="#36B24F"/>
<path d="M1204.03 704.483C1203.68 704.483 1203.33 704.413 1203 704.278C1202.67 704.142 1202.37 703.943 1202.12 703.692C1201.87 703.441 1201.67 703.143 1201.54 702.815C1201.4 702.487 1201.33 702.135 1201.33 701.78V672.67C1201.33 672.315 1201.4 671.963 1201.54 671.635C1201.67 671.307 1201.87 671.009 1202.12 670.758C1202.37 670.507 1202.67 670.308 1203 670.172C1203.33 670.037 1203.68 669.967 1204.03 669.967C1204.39 669.967 1204.74 670.037 1205.07 670.172C1205.4 670.308 1205.7 670.507 1205.95 670.758C1206.2 671.009 1206.4 671.307 1206.53 671.635C1206.67 671.963 1206.74 672.315 1206.74 672.67V701.78C1206.74 702.135 1206.67 702.487 1206.53 702.815C1206.4 703.143 1206.2 703.441 1205.95 703.692C1205.7 703.943 1205.4 704.142 1205.07 704.278C1204.74 704.413 1204.39 704.483 1204.03 704.483Z" fill="#674447"/>
<path d="M1221.07 670.19C1221.07 679.598 1213.44 687.225 1204.03 687.225C1194.63 687.225 1187 679.598 1187 670.19C1187 660.782 1194.63 631.862 1204.03 631.862C1213.44 631.862 1221.07 660.782 1221.07 670.19Z" fill="#00A048"/>
<path d="M1204.03 631.862C1201.67 631.862 1199.42 633.688 1197.38 636.566C1205.99 636.566 1212.97 663.035 1212.97 671.646C1212.97 679.136 1207.68 685.381 1200.64 686.882C1201.76 687.109 1202.89 687.224 1204.03 687.225C1213.44 687.225 1221.07 679.598 1221.07 670.19C1221.07 660.782 1213.44 631.862 1204.03 631.862Z" fill="#36B24F"/>
<path d="M1250.69 698.413C1250.41 698.413 1250.13 698.355 1249.87 698.242C1249.61 698.13 1249.37 697.965 1249.17 697.757C1248.97 697.549 1248.81 697.301 1248.7 697.029C1248.6 696.757 1248.54 696.466 1248.54 696.171V672.03C1248.54 671.735 1248.6 671.444 1248.7 671.172C1248.81 670.9 1248.97 670.652 1249.17 670.444C1249.37 670.236 1249.61 670.071 1249.87 669.959C1250.13 669.846 1250.41 669.788 1250.69 669.789C1250.97 669.788 1251.25 669.846 1251.51 669.959C1251.77 670.071 1252.01 670.236 1252.21 670.444C1252.41 670.652 1252.56 670.9 1252.67 671.172C1252.78 671.444 1252.83 671.735 1252.83 672.03V696.171C1252.83 696.466 1252.78 696.757 1252.67 697.029C1252.56 697.301 1252.41 697.549 1252.21 697.757C1252.01 697.965 1251.77 698.13 1251.51 698.242C1251.25 698.355 1250.97 698.413 1250.69 698.413Z" fill="#674447"/>
<path d="M1265 670.009C1265 677.791 1258.59 684.101 1250.69 684.101C1242.78 684.101 1236.38 677.791 1236.38 670.009C1236.38 662.226 1242.78 638.302 1250.69 638.302C1258.59 638.302 1265 662.226 1265 670.009Z" fill="#00A048"/>
<path d="M1250.59 638.302C1248.6 638.302 1246.69 639.813 1244.96 642.194C1252.25 642.194 1258.15 664.09 1258.15 671.213C1258.15 677.409 1253.68 682.575 1247.72 683.817C1248.67 684.005 1249.63 684.1 1250.59 684.101C1258.55 684.101 1265 677.791 1265 670.009C1265 662.226 1258.55 638.302 1250.59 638.302Z" fill="#36B24F"/>
<path d="M953.736 623.73H945.879V630.513H953.736V623.73Z" fill="#997668"/>
<path opacity="0.2" d="M949.807 623.73H945.879V630.513H949.807V623.73Z" fill="#222222"/>
<path opacity="0.3" d="M945.879 623.73V627.216C947.135 627.394 948.452 627.488 949.807 627.488C951.163 627.488 952.48 627.394 953.736 627.216V623.73H945.879Z" fill="#222222"/>
<path d="M963.148 618.854C963.148 614.817 960.144 598.551 949.807 598.551C939.47 598.551 936.467 614.817 936.467 618.854C936.467 622.89 942.439 626.163 949.807 626.163C957.175 626.163 963.148 622.89 963.148 618.854Z" fill="#218649"/>
<path opacity="0.2" d="M936.467 618.854C936.467 622.89 942.439 626.163 949.807 626.163V598.551C939.47 598.551 936.467 614.817 936.467 618.854Z" fill="#222222"/>
<path opacity="0.2" d="M944.693 605.855C944.091 604.354 943.423 603.005 942.695 601.814C938.011 606.779 936.467 615.959 936.467 618.854C936.467 621.468 938.974 623.761 942.742 625.053C945.701 623.482 947.544 621.284 947.544 618.854C947.544 616.932 946.847 611.226 944.693 605.855Z" fill="#222222"/>
<path d="M979.03 646.182H969.442V654.46H979.03V646.182Z" fill="#997668"/>
<path opacity="0.2" d="M974.236 646.182H969.442V654.46H974.236V646.182Z" fill="#222222"/>
<path opacity="0.3" d="M969.442 646.182V650.437C970.975 650.653 972.581 650.768 974.236 650.768C975.891 650.768 977.497 650.653 979.03 650.437V646.182H969.442Z" fill="#222222"/>
<path d="M990.517 640.231C990.517 635.305 986.851 612.894 974.236 612.894C961.621 612.894 957.955 635.305 957.955 640.231C957.955 645.158 965.244 649.151 974.236 649.151C983.228 649.151 990.517 645.158 990.517 640.231Z" fill="#77BC1F"/>
<path opacity="0.2" d="M974.236 612.894C961.621 612.894 957.955 635.305 957.955 640.231C957.955 645.158 965.244 649.151 974.236 649.151V612.894Z" fill="#218649"/>
<circle cx="980.5" cy="622.5" r="1.5" fill="url(#paint16_linear_222_100)"/>
<circle cx="973.5" cy="625.5" r="1.5" fill="url(#paint17_linear_222_100)"/>
<circle cx="967.5" cy="631.5" r="1.5" fill="url(#paint18_linear_222_100)"/>
<circle cx="973.5" cy="635.5" r="1.5" fill="url(#paint19_linear_222_100)"/>
<circle cx="982.5" cy="642.5" r="1.5" fill="url(#paint20_linear_222_100)"/>
<circle cx="980.5" cy="632.5" r="1.5" fill="url(#paint21_linear_222_100)"/>
<circle cx="966.5" cy="642.5" r="1.5" fill="url(#paint22_linear_222_100)"/>
<path d="M1077.49 666.476L1068.22 666.344L1068.11 674.346L1077.38 674.479L1077.49 666.476Z" fill="#997668"/>
<path opacity="0.2" d="M1072.86 666.41L1068.22 666.344L1068.11 674.346L1072.74 674.412L1072.86 666.41Z" fill="#222222"/>
<path opacity="0.3" d="M1068.22 666.344L1068.16 670.457C1069.64 670.687 1071.19 670.821 1072.79 670.843C1074.39 670.866 1075.95 670.777 1077.43 670.589L1077.49 666.476L1068.22 666.344Z" fill="#222222"/>
<path d="M1088.68 660.881C1088.75 656.118 1085.51 634.399 1073.32 634.225C1061.12 634.051 1057.26 655.668 1057.2 660.431C1057.13 665.194 1064.12 669.156 1072.81 669.28C1081.51 669.405 1088.61 665.644 1088.68 660.881Z" fill="#77BC1F"/>
<path opacity="0.2" d="M1073.32 634.225C1061.12 634.051 1057.26 655.668 1057.2 660.431C1057.13 665.194 1064.12 669.156 1072.81 669.28L1073.32 634.225Z" fill="#218649"/>
<path d="M1011.19 667.099H999.188V677.456H1011.19V667.099Z" fill="#997668"/>
<path opacity="0.2" d="M1005.19 667.099H999.188V677.456H1005.19V667.099Z" fill="#222222"/>
<path opacity="0.3" d="M999.188 667.099V672.422C1001.11 672.693 1003.12 672.837 1005.19 672.837C1007.26 672.837 1009.27 672.693 1011.19 672.422V667.099H999.188Z" fill="#222222"/>
<path d="M1025.56 659.652C1025.56 653.487 1020.97 625.444 1005.19 625.444C989.403 625.445 984.816 653.487 984.816 659.652C984.816 665.816 993.937 670.813 1005.19 670.813C1016.44 670.813 1025.56 665.816 1025.56 659.652Z" fill="#218649"/>
<path opacity="0.2" d="M1019.05 635.471C1018.33 636.807 1017.66 638.251 1017.04 639.803C1013.75 648.005 1012.69 656.718 1012.69 659.652C1012.69 662.89 1014.83 665.858 1018.38 668.156C1022.77 666.108 1025.56 663.06 1025.56 659.652C1025.56 655.919 1023.88 644.164 1019.05 635.471Z" fill="#222222"/>
<path opacity="0.2" d="M1005.19 625.444C989.403 625.444 984.816 653.487 984.816 659.652C984.816 665.816 993.937 670.813 1005.19 670.813V625.444Z" fill="#222222"/>
<circle cx="1010.5" cy="639.5" r="1.5" fill="url(#paint23_linear_222_100)"/>
<circle cx="1003.5" cy="642.5" r="1.5" fill="url(#paint24_linear_222_100)"/>
<circle cx="997.5" cy="648.5" r="1.5" fill="url(#paint25_linear_222_100)"/>
<circle cx="1003.5" cy="652.5" r="1.5" fill="url(#paint26_linear_222_100)"/>
<circle cx="1012.5" cy="659.5" r="1.5" fill="url(#paint27_linear_222_100)"/>
<circle cx="1010.5" cy="649.5" r="1.5" fill="url(#paint28_linear_222_100)"/>
<circle cx="996.5" cy="659.5" r="1.5" fill="url(#paint29_linear_222_100)"/>
<path d="M882.535 609.279H873.647V617.704H882.535V609.279Z" fill="#997668"/>
<path opacity="0.2" d="M878.091 609.279H873.647V617.704H878.091V609.279Z" fill="#222222"/>
<path opacity="0.3" d="M873.647 609.279V613.609C875.068 613.829 876.557 613.946 878.091 613.946C879.625 613.946 881.114 613.829 882.535 613.609V609.279H873.647Z" fill="#222222"/>
<path d="M893.182 603.221C893.182 598.206 889.784 578 878.091 578C866.398 578 863 598.206 863 603.221C863 608.235 869.756 612.3 878.091 612.3C886.425 612.3 893.182 608.235 893.182 603.221Z" fill="#218649"/>
<path opacity="0.2" d="M863 603.221C863 608.235 869.756 612.3 878.091 612.3V578C866.398 578 863 598.206 863 603.221Z" fill="#222222"/>
<path opacity="0.2" d="M872.306 587.074C871.625 585.21 870.869 583.533 870.045 582.054C864.747 588.222 863 599.626 863 603.221C863 606.469 865.837 609.317 870.099 610.921C873.446 608.97 875.53 606.24 875.53 603.221C875.53 600.834 874.742 593.746 872.306 587.074Z" fill="#222222"/>
<path d="M915.198 631.88H904.352V641.243H915.198V631.88Z" fill="#997668"/>
<path opacity="0.2" d="M909.775 631.88H904.352V641.243H909.775V631.88Z" fill="#222222"/>
<path opacity="0.3" d="M904.352 631.88V636.693C906.086 636.937 907.903 637.068 909.775 637.068C911.647 637.068 913.464 636.937 915.198 636.693V631.88H904.352Z" fill="#222222"/>
<path d="M928.192 625.149C928.192 619.576 924.045 594.225 909.775 594.225C895.506 594.225 891.359 619.576 891.359 625.149C891.359 630.721 899.604 635.239 909.775 635.239C919.946 635.239 928.192 630.721 928.192 625.149Z" fill="#77BC1F"/>
<path opacity="0.2" d="M909.775 594.225C895.506 594.225 891.359 619.576 891.359 625.149C891.359 630.721 899.604 635.239 909.775 635.239V594.225Z" fill="#218649"/>
<circle cx="901.5" cy="627.5" r="1.5" fill="#D9D9D9"/>
<path d="M1030.74 691.862H1022.88V698.644H1030.74V691.862Z" fill="#997668"/>
<path opacity="0.2" d="M1026.81 691.862H1022.88V698.644H1026.81V691.862Z" fill="#222222"/>
<path opacity="0.3" d="M1022.88 691.862V695.348C1024.14 695.525 1025.45 695.619 1026.81 695.619C1028.17 695.619 1029.48 695.525 1030.74 695.348V691.862H1022.88Z" fill="#222222"/>
<path d="M1040.15 686.985C1040.15 682.948 1037.15 666.682 1026.81 666.682C1016.47 666.682 1013.47 682.948 1013.47 686.985C1013.47 691.022 1019.44 694.294 1026.81 694.294C1034.18 694.294 1040.15 691.022 1040.15 686.985Z" fill="#218649"/>
<path opacity="0.2" d="M1013.47 686.985C1013.47 691.022 1019.44 694.294 1026.81 694.294V666.682C1016.47 666.682 1013.47 682.948 1013.47 686.985Z" fill="#222222"/>
<path opacity="0.2" d="M1021.69 673.987C1021.09 672.486 1020.43 671.136 1019.7 669.945C1015.01 674.911 1013.47 684.091 1013.47 686.985C1013.47 689.6 1015.98 691.892 1019.74 693.184C1022.7 691.614 1024.55 689.415 1024.55 686.985C1024.55 685.063 1023.85 679.358 1021.69 673.987Z" fill="#222222"/>
<path d="M1094.13 686.342L1086.53 686.234L1086.44 692.791L1094.04 692.9L1094.13 686.342Z" fill="#997668"/>
<path opacity="0.2" d="M1090.33 686.288L1086.53 686.234L1086.44 692.791L1090.24 692.845L1090.33 686.288Z" fill="#222222"/>
<path opacity="0.3" d="M1086.53 686.234L1086.49 689.604C1087.7 689.793 1088.97 689.902 1090.28 689.921C1091.59 689.94 1092.86 689.867 1094.08 689.713L1094.13 686.342L1086.53 686.234Z" fill="#222222"/>
<path d="M1103.3 681.757C1103.35 677.854 1100.67 662.086 1090.68 661.943C1080.68 661.8 1077.56 677.486 1077.5 681.388C1077.44 685.291 1083.17 688.538 1090.3 688.64C1097.42 688.741 1103.24 685.66 1103.3 681.757Z" fill="#218649"/>
<path opacity="0.2" d="M1077.5 681.388C1077.44 685.291 1083.17 688.538 1090.3 688.64L1090.68 661.943C1080.68 661.8 1077.56 677.486 1077.5 681.388Z" fill="#222222"/>
<path opacity="0.2" d="M1085.63 668.935C1085.07 667.475 1084.45 666.161 1083.76 665C1079.16 669.736 1077.54 678.59 1077.5 681.388C1077.46 683.916 1079.86 686.168 1083.48 687.469C1086.36 685.991 1088.18 683.891 1088.21 681.542C1088.24 679.684 1087.64 674.158 1085.63 668.935Z" fill="#222222"/>
<path d="M1113.14 705.82L1104.27 705.693L1104.16 713.354L1113.03 713.481L1113.14 705.82Z" fill="#997668"/>
<path opacity="0.2" d="M1108.71 705.757L1104.27 705.693L1104.16 713.354L1108.6 713.418L1108.71 705.757Z" fill="#222222"/>
<path opacity="0.3" d="M1104.27 705.693L1104.21 709.631C1105.63 709.852 1107.11 709.979 1108.65 710.001C1110.18 710.023 1111.67 709.938 1113.09 709.758L1113.14 705.82L1104.27 705.693Z" fill="#222222"/>
<path d="M1123.85 700.464C1123.92 695.904 1120.79 677.482 1109.11 677.315C1097.44 677.148 1093.78 695.473 1093.72 700.033C1093.65 704.593 1100.34 708.385 1108.67 708.504C1116.99 708.623 1123.79 705.023 1123.85 700.464Z" fill="#218649"/>
<path opacity="0.2" d="M1093.72 700.033C1093.65 704.593 1100.34 708.385 1108.67 708.504L1109.11 677.315C1097.44 677.148 1093.78 695.473 1093.72 700.033Z" fill="#222222"/>
<path opacity="0.2" d="M1103.22 685.483C1102.56 683.778 1101.83 682.243 1101.03 680.886C1095.66 686.419 1093.76 696.764 1093.72 700.033C1093.67 702.986 1096.47 705.617 1100.7 707.137C1104.07 705.41 1106.19 702.957 1106.23 700.212C1106.26 698.041 1105.56 691.585 1103.22 685.483Z" fill="#222222"/>
<path d="M1050.73 714.451H1041.14V722.728H1050.73V714.451Z" fill="#997668"/>
<path opacity="0.2" d="M1045.94 714.451H1041.14V722.728H1045.94V714.451Z" fill="#222222"/>
<path opacity="0.3" d="M1041.14 714.451V718.705C1042.68 718.921 1044.28 719.036 1045.94 719.036C1047.59 719.036 1049.2 718.921 1050.73 718.705V714.451H1041.14Z" fill="#222222"/>
<path d="M1062.22 708.499C1062.22 703.573 1058.55 681.162 1045.94 681.162C1033.32 681.162 1029.66 703.573 1029.66 708.499C1029.66 713.426 1036.94 717.419 1045.94 717.419C1054.93 717.419 1062.22 713.426 1062.22 708.499Z" fill="#77BC1F"/>
<path opacity="0.2" d="M1045.94 681.162C1033.32 681.162 1029.66 703.573 1029.66 708.499C1029.66 713.426 1036.94 717.419 1045.94 717.419V681.162Z" fill="#218649"/>
<circle cx="1051.5" cy="690.5" r="1.5" fill="url(#paint30_linear_222_100)"/>
<circle cx="1044.5" cy="693.5" r="1.5" fill="url(#paint31_linear_222_100)"/>
<circle cx="1038.5" cy="699.5" r="1.5" fill="url(#paint32_linear_222_100)"/>
<circle cx="1044.5" cy="703.5" r="1.5" fill="url(#paint33_linear_222_100)"/>
<circle cx="1053.5" cy="710.5" r="1.5" fill="url(#paint34_linear_222_100)"/>
<circle cx="1051.5" cy="700.5" r="1.5" fill="url(#paint35_linear_222_100)"/>
<circle cx="1037.5" cy="710.5" r="1.5" fill="url(#paint36_linear_222_100)"/>
<path d="M1127.4 730.371L1118.13 730.238L1118.01 738.241L1127.28 738.373L1127.4 730.371Z" fill="#997668"/>
<path opacity="0.2" d="M1122.76 730.304L1118.13 730.238L1118.01 738.241L1122.65 738.307L1122.76 730.304Z" fill="#222222"/>
<path opacity="0.3" d="M1118.13 730.238L1118.07 734.351C1119.55 734.582 1121.1 734.715 1122.7 734.738C1124.3 734.761 1125.85 734.672 1127.34 734.484L1127.4 730.371L1118.13 730.238Z" fill="#222222"/>
<path d="M1138.58 724.775C1138.65 720.012 1135.42 698.294 1123.22 698.119C1111.02 697.945 1107.17 719.562 1107.1 724.326C1107.03 729.089 1114.03 733.05 1122.72 733.175C1131.41 733.299 1138.52 729.538 1138.58 724.775Z" fill="#77BC1F"/>
<path opacity="0.2" d="M1123.22 698.119C1111.02 697.945 1107.17 719.562 1107.1 724.326C1107.03 729.089 1114.03 733.05 1122.72 733.175L1123.22 698.119Z" fill="#218649"/>
<circle cx="1128.5" cy="706.5" r="1.5" fill="url(#paint37_linear_222_100)"/>
<circle cx="1121.5" cy="709.5" r="1.5" fill="url(#paint38_linear_222_100)"/>
<circle cx="1115.5" cy="715.5" r="1.5" fill="url(#paint39_linear_222_100)"/>
<circle cx="1121.5" cy="719.5" r="1.5" fill="url(#paint40_linear_222_100)"/>
<circle cx="1130.5" cy="726.5" r="1.5" fill="url(#paint41_linear_222_100)"/>
<circle cx="1128.5" cy="716.5" r="1.5" fill="url(#paint42_linear_222_100)"/>
<circle cx="1114.5" cy="726.5" r="1.5" fill="url(#paint43_linear_222_100)"/>
<path d="M559.754 618.595C559.754 618.595 183.317 733.532 182.504 741.845C181.692 750.157 333.192 816.97 586.379 813.47C827.879 810.157 880.5 760.845 951 760.845C952.625 754.157 568.066 616.907 559.754 618.595Z" fill="#44A65D"/>
<path d="M542.441 302.72L515.504 268.845C515.504 268.845 472.004 314.47 460.254 326.907C448.504 339.345 439.442 346.532 433.817 358.22C425.754 374.907 400.192 518.97 400.192 518.97L326.254 594.907C326.254 594.907 312.317 586.22 308.879 589.032C305.442 591.845 192.192 726.845 192.192 726.845L182.442 741.782C182.442 741.782 204.942 746.782 211.879 746.095C215.254 745.782 231.879 741.97 250.692 740.032C270.504 737.97 295.817 739.657 298.629 739.345C301.817 739.032 312.817 735.783 312.817 735.783L411.191 677.095L492.004 657.032L565.941 690.22L711.004 697.157L790.442 578.345L617.754 349.657L542.441 302.72Z" fill="#4D995D"/>
<path d="M331.754 650.345C331.754 650.345 329.066 642.657 327.066 636.97C325.066 631.282 326.254 594.907 326.254 594.907C326.254 594.907 371.316 621.532 376.316 625.907C381.316 630.282 425.941 658.095 425.941 658.095C425.941 658.095 457.754 654.095 468.816 653.407C479.879 652.72 499.004 653.72 499.004 653.72L491.629 664.47C491.629 664.47 419.567 687.907 406.817 691.97C394.067 695.97 312.379 737.532 312.504 735.97C312.754 732.72 333.754 702.657 333.754 702.657L331.754 650.345Z" fill="#49884E"/>
<path d="M657.879 685.907L350.004 734.532C350.004 734.532 335.129 747.72 336.629 751.22C338.129 754.72 394.941 765.282 414.566 767.782C434.191 770.282 568.379 777.845 582.941 776.845C597.504 775.845 746.317 768.282 766.942 765.782C787.567 763.282 856.879 758.47 861.442 756.407C870.254 752.407 910.692 730.595 910.692 730.595C910.692 730.595 865.441 659.22 856.379 642.095C847.316 625.032 832.254 594.345 821.692 583.783C811.129 573.22 803.567 568.72 803.567 568.72C803.567 568.72 789.316 535.595 772.691 514.47C756.129 493.345 736.442 456.345 731.192 451.095C711.254 431.22 707.629 432.157 707.629 432.157L720.129 582.782C720.129 582.782 697.004 629.033 688.941 641.595C681.004 654.283 657.879 685.907 657.879 685.907Z" fill="#49884E"/>
<path d="M547.254 211.907L541.191 334.532L612.504 378.782C612.504 378.782 633.941 433.72 634.941 438.782C635.941 443.782 634.004 457.345 636.004 460.845C638.004 464.345 674.942 489.782 676.379 489.845C684.567 490.282 701.504 487.345 700.504 485.845C699.504 484.345 707.254 451.72 707.254 451.72C707.254 451.72 658.254 372.282 647.691 350.157C637.129 328.032 597.441 270.72 592.879 261.157C588.316 251.595 566.754 219.907 562.191 214.907C557.629 209.907 550.316 208.407 547.254 211.907Z" fill="#49884E"/>
<path d="M578.441 445.845C578.441 445.845 612.129 390.345 613.129 381.845C614.129 373.345 586.004 321.532 578.941 302.907C571.879 284.282 553.316 246.095 551.316 241.095C549.316 236.095 547.316 211.97 547.316 211.97C547.316 211.97 533.254 227.032 528.191 239.095C523.191 251.157 504.254 280.845 504.254 280.845C504.254 280.845 516.129 349.72 520.691 379.345C525.191 409.032 528.566 447.97 527.879 449.408C523.566 458.158 494.566 528.658 494.566 528.658C494.566 528.658 490.816 562.845 494.316 566.345C497.816 569.845 518.129 574.47 519.691 572.095C522.754 567.533 522.691 550.22 522.691 550.22C522.691 550.22 579.067 474.095 580.879 470.345C581.567 468.908 578.441 445.845 578.441 445.845Z" fill="#8CCB81"/>
<path d="M463.566 451.282C463.379 443.72 452.317 407.845 450.317 399.782C448.317 391.72 444.067 351.907 438.504 351.907C433.004 351.907 407.504 422.032 404.941 428.595C402.441 435.157 366.754 512.032 362.191 521.095C357.691 530.157 337.067 569.345 333.067 575.907C329.067 582.47 323.754 593.595 323.754 593.595L425.879 658.157L462.754 653.97C462.754 653.97 441.192 596.032 436.129 582.97C431.067 569.907 425.067 548.782 425.067 548.782C425.067 548.782 436.754 520.782 444.379 500.657C452.066 480.407 463.816 458.782 463.566 451.282Z" fill="#8CCB81"/>
<path d="M311.566 589.095C311.816 590.032 313.129 613.595 312.441 627.657C311.754 641.782 309.004 655.908 309.004 655.908L267.692 709.657C267.692 709.657 192.942 738.595 188.442 739.97C183.942 741.345 182.504 741.845 182.504 741.845C182.504 741.845 173.129 736.157 201.192 705.532C237.442 665.97 283.816 611.782 289.691 604.97C300.129 592.845 310.879 586.282 311.566 589.095Z" fill="#8CCB81"/>
<path d="M402.066 605.47C397.816 605.032 392.441 619.22 389.566 629.783C387.504 637.22 374.192 674.908 372.629 682.22C371.004 689.595 362.754 711.345 365.004 712.345C367.254 713.283 384.691 714.533 394.004 712.595C403.254 710.658 423.504 694.407 423.504 690.595C423.504 686.782 414.754 647.282 413.942 642.595C411.692 629.157 408.691 606.157 402.066 605.47Z" fill="#367C2D"/>
<path d="M820.254 663.157C816.504 661.595 806.941 703.907 804.941 718.845C802.941 733.782 797.629 762.157 799.004 764.97C803.004 772.907 845.629 767.657 849.754 760.845C850.941 758.907 844.941 727.095 840.629 713.657C834.754 695.282 829.941 667.22 820.254 663.157Z" fill="#367C2D"/>
<path d="M894.942 609.845C889.067 610.095 882.816 661.407 878.941 672.595C874.566 685.282 859.942 745.345 866.004 752.22C872.067 759.095 895.254 753.657 903.879 751.157C912.191 748.782 919.379 744.782 921.379 740.345C923.379 735.907 918.629 700.095 912.879 675.095C907.004 649.782 904.192 609.407 894.942 609.845Z" fill="#367C2D"/>
<path d="M350.004 734.595C350.004 734.595 366.192 740.72 421.629 744.157C477.067 747.595 504.316 747.282 504.316 747.282L630.941 728.782L659.691 683.282C659.691 683.282 621.441 681.845 601.129 681.157C580.816 680.47 550.504 680.345 549.129 676.595C547.754 672.782 583.316 646.97 593.316 641.845C603.316 636.658 627.441 633.907 632.941 628.095C638.441 622.22 707.942 583.032 716.504 582.72C725.129 582.345 752.004 598.908 757.129 597.158C762.317 595.408 739.254 534.407 736.192 522.97C735.942 521.97 723.754 462.532 723.379 461.407C720.504 452.595 711.691 429.72 706.129 432.47C700.629 435.22 691.317 456.22 684.442 477.22C677.567 498.22 673.441 509.282 670.004 514.407C666.566 519.532 626.629 545.095 621.066 550.908C615.566 556.783 599.004 569.158 589.004 573.283C579.004 577.408 569.379 577.408 562.129 583.97C554.879 590.533 545.941 601.908 535.941 612.533C525.941 623.22 505.629 647.72 498.941 653.72C492.254 659.72 486.254 665.532 486.254 665.532C486.254 665.532 437.941 679.22 421.691 687.095C405.566 695.033 345.816 733.532 350.004 734.595Z" fill="#8CCB81"/>
<path d="M631.566 701.97C627.066 702.345 620.754 736.095 618.504 743.595C617.254 747.845 606.817 776.908 609.629 781.783C615.254 791.783 661.504 789.095 663.566 783.845C665.566 778.595 650.379 743.47 647.567 736.97C644.692 730.595 638.191 701.408 631.566 701.97Z" fill="#367C2D"/>
<path d="M440.254 619.595C436.566 620.845 432.004 635.095 427.692 649.845C424.942 659.157 416.942 687.095 418.879 688.47C420.817 689.845 440.129 690.782 447.754 686.095C455.379 681.407 460.942 677.345 461.942 674.595C462.942 671.845 454.191 647.595 450.816 638.72C448.191 632.032 444.129 618.22 440.254 619.595Z" fill="#367C2D"/>
<path d="M940.345 663.629H929.117V673.322H940.345V663.629Z" fill="#997668"/>
<path opacity="0.2" d="M934.731 663.629H929.117V673.322H934.731V663.629Z" fill="#222222"/>
<path opacity="0.3" d="M929.117 663.629V668.611C930.912 668.864 932.793 668.999 934.731 668.999C936.669 668.999 938.55 668.864 940.345 668.611V663.629H929.117Z" fill="#222222"/>
<path d="M953.797 656.66C953.797 650.891 949.504 624.647 934.732 624.647C919.959 624.647 915.667 650.891 915.667 656.66C915.667 662.429 924.202 667.105 934.732 667.105C945.261 667.105 953.797 662.429 953.797 656.66Z" fill="#218649"/>
<path opacity="0.2" d="M947.701 634.03C947.034 635.281 946.407 636.632 945.825 638.084C942.747 645.761 941.751 653.914 941.751 656.661C941.751 659.691 943.756 662.468 947.076 664.618C951.186 662.702 953.798 659.849 953.798 656.661C953.798 653.167 952.223 642.166 947.701 634.03Z" fill="#222222"/>
<path opacity="0.2" d="M934.732 624.647C919.959 624.647 915.667 650.891 915.667 656.66C915.667 662.429 924.202 667.105 934.732 667.105V624.647Z" fill="#222222"/>
<circle cx="940.5" cy="636.5" r="1.5" fill="url(#paint44_linear_222_100)"/>
<circle cx="933.5" cy="639.5" r="1.5" fill="url(#paint45_linear_222_100)"/>
<circle cx="927.5" cy="645.5" r="1.5" fill="url(#paint46_linear_222_100)"/>
<circle cx="933.5" cy="649.5" r="1.5" fill="url(#paint47_linear_222_100)"/>
<circle cx="942.5" cy="656.5" r="1.5" fill="url(#paint48_linear_222_100)"/>
<circle cx="940.5" cy="646.5" r="1.5" fill="url(#paint49_linear_222_100)"/>
<circle cx="926.5" cy="656.5" r="1.5" fill="url(#paint50_linear_222_100)"/>
<path d="M963.561 691.664H954.673V699.336H963.561V691.664Z" fill="#997668"/>
<path opacity="0.2" d="M959.116 691.664H954.673V699.336H959.116V691.664Z" fill="#222222"/>
<path opacity="0.3" d="M954.673 691.664V695.607C956.094 695.807 957.583 695.914 959.116 695.914C960.65 695.914 962.139 695.807 963.561 695.607V691.664H954.673Z" fill="#222222"/>
<path d="M974.207 686.147C974.207 681.581 970.809 663.181 959.116 663.181C947.423 663.181 944.026 681.581 944.026 686.147C944.026 690.713 950.782 694.415 959.116 694.415C967.451 694.415 974.207 690.713 974.207 686.147Z" fill="#218649"/>
<path opacity="0.2" d="M944.026 686.147C944.026 690.713 950.782 694.415 959.116 694.415V663.181C947.423 663.181 944.026 681.581 944.026 686.147Z" fill="#222222"/>
<path opacity="0.2" d="M953.332 671.444C952.651 669.746 951.895 668.219 951.071 666.872C945.773 672.489 944.026 682.873 944.026 686.147C944.026 689.105 946.862 691.698 951.124 693.16C954.472 691.383 956.556 688.896 956.556 686.147C956.556 683.973 955.768 677.519 953.332 671.444Z" fill="#222222"/>
<path d="M994.199 713.005H983.352V722.368H994.199V713.005Z" fill="#997668"/>
<path opacity="0.2" d="M988.776 713.005H983.352V722.368H988.776V713.005Z" fill="#222222"/>
<path opacity="0.3" d="M983.352 713.005V717.818C985.087 718.062 986.904 718.193 988.776 718.193C990.647 718.193 992.465 718.062 994.199 717.818V713.005H983.352Z" fill="#222222"/>
<path d="M1007.19 706.274C1007.19 700.701 1003.05 675.35 988.776 675.35C974.506 675.35 970.359 700.701 970.359 706.274C970.359 711.846 978.605 716.364 988.776 716.364C998.947 716.364 1007.19 711.846 1007.19 706.274Z" fill="#77BC1F"/>
<path opacity="0.2" d="M988.776 675.35C974.506 675.35 970.359 700.701 970.359 706.274C970.359 711.846 978.605 716.364 988.776 716.364V675.35Z" fill="#218649"/>
<circle cx="994.5" cy="686.5" r="1.5" fill="url(#paint51_linear_222_100)"/>
<circle cx="987.5" cy="689.5" r="1.5" fill="url(#paint52_linear_222_100)"/>
<circle cx="981.5" cy="695.5" r="1.5" fill="url(#paint53_linear_222_100)"/>
<circle cx="987.5" cy="699.5" r="1.5" fill="url(#paint54_linear_222_100)"/>
<circle cx="996.5" cy="706.5" r="1.5" fill="url(#paint55_linear_222_100)"/>
<circle cx="994.5" cy="696.5" r="1.5" fill="url(#paint56_linear_222_100)"/>
<circle cx="980.5" cy="706.5" r="1.5" fill="url(#paint57_linear_222_100)"/>
<path d="M1010.28 746.976H1001.33V754.699H1010.28V746.976Z" fill="#997668"/>
<path opacity="0.2" d="M1005.81 746.976H1001.33V754.699H1005.81V746.976Z" fill="#222222"/>
<path opacity="0.3" d="M1001.33 746.976V750.945C1002.76 751.147 1004.26 751.255 1005.81 751.255C1007.35 751.255 1008.85 751.147 1010.28 750.945V746.976H1001.33Z" fill="#222222"/>
<path d="M1021 741.422C1021 736.825 1017.58 715.912 1005.81 715.912C994.036 715.913 990.615 736.825 990.615 741.422C990.615 746.019 997.417 749.746 1005.81 749.746C1014.2 749.746 1021 746.019 1021 741.422Z" fill="#218649"/>
<path opacity="0.2" d="M1016.14 723.389C1015.61 724.386 1015.11 725.462 1014.65 726.62C1012.19 732.737 1011.4 739.234 1011.4 741.422C1011.4 743.837 1013 746.05 1015.64 747.764C1018.92 746.237 1021 743.963 1021 741.422C1021 738.638 1019.75 729.872 1016.14 723.389Z" fill="#222222"/>
<path opacity="0.2" d="M1005.81 715.912C994.036 715.912 990.615 736.825 990.615 741.422C990.615 746.019 997.417 749.746 1005.81 749.746V715.912Z" fill="#222222"/>
<path d="M1133.33 756.013L1126.19 755.911L1126.1 762.072L1133.24 762.174L1133.33 756.013Z" fill="#997668"/>
<path opacity="0.2" d="M1129.76 755.962L1126.19 755.911L1126.1 762.072L1129.67 762.123L1129.76 755.962Z" fill="#222222"/>
<path opacity="0.3" d="M1126.19 755.911L1126.15 759.077C1127.28 759.255 1128.48 759.357 1129.71 759.375C1130.94 759.393 1132.14 759.324 1133.28 759.179L1133.33 756.013L1126.19 755.911Z" fill="#222222"/>
<path d="M1141.94 751.705C1142 748.038 1139.5 731.316 1130.11 731.182C1120.72 731.048 1117.76 747.691 1117.7 751.358C1117.65 755.025 1123.04 758.076 1129.73 758.171C1136.42 758.267 1141.89 755.372 1141.94 751.705Z" fill="#218649"/>
<path opacity="0.2" d="M1138.27 737.264C1137.84 738.053 1137.43 738.906 1137.04 739.824C1135.02 744.676 1134.31 749.85 1134.29 751.596C1134.26 753.522 1135.51 755.306 1137.6 756.702C1140.23 755.522 1141.91 753.732 1141.94 751.705C1141.97 749.484 1141.07 742.477 1138.27 737.264Z" fill="#222222"/>
<path opacity="0.2" d="M1130.11 731.182C1120.72 731.048 1117.76 747.691 1117.7 751.358C1117.65 755.025 1123.04 758.076 1129.73 758.171L1130.11 731.182Z" fill="#222222"/>
<path d="M1202.63 717.658H1195.52V723.789H1202.63V717.658Z" fill="#997668"/>
<path opacity="0.2" d="M1199.07 717.658H1195.52V723.789H1199.07V717.658Z" fill="#222222"/>
<path opacity="0.3" d="M1195.52 717.658V720.809C1196.66 720.969 1197.85 721.055 1199.07 721.055C1200.3 721.055 1201.49 720.969 1202.63 720.809V717.658H1195.52Z" fill="#222222"/>
<path d="M1211.15 713.25C1211.15 709.6 1208.43 693 1199.07 693C1189.72 693 1187 709.6 1187 713.25C1187 716.899 1192.41 719.857 1199.07 719.857C1205.74 719.857 1211.15 716.899 1211.15 713.25Z" fill="#77BC1F"/>
<path opacity="0.2" d="M1199.07 693C1189.72 693 1187 709.6 1187 713.25C1187 716.899 1192.41 719.857 1199.07 719.857V693Z" fill="#218649"/>
<path d="M1211.95 732.63H1206.13V737.654H1211.95V732.63Z" fill="#997668"/>
<path opacity="0.2" d="M1209.04 732.63H1206.13V737.654H1209.04V732.63Z" fill="#222222"/>
<path opacity="0.3" d="M1206.13 732.63V735.213C1207.06 735.344 1208.03 735.414 1209.04 735.414C1210.05 735.414 1211.02 735.344 1211.95 735.213V732.63H1206.13Z" fill="#222222"/>
<path d="M1218.93 729.018C1218.93 726.028 1216.71 713.979 1209.04 713.979C1201.37 713.979 1199.15 726.028 1199.15 729.018C1199.15 732.008 1203.58 734.432 1209.04 734.432C1214.5 734.432 1218.93 732.008 1218.93 729.018Z" fill="#218649"/>
<path opacity="0.2" d="M1199.15 729.018C1199.15 732.008 1203.58 734.432 1209.04 734.432V713.979C1201.37 713.979 1199.15 726.028 1199.15 729.018Z" fill="#222222"/>
<path opacity="0.2" d="M1205.25 719.39C1204.8 718.278 1204.31 717.278 1203.76 716.396C1200.29 720.074 1199.15 726.874 1199.15 729.018C1199.15 730.955 1201.01 732.653 1203.8 733.61C1205.99 732.447 1207.36 730.818 1207.36 729.018C1207.36 727.595 1206.84 723.368 1205.25 719.39Z" fill="#222222"/>
<path d="M1225.15 747.915H1218.34V753.784H1225.15V747.915Z" fill="#997668"/>
<path opacity="0.2" d="M1221.75 747.915H1218.34V753.784H1221.75V747.915Z" fill="#222222"/>
<path opacity="0.3" d="M1218.34 747.915V750.932C1219.43 751.085 1220.57 751.167 1221.75 751.167C1222.92 751.167 1224.06 751.085 1225.15 750.932V747.915H1218.34Z" fill="#222222"/>
<path d="M1233.31 743.695C1233.31 740.201 1230.7 726.125 1221.75 726.125C1212.79 726.125 1210.19 740.201 1210.19 743.695C1210.19 747.188 1215.36 750.02 1221.75 750.02C1228.13 750.02 1233.31 747.188 1233.31 743.695Z" fill="#218649"/>
<path opacity="0.2" d="M1210.19 743.695C1210.19 747.188 1215.36 750.02 1221.75 750.02V726.125C1212.79 726.125 1210.19 740.201 1210.19 743.695Z" fill="#222222"/>
<path opacity="0.2" d="M1217.32 732.446C1216.79 731.147 1216.22 729.979 1215.58 728.949C1211.53 733.246 1210.19 741.19 1210.19 743.695C1210.19 745.957 1212.36 747.941 1215.62 749.059C1218.19 747.7 1219.79 745.798 1219.79 743.695C1219.79 742.032 1219.18 737.094 1217.32 732.446Z" fill="#222222"/>
<path d="M1233.55 767.345H1226.44V773.476H1233.55V767.345Z" fill="#997668"/>
<path opacity="0.2" d="M1229.99 767.345H1226.44V773.476H1229.99V767.345Z" fill="#222222"/>
<path opacity="0.3" d="M1226.44 767.345V770.497C1227.57 770.657 1228.76 770.742 1229.99 770.742C1231.22 770.742 1232.41 770.657 1233.55 770.497V767.345H1226.44Z" fill="#222222"/>
<path d="M1242.07 762.937C1242.07 759.288 1239.35 742.688 1229.99 742.688C1220.64 742.688 1217.92 759.288 1217.92 762.937C1217.92 766.586 1223.32 769.544 1229.99 769.544C1236.66 769.545 1242.07 766.586 1242.07 762.937Z" fill="#77BC1F"/>
<path opacity="0.2" d="M1229.99 742.688C1220.64 742.688 1217.92 759.288 1217.92 762.937C1217.92 766.586 1223.32 769.544 1229.99 769.544V742.688Z" fill="#218649"/>
<path d="M1335.16 667.483H1326.37V675.062H1335.16V667.483Z" fill="#997668"/>
<path opacity="0.2" d="M1330.76 667.483H1326.37V675.062H1330.76V667.483Z" fill="#222222"/>
<path opacity="0.3" d="M1326.37 667.483V671.378C1327.77 671.576 1329.25 671.682 1330.76 671.682C1332.28 671.682 1333.75 671.576 1335.16 671.378V667.483H1326.37Z" fill="#222222"/>
<path d="M1345.69 662.033C1345.69 657.522 1342.33 637 1330.76 637C1319.2 637 1315.84 657.522 1315.84 662.033C1315.84 666.544 1322.52 670.201 1330.76 670.201C1339.01 670.201 1345.69 666.544 1345.69 662.033Z" fill="#77BC1F"/>
<path opacity="0.2" d="M1330.76 637C1319.2 637 1315.84 657.522 1315.84 662.033C1315.84 666.544 1322.52 670.201 1330.76 670.201V637Z" fill="#218649"/>
<circle cx="1336.5" cy="644.5" r="1.5" fill="url(#paint58_linear_222_100)"/>
<circle cx="1329.5" cy="647.5" r="1.5" fill="url(#paint59_linear_222_100)"/>
<circle cx="1323.5" cy="653.5" r="1.5" fill="url(#paint60_linear_222_100)"/>
<circle cx="1329.5" cy="657.5" r="1.5" fill="url(#paint61_linear_222_100)"/>
<circle cx="1338.5" cy="664.5" r="1.5" fill="url(#paint62_linear_222_100)"/>
<circle cx="1336.5" cy="654.5" r="1.5" fill="url(#paint63_linear_222_100)"/>
<circle cx="1322.5" cy="664.5" r="1.5" fill="url(#paint64_linear_222_100)"/>
<path d="M1316.56 685.624H1309.36V691.834H1316.56V685.624Z" fill="#997668"/>
<path opacity="0.2" d="M1312.96 685.624H1309.36V691.834H1312.96V685.624Z" fill="#222222"/>
<path opacity="0.3" d="M1309.36 685.624V688.816C1310.51 688.978 1311.72 689.064 1312.96 689.064C1314.2 689.064 1315.41 688.978 1316.56 688.816V685.624H1309.36Z" fill="#222222"/>
<path d="M1325.19 681.158C1325.19 677.461 1322.44 662.566 1312.96 662.566C1303.48 662.566 1300.73 677.461 1300.73 681.158C1300.73 684.854 1306.2 687.851 1312.96 687.851C1319.71 687.851 1325.19 684.854 1325.19 681.158Z" fill="#218649"/>
<path opacity="0.2" d="M1300.73 681.158C1300.73 684.854 1306.2 687.851 1312.96 687.851V662.566C1303.48 662.566 1300.73 677.461 1300.73 681.158Z" fill="#222222"/>
<path opacity="0.2" d="M1308.27 669.255C1307.72 667.881 1307.11 666.645 1306.44 665.555C1302.14 670.101 1300.73 678.508 1300.73 681.158C1300.73 683.552 1303.03 685.652 1306.48 686.835C1309.2 685.396 1310.88 683.383 1310.88 681.158C1310.88 679.398 1310.25 674.174 1308.27 669.255Z" fill="#222222"/>
<path d="M1301.8 706.935H1293.38V714.191H1301.8V706.935Z" fill="#997668"/>
<path opacity="0.2" d="M1297.59 706.935H1293.38V714.191H1297.59V706.935Z" fill="#222222"/>
<path opacity="0.3" d="M1293.38 706.935V710.665C1294.73 710.854 1296.14 710.955 1297.59 710.955C1299.04 710.955 1300.45 710.854 1301.8 710.665V706.935H1293.38Z" fill="#222222"/>
<path d="M1311.88 701.718C1311.88 697.399 1308.66 679.998 1297.59 679.998C1286.51 679.998 1283.3 697.4 1283.3 701.718C1283.3 706.037 1289.69 709.538 1297.59 709.538C1305.48 709.538 1311.88 706.037 1311.88 701.718Z" fill="#218649"/>
<path opacity="0.2" d="M1283.3 701.718C1283.3 706.037 1289.69 709.538 1297.59 709.538V679.998C1286.51 679.998 1283.3 697.4 1283.3 701.718Z" fill="#222222"/>
<path opacity="0.2" d="M1292.11 687.812C1291.46 686.207 1290.75 684.763 1289.97 683.489C1284.95 688.8 1283.3 698.622 1283.3 701.718C1283.3 704.515 1285.98 706.968 1290.02 708.35C1293.19 706.67 1295.16 704.318 1295.16 701.718C1295.16 699.662 1294.42 693.558 1292.11 687.812Z" fill="#222222"/>
<path d="M1293.32 727.483H1284.53V735.062H1293.32V727.483Z" fill="#997668"/>
<path opacity="0.2" d="M1288.93 727.483H1284.53V735.062H1288.93V727.483Z" fill="#222222"/>
<path opacity="0.3" d="M1284.53 727.483V731.378C1285.94 731.576 1287.41 731.682 1288.93 731.682C1290.44 731.682 1291.92 731.576 1293.32 731.378V727.483H1284.53Z" fill="#222222"/>
<path d="M1303.85 722.033C1303.85 717.522 1300.49 697 1288.93 697C1277.36 697 1274 717.522 1274 722.033C1274 726.544 1280.68 730.201 1288.93 730.201C1297.17 730.201 1303.85 726.544 1303.85 722.033Z" fill="#77BC1F"/>
<path opacity="0.2" d="M1288.93 697C1277.36 697 1274 717.522 1274 722.033C1274 726.544 1280.68 730.201 1288.93 730.201V697Z" fill="#218649"/>
<circle cx="1294.5" cy="703.5" r="1.5" fill="url(#paint65_linear_222_100)"/>
<circle cx="1287.5" cy="706.5" r="1.5" fill="url(#paint66_linear_222_100)"/>
<circle cx="1281.5" cy="712.5" r="1.5" fill="url(#paint67_linear_222_100)"/>
<circle cx="1287.5" cy="716.5" r="1.5" fill="url(#paint68_linear_222_100)"/>
<circle cx="1296.5" cy="723.5" r="1.5" fill="url(#paint69_linear_222_100)"/>
<circle cx="1294.5" cy="713.5" r="1.5" fill="url(#paint70_linear_222_100)"/>
<circle cx="1280.5" cy="723.5" r="1.5" fill="url(#paint71_linear_222_100)"/>
<path d="M1256.18 747.235H1248.82V753.582H1256.18V747.235Z" fill="#997668"/>
<path opacity="0.2" d="M1252.5 747.235H1248.82V753.582H1252.5V747.235Z" fill="#222222"/>
<path opacity="0.3" d="M1248.82 747.235V750.497C1249.99 750.663 1251.23 750.751 1252.5 750.751C1253.77 750.751 1255 750.663 1256.18 750.497V747.235H1248.82Z" fill="#222222"/>
<path d="M1265 742.671C1265 738.894 1262.19 721.708 1252.5 721.708C1242.81 721.708 1240 738.894 1240 742.671C1240 746.449 1245.6 749.511 1252.5 749.511C1259.4 749.511 1265 746.449 1265 742.671Z" fill="#218649"/>
<path opacity="0.2" d="M1261 727.852C1260.57 728.672 1260.15 729.556 1259.77 730.507C1257.75 735.534 1257.1 740.873 1257.1 742.672C1257.1 744.656 1258.42 746.475 1260.59 747.883C1263.29 746.628 1265 744.76 1265 742.672C1265 740.384 1263.97 733.18 1261 727.852Z" fill="#222222"/>
<path opacity="0.2" d="M1252.5 721.708C1242.81 721.708 1240 738.894 1240 742.671C1240 746.449 1245.6 749.511 1252.5 749.511V721.708Z" fill="#222222"/>
<path d="M1175.69 717.126L1170.88 708.435C1170.33 707.441 1171.16 706.25 1172.28 706.421C1172.7 706.486 1173.06 706.74 1173.27 707.111L1179.1 717.649L1184.91 728.212L1189.71 737.703C1189.86 737.998 1189.98 738.308 1190.07 738.626L1193.03 749.313L1195.39 762.402L1197.35 771.161C1197.66 772.526 1196.49 773.771 1195.11 773.559C1194.27 773.432 1193.61 772.791 1193.46 771.961L1191.55 761.814L1189.54 749.287L1186.23 737.999C1186.14 737.706 1186.03 737.421 1185.89 737.149L1181.07 727.624L1175.69 717.126Z" fill="#294C30"/>
<path d="M1046.15 664.187L1037.73 653.331C1036.91 652.267 1037.59 650.712 1038.93 650.592C1039.5 650.54 1040.07 650.786 1040.42 651.244L1050.18 663.827L1059.94 676.483L1068.37 688.16C1068.55 688.402 1068.7 688.659 1068.83 688.928L1075.5 702.863L1081.94 719.598C1082.06 719.914 1082.15 720.243 1082.2 720.577L1085.09 738.035L1089.53 759.864C1089.77 761.041 1089.08 762.208 1087.93 762.569C1086.59 762.992 1085.18 762.14 1084.92 760.752L1077.66 720.899C1077.61 720.62 1077.54 720.345 1077.44 720.079L1071.54 703.93L1064.29 689.3C1064.17 689.053 1064.02 688.817 1063.86 688.594L1055.41 676.889L1046.15 664.187Z" fill="#294C30"/>
<path d="M1141.22 698.057L1138.87 694.825C1137.86 693.434 1139.3 691.59 1140.9 692.234C1141.21 692.361 1141.48 692.58 1141.67 692.862L1145.27 698.176L1153.18 708.61C1153.44 708.95 1153.65 709.32 1153.81 709.714L1158.77 721.666L1165.31 733.89C1165.44 734.133 1165.55 734.386 1165.63 734.648L1168.62 743.481C1168.72 743.777 1168.79 744.083 1168.83 744.393L1170.02 752.976L1170 767.931C1170 769.371 1168.52 770.33 1167.2 769.737C1166.47 769.408 1166.01 768.671 1166.04 767.871L1166.45 753.881C1166.46 753.584 1166.44 753.287 1166.39 752.993L1165.29 745.605C1165.22 745.169 1165.1 744.744 1164.92 744.34L1160.44 734.107L1154.72 721.547L1149.21 709.426C1149.07 709.135 1148.91 708.856 1148.73 708.595L1141.22 698.057Z" fill="#294C30"/>
<path d="M161.585 666.566H155.472V671.836H161.585V666.566Z" fill="#997668"/>
<path opacity="0.2" d="M158.528 666.566H155.472V671.836H158.528V666.566Z" fill="#222222"/>
<path opacity="0.3" d="M155.472 666.566V669.275C156.449 669.413 157.473 669.486 158.528 669.486C159.583 669.486 160.607 669.413 161.585 669.275V666.566H155.472Z" fill="#222222"/>
<path d="M168.907 662.777C168.907 659.64 166.57 647 158.528 647C150.486 647 148.149 659.64 148.149 662.777C148.149 665.913 152.796 668.456 158.528 668.456C164.26 668.456 168.907 665.913 168.907 662.777Z" fill="#218649"/>
<path opacity="0.2" d="M148.149 662.777C148.149 665.913 152.796 668.456 158.528 668.456V647C150.486 647 148.149 659.64 148.149 662.777Z" fill="#222222"/>
<path opacity="0.2" d="M154.549 652.676C154.081 651.51 153.561 650.461 152.994 649.536C149.35 653.394 148.149 660.527 148.149 662.776C148.149 664.808 150.1 666.59 153.031 667.594C155.333 666.373 156.767 664.665 156.767 662.776C156.767 661.283 156.225 656.85 154.549 652.676Z" fill="#222222"/>
<path d="M147.917 683.953H140.457V690.385H147.917V683.953Z" fill="#997668"/>
<path opacity="0.2" d="M144.187 683.953H140.457V690.385H144.187V683.953Z" fill="#222222"/>
<path opacity="0.3" d="M140.457 683.953V687.259C141.65 687.427 142.9 687.516 144.187 687.516C145.474 687.516 146.724 687.427 147.917 687.259V683.953H140.457Z" fill="#222222"/>
<path d="M156.853 679.329C156.853 675.5 154.001 658.086 144.187 658.086C134.372 658.086 131.52 675.5 131.52 679.329C131.52 683.157 137.191 686.26 144.187 686.26C151.182 686.26 156.853 683.157 156.853 679.329Z" fill="#77BC1F"/>
<path opacity="0.2" d="M144.187 658.086C134.372 658.086 131.52 675.5 131.52 679.329C131.52 683.157 137.191 686.26 144.187 686.26V658.086Z" fill="#218649"/>
<circle cx="146.5" cy="662.5" r="1.5" fill="url(#paint72_linear_222_100)"/>
<circle cx="139.5" cy="665.5" r="1.5" fill="url(#paint73_linear_222_100)"/>
<circle cx="139.5" cy="675.5" r="1.5" fill="url(#paint74_linear_222_100)"/>
<circle cx="148.5" cy="682.5" r="1.5" fill="url(#paint75_linear_222_100)"/>
<circle cx="146.5" cy="672.5" r="1.5" fill="url(#paint76_linear_222_100)"/>
<circle cx="134.5" cy="682.5" r="1.5" fill="#D9D9D9"/>
<path d="M136.516 708.191H127.181V716.239H136.516V708.191Z" fill="#997668"/>
<path opacity="0.2" d="M131.849 708.191H127.181V716.239H131.849V708.191Z" fill="#222222"/>
<path opacity="0.3" d="M127.181 708.191V712.327C128.674 712.538 130.238 712.649 131.849 712.649C133.459 712.649 135.023 712.538 136.516 712.327V708.191H127.181Z" fill="#222222"/>
<path d="M147.699 702.404C147.699 697.614 144.131 675.823 131.85 675.823C119.569 675.823 116 697.614 116 702.404C116 707.194 123.096 711.077 131.85 711.077C140.603 711.077 147.699 707.194 147.699 702.404Z" fill="#218649"/>
<path opacity="0.2" d="M142.632 683.614C142.077 684.653 141.556 685.774 141.072 686.98C138.514 693.354 137.686 700.124 137.686 702.405C137.686 704.92 139.352 707.227 142.112 709.012C145.529 707.421 147.7 705.052 147.7 702.405C147.7 699.504 146.391 690.369 142.632 683.614Z" fill="#222222"/>
<path opacity="0.2" d="M131.85 675.823C119.569 675.823 116 697.614 116 702.404C116 707.194 123.096 711.077 131.85 711.077V675.823Z" fill="#222222"/>
<circle cx="137.5" cy="683.5" r="1.5" fill="#D9D9D9"/>
<circle cx="137.5" cy="683.5" r="1.5" fill="url(#paint77_linear_222_100)"/>
<circle cx="130.5" cy="686.5" r="1.5" fill="#D9D9D9"/>
<circle cx="130.5" cy="686.5" r="1.5" fill="url(#paint78_linear_222_100)"/>
<circle cx="124.5" cy="692.5" r="1.5" fill="#D9D9D9"/>
<circle cx="124.5" cy="692.5" r="1.5" fill="url(#paint79_linear_222_100)"/>
<circle cx="130.5" cy="696.5" r="1.5" fill="#D9D9D9"/>
<circle cx="130.5" cy="696.5" r="1.5" fill="url(#paint80_linear_222_100)"/>
<circle cx="139.5" cy="703.5" r="1.5" fill="#D9D9D9"/>
<circle cx="139.5" cy="703.5" r="1.5" fill="url(#paint81_linear_222_100)"/>
<circle cx="137.5" cy="693.5" r="1.5" fill="#D9D9D9"/>
<circle cx="137.5" cy="693.5" r="1.5" fill="url(#paint82_linear_222_100)"/>
<circle cx="123.5" cy="703.5" r="1.5" fill="#D9D9D9"/>
<circle cx="123.5" cy="703.5" r="1.5" fill="url(#paint83_linear_222_100)"/>
<path d="M183.511 691.055H173.919V699.325H183.511V691.055Z" fill="#997668"/>
<path opacity="0.2" d="M178.715 691.055H173.919V699.325H178.715V691.055Z" fill="#222222"/>
<path opacity="0.3" d="M173.919 691.055V695.306C175.453 695.522 177.06 695.637 178.715 695.637C180.37 695.637 181.977 695.522 183.511 695.306V691.055H173.919Z" fill="#222222"/>
<path d="M195 685.11C195 680.188 191.333 657.797 178.714 657.797C166.096 657.797 162.429 680.188 162.429 685.11C162.429 690.031 169.72 694.021 178.714 694.021C187.709 694.021 195 690.031 195 685.11Z" fill="#77BC1F"/>
<path opacity="0.2" d="M178.714 657.797C166.096 657.797 162.429 680.188 162.429 685.11C162.429 690.031 169.72 694.021 178.714 694.021V657.797Z" fill="#218649"/>
<circle cx="184.5" cy="663.5" r="1.5" fill="#D9D9D9"/>
<circle cx="184.5" cy="663.5" r="1.5" fill="url(#paint84_linear_222_100)"/>
<circle cx="177.5" cy="666.5" r="1.5" fill="#D9D9D9"/>
<circle cx="177.5" cy="666.5" r="1.5" fill="url(#paint85_linear_222_100)"/>
<circle cx="171.5" cy="672.5" r="1.5" fill="#D9D9D9"/>
<circle cx="171.5" cy="672.5" r="1.5" fill="url(#paint86_linear_222_100)"/>
<circle cx="177.5" cy="676.5" r="1.5" fill="#D9D9D9"/>
<circle cx="177.5" cy="676.5" r="1.5" fill="url(#paint87_linear_222_100)"/>
<circle cx="186.5" cy="683.5" r="1.5" fill="#D9D9D9"/>
<circle cx="186.5" cy="683.5" r="1.5" fill="url(#paint88_linear_222_100)"/>
<circle cx="184.5" cy="673.5" r="1.5" fill="#D9D9D9"/>
<circle cx="184.5" cy="673.5" r="1.5" fill="url(#paint89_linear_222_100)"/>
<circle cx="170.5" cy="683.5" r="1.5" fill="#D9D9D9"/>
<circle cx="170.5" cy="683.5" r="1.5" fill="url(#paint90_linear_222_100)"/>
<path d="M117.921 680.64L123.371 673.988C124.022 673.194 123.457 672 122.43 672C122.065 672 121.72 672.164 121.489 672.446L114.775 680.64L108.09 688.848L102.5 696.216C102.295 696.487 102.117 696.779 101.971 697.086L97.8652 705.696L93.9326 716.496L91.0268 723.519C90.5378 724.7 91.4065 726 92.6855 726C93.4353 726 94.1061 725.534 94.3678 724.831L97.4719 716.496L101.011 706.128L105.521 697.046C105.66 696.765 105.826 696.498 106.015 696.248L111.629 688.848L117.921 680.64Z" fill="#294C30"/>
<path d="M1391.29 671.805H1384.79V677.409H1391.29V671.805Z" fill="#997668"/>
<path opacity="0.2" d="M1388.04 671.805H1384.79V677.409H1388.04V671.805Z" fill="#222222"/>
<path opacity="0.3" d="M1384.79 671.805V674.685C1385.83 674.832 1386.92 674.91 1388.04 674.91C1389.16 674.91 1390.25 674.832 1391.29 674.685V671.805H1384.79Z" fill="#222222"/>
<path d="M1399.07 667.776C1399.07 664.44 1396.59 651 1388.04 651C1379.48 651 1377 664.44 1377 667.776C1377 671.111 1381.94 673.815 1388.04 673.815C1394.13 673.815 1399.07 671.111 1399.07 667.776Z" fill="#218649"/>
<path opacity="0.2" d="M1377 667.776C1377 671.111 1381.94 673.815 1388.04 673.815V651C1379.48 651 1377 664.44 1377 667.776Z" fill="#222222"/>
<path opacity="0.2" d="M1383.81 657.035C1383.31 655.795 1382.76 654.68 1382.15 653.696C1378.28 657.799 1377 665.384 1377 667.776C1377 669.936 1379.07 671.83 1382.19 672.898C1384.64 671.6 1386.16 669.783 1386.16 667.776C1386.16 666.188 1385.59 661.473 1383.81 657.035Z" fill="#222222"/>
<path d="M1376.6 688.364H1369.01V694.911H1376.6V688.364Z" fill="#997668"/>
<path opacity="0.2" d="M1372.81 688.364H1369.01V694.911H1372.81V688.364Z" fill="#222222"/>
<path opacity="0.3" d="M1369.01 688.364V691.729C1370.22 691.9 1371.49 691.991 1372.81 691.991C1374.12 691.991 1375.39 691.9 1376.6 691.729V688.364H1369.01Z" fill="#222222"/>
<path d="M1385.7 683.657C1385.7 679.76 1382.79 664.058 1372.8 664.058C1362.81 664.058 1359.91 679.76 1359.91 683.657C1359.91 687.553 1365.68 690.712 1372.8 690.712C1379.93 690.712 1385.7 687.553 1385.7 683.657Z" fill="#218649"/>
<path opacity="0.2" d="M1359.91 683.657C1359.91 687.553 1365.68 690.712 1372.8 690.712V664.058C1362.81 664.058 1359.91 679.76 1359.91 683.657Z" fill="#222222"/>
<path opacity="0.2" d="M1367.86 671.109C1367.28 669.66 1366.63 668.357 1365.93 667.208C1361.4 672.001 1359.91 680.863 1359.91 683.657C1359.91 686.181 1362.33 688.394 1365.98 689.641C1368.84 688.124 1370.62 686.002 1370.62 683.657C1370.62 681.802 1369.94 676.294 1367.86 671.109Z" fill="#222222"/>
<path d="M1411.2 677.122L1417.44 670.597C1418.32 669.676 1417.61 668.153 1416.34 668.237C1415.99 668.26 1415.66 668.413 1415.42 668.666L1407.07 677.395L1398.83 686.057L1391.97 693.804C1391.73 694.084 1391.51 694.392 1391.33 694.721L1386.52 703.534L1382.06 714.51L1379.12 720.781C1378.4 722.322 1379.6 724.072 1381.29 723.959C1382.14 723.903 1382.88 723.372 1383.21 722.588L1386.7 714.203L1390.53 704.056C1390.63 703.81 1390.74 703.572 1390.87 703.344L1395.99 694.368C1396.16 694.069 1396.36 693.789 1396.59 693.531L1403.48 685.75L1411.2 677.122Z" fill="#294C30"/>
<path d="M1361.67 707.239H1353.74V714.078H1361.67V707.239Z" fill="#997668"/>
<path opacity="0.2" d="M1357.7 707.239H1353.74V714.078H1357.7V707.239Z" fill="#222222"/>
<path opacity="0.3" d="M1353.74 707.239V710.754C1355.01 710.933 1356.34 711.028 1357.7 711.028C1359.07 711.028 1360.4 710.933 1361.67 710.754V707.239H1353.74Z" fill="#222222"/>
<path d="M1371.17 702.322C1371.17 698.251 1368.14 679.734 1357.7 679.734C1347.27 679.734 1344.23 698.251 1344.23 702.322C1344.23 706.392 1350.26 709.692 1357.7 709.692C1365.14 709.692 1371.17 706.392 1371.17 702.322Z" fill="#77BC1F"/>
<path opacity="0.2" d="M1357.7 679.734C1347.27 679.734 1344.23 698.251 1344.23 702.322C1344.23 706.392 1350.26 709.692 1357.7 709.692V679.734Z" fill="#218649"/>
<path d="M1350.42 726.232H1344.32V731.498H1350.42V726.232Z" fill="#997668"/>
<path opacity="0.2" d="M1347.37 726.232H1344.32V731.498H1347.37V726.232Z" fill="#222222"/>
<path opacity="0.3" d="M1344.32 726.232V728.939C1345.29 729.076 1346.32 729.15 1347.37 729.15C1348.42 729.15 1349.45 729.076 1350.42 728.939V726.232H1344.32Z" fill="#222222"/>
<path d="M1357.74 722.447C1357.74 719.313 1355.4 705.056 1347.37 705.056C1339.33 705.056 1337 719.313 1337 722.447C1337 725.58 1341.64 728.121 1347.37 728.121C1353.1 728.121 1357.74 725.58 1357.74 722.447Z" fill="#218649"/>
<path opacity="0.2" d="M1354.42 710.153C1354.06 710.832 1353.72 711.566 1353.4 712.355C1351.73 716.525 1351.19 720.955 1351.19 722.447C1351.19 724.093 1352.28 725.602 1354.08 726.77C1356.32 725.729 1357.74 724.179 1357.74 722.447C1357.74 720.549 1356.88 714.572 1354.42 710.153Z" fill="#222222"/>
<path opacity="0.2" d="M1347.37 705.056C1339.33 705.056 1337 719.313 1337 722.446C1337 725.58 1341.64 728.121 1347.37 728.121V705.056Z" fill="#222222"/>
<path d="M1427.9 682.52L1434.97 673.571C1435.79 672.53 1435.05 671 1433.72 671C1433.24 671 1432.78 671.222 1432.48 671.603L1423.85 682.52L1415.26 693.464L1407.97 703.426C1407.77 703.696 1407.6 703.985 1407.46 704.289L1402.11 715.928L1397.06 730.328L1393.27 739.82C1392.66 741.344 1393.78 743 1395.42 743C1396.4 743 1397.28 742.385 1397.61 741.464L1401.61 730.328L1406.16 716.504L1412.02 704.25C1412.16 703.972 1412.32 703.707 1412.5 703.458L1419.81 693.464L1427.9 682.52Z" fill="#294C30"/>
<path d="M1057.27 737.18H1049.41V743.962H1057.27V737.18Z" fill="#997668"/>
<path opacity="0.2" d="M1053.34 737.18H1049.41V743.962H1053.34V737.18Z" fill="#222222"/>
<path opacity="0.3" d="M1049.41 737.18V740.666C1050.67 740.843 1051.99 740.937 1053.34 740.937C1054.7 740.937 1056.01 740.843 1057.27 740.666V737.18H1049.41Z" fill="#222222"/>
<path d="M1066.68 732.303C1066.68 728.266 1063.68 712 1053.34 712C1043 712 1040 728.266 1040 732.303C1040 736.34 1045.97 739.612 1053.34 739.612C1060.71 739.612 1066.68 736.34 1066.68 732.303Z" fill="#218649"/>
<path opacity="0.2" d="M1040 732.303C1040 736.34 1045.97 739.612 1053.34 739.612V712C1043 712 1040 728.266 1040 732.303Z" fill="#222222"/>
<path opacity="0.2" d="M1048.23 719.304C1047.62 717.804 1046.96 716.454 1046.23 715.263C1041.54 720.228 1040 729.409 1040 732.303C1040 734.918 1042.51 737.21 1046.28 738.502C1049.23 736.932 1051.08 734.733 1051.08 732.303C1051.08 730.381 1050.38 724.676 1048.23 719.304Z" fill="#222222"/>
<path d="M1264.03 762.985H1258.56V767.705H1264.03V762.985Z" fill="#997668"/>
<path opacity="0.2" d="M1261.3 762.985H1258.56V767.705H1261.3V762.985Z" fill="#222222"/>
<path opacity="0.3" d="M1258.56 762.985V765.411C1259.43 765.534 1260.35 765.6 1261.3 765.6C1262.24 765.6 1263.16 765.534 1264.03 765.411V762.985H1258.56Z" fill="#222222"/>
<path d="M1270.59 759.59C1270.59 756.781 1268.5 744 1261.3 744C1254.09 744 1252 756.781 1252 759.59C1252 762.4 1256.16 764.678 1261.3 764.678C1266.43 764.678 1270.59 762.4 1270.59 759.59Z" fill="#218649"/>
<path opacity="0.2" d="M1267.62 748.569C1267.29 749.179 1266.99 749.836 1266.71 750.544C1265.2 754.282 1264.72 758.253 1264.72 759.591C1264.72 761.066 1265.7 762.419 1267.31 763.466C1269.32 762.533 1270.59 761.143 1270.59 759.591C1270.59 757.889 1269.82 752.531 1267.62 748.569Z" fill="#222222"/>
<path opacity="0.2" d="M1261.3 744C1254.09 744 1252 756.781 1252 759.59C1252 762.4 1256.16 764.677 1261.3 764.677V744Z" fill="#222222"/>
<circle cx="882.5" cy="585.5" r="1.5" fill="url(#paint91_linear_222_100)"/>
<circle cx="875.5" cy="588.5" r="1.5" fill="url(#paint92_linear_222_100)"/>
<circle cx="869.5" cy="594.5" r="1.5" fill="url(#paint93_linear_222_100)"/>
<circle cx="875.5" cy="598.5" r="1.5" fill="url(#paint94_linear_222_100)"/>
<circle cx="884.5" cy="605.5" r="1.5" fill="url(#paint95_linear_222_100)"/>
<circle cx="882.5" cy="595.5" r="1.5" fill="url(#paint96_linear_222_100)"/>
<circle cx="868.5" cy="605.5" r="1.5" fill="url(#paint97_linear_222_100)"/>
</g>
<defs>
<linearGradient id="paint0_linear_222_100" x1="720" y1="0" x2="720" y2="1024" gradientUnits="userSpaceOnUse">
<stop stop-color="#95C4F8"/>
<stop offset="0.5" stop-color="#FF3D00"/>
</linearGradient>
<linearGradient id="paint1_linear_222_100" x1="752" y1="246" x2="774.593" y2="419.458" gradientUnits="userSpaceOnUse">
<stop stop-color="#FF7932"/>
<stop offset="1" stop-color="#FFBC79"/>
</linearGradient>
<linearGradient id="paint2_linear_222_100" x1="720" y1="762" x2="720" y2="1024" gradientUnits="userSpaceOnUse">
<stop stop-color="#68BBFF"/>
<stop offset="0.442699" stop-color="#2A6696"/>
<stop offset="0.937699" stop-color="#111B21"/>
</linearGradient>
<linearGradient id="paint3_linear_222_100" x1="78.5" y1="682" x2="78.5" y2="685" gradientUnits="userSpaceOnUse">
<stop stop-color="#FF9500"/>
<stop offset="0.86" stop-color="#AF6805"/>
</linearGradient>
<linearGradient id="paint4_linear_222_100" x1="71.5" y1="685" x2="71.5" y2="688" gradientUnits="userSpaceOnUse">
<stop stop-color="#FF9500"/>
<stop offset="0.86" stop-color="#AF6805"/>
</linearGradient>
<linearGradient id="paint5_linear_222_100" x1="65.5" y1="691" x2="65.5" y2="694" gradientUnits="userSpaceOnUse">
<stop stop-color="#FF9500"/>
<stop offset="0.86" stop-color="#AF6805"/>
</linearGradient>
<linearGradient id="paint6_linear_222_100" x1="71.5" y1="695" x2="71.5" y2="698" gradientUnits="userSpaceOnUse">
<stop stop-color="#FF9500"/>
<stop offset="0.86" stop-color="#AF6805"/>
</linearGradient>
<linearGradient id="paint7_linear_222_100" x1="80.5" y1="702" x2="80.5" y2="705" gradientUnits="userSpaceOnUse">
<stop stop-color="#FF9500"/>
<stop offset="0.86" stop-color="#AF6805"/>
</linearGradient>
<linearGradient id="paint8_linear_222_100" x1="78.5" y1="692" x2="78.5" y2="695" gradientUnits="userSpaceOnUse">
<stop stop-color="#FF9500"/>
<stop offset="0.86" stop-color="#AF6805"/>
</linearGradient>
<linearGradient id="paint9_linear_222_100" x1="64.5" y1="700" x2="64.5" y2="703" gradientUnits="userSpaceOnUse">
<stop stop-color="#5CCF64"/>
<stop offset="1" stop-color="#109128"/>
</linearGradient>
<linearGradient id="paint10_linear_222_100" x1="57.5" y1="703" x2="57.5" y2="706" gradientUnits="userSpaceOnUse">
<stop stop-color="#5CCF64"/>
<stop offset="1" stop-color="#109128"/>
</linearGradient>
<linearGradient id="paint11_linear_222_100" x1="51.5" y1="709" x2="51.5" y2="712" gradientUnits="userSpaceOnUse">
<stop stop-color="#5CCF64"/>
<stop offset="1" stop-color="#109128"/>
</linearGradient>
<linearGradient id="paint12_linear_222_100" x1="57.5" y1="713" x2="57.5" y2="716" gradientUnits="userSpaceOnUse">
<stop stop-color="#5CCF64"/>
<stop offset="1" stop-color="#109128"/>
</linearGradient>
<linearGradient id="paint13_linear_222_100" x1="66.5" y1="720" x2="66.5" y2="723" gradientUnits="userSpaceOnUse">
<stop stop-color="#5CCF64"/>
<stop offset="1" stop-color="#109128"/>
</linearGradient>
<linearGradient id="paint14_linear_222_100" x1="64.5" y1="710" x2="64.5" y2="713" gradientUnits="userSpaceOnUse">
<stop stop-color="#5CCF64"/>
<stop offset="1" stop-color="#109128"/>
</linearGradient>
<linearGradient id="paint15_linear_222_100" x1="50.5" y1="720" x2="50.5" y2="723" gradientUnits="userSpaceOnUse">
<stop stop-color="#5CCF64"/>
<stop offset="1" stop-color="#109128"/>
</linearGradient>
<linearGradient id="paint16_linear_222_100" x1="980.5" y1="621" x2="980.5" y2="624" gradientUnits="userSpaceOnUse">
<stop stop-color="#FF9500"/>
<stop offset="0.86" stop-color="#AF6805"/>
</linearGradient>
<linearGradient id="paint17_linear_222_100" x1="973.5" y1="624" x2="973.5" y2="627" gradientUnits="userSpaceOnUse">
<stop stop-color="#FF9500"/>
<stop offset="0.86" stop-color="#AF6805"/>
</linearGradient>
<linearGradient id="paint18_linear_222_100" x1="967.5" y1="630" x2="967.5" y2="633" gradientUnits="userSpaceOnUse">
<stop stop-color="#FF9500"/>
<stop offset="0.86" stop-color="#AF6805"/>
</linearGradient>
<linearGradient id="paint19_linear_222_100" x1="973.5" y1="634" x2="973.5" y2="637" gradientUnits="userSpaceOnUse">
<stop stop-color="#FF9500"/>
<stop offset="0.86" stop-color="#AF6805"/>
</linearGradient>
<linearGradient id="paint20_linear_222_100" x1="982.5" y1="641" x2="982.5" y2="644" gradientUnits="userSpaceOnUse">
<stop stop-color="#FF9500"/>
<stop offset="0.86" stop-color="#AF6805"/>
</linearGradient>
<linearGradient id="paint21_linear_222_100" x1="980.5" y1="631" x2="980.5" y2="634" gradientUnits="userSpaceOnUse">
<stop stop-color="#FF9500"/>
<stop offset="0.86" stop-color="#AF6805"/>
</linearGradient>
<linearGradient id="paint22_linear_222_100" x1="966.5" y1="641" x2="966.5" y2="644" gradientUnits="userSpaceOnUse">
<stop stop-color="#FF9500"/>
<stop offset="0.86" stop-color="#AF6805"/>
</linearGradient>
<linearGradient id="paint23_linear_222_100" x1="1010.5" y1="638" x2="1010.5" y2="641" gradientUnits="userSpaceOnUse">
<stop stop-color="#FF9500"/>
<stop offset="0.86" stop-color="#AF6805"/>
</linearGradient>
<linearGradient id="paint24_linear_222_100" x1="1003.5" y1="641" x2="1003.5" y2="644" gradientUnits="userSpaceOnUse">
<stop stop-color="#FF9500"/>
<stop offset="0.86" stop-color="#AF6805"/>
</linearGradient>
<linearGradient id="paint25_linear_222_100" x1="997.5" y1="647" x2="997.5" y2="650" gradientUnits="userSpaceOnUse">
<stop stop-color="#FF9500"/>
<stop offset="0.86" stop-color="#AF6805"/>
</linearGradient>
<linearGradient id="paint26_linear_222_100" x1="1003.5" y1="651" x2="1003.5" y2="654" gradientUnits="userSpaceOnUse">
<stop stop-color="#FF9500"/>
<stop offset="0.86" stop-color="#AF6805"/>
</linearGradient>
<linearGradient id="paint27_linear_222_100" x1="1012.5" y1="658" x2="1012.5" y2="661" gradientUnits="userSpaceOnUse">
<stop stop-color="#FF9500"/>
<stop offset="0.86" stop-color="#AF6805"/>
</linearGradient>
<linearGradient id="paint28_linear_222_100" x1="1010.5" y1="648" x2="1010.5" y2="651" gradientUnits="userSpaceOnUse">
<stop stop-color="#FF9500"/>
<stop offset="0.86" stop-color="#AF6805"/>
</linearGradient>
<linearGradient id="paint29_linear_222_100" x1="996.5" y1="658" x2="996.5" y2="661" gradientUnits="userSpaceOnUse">
<stop stop-color="#FF9500"/>
<stop offset="0.86" stop-color="#AF6805"/>
</linearGradient>
<linearGradient id="paint30_linear_222_100" x1="1051.5" y1="689" x2="1051.5" y2="692" gradientUnits="userSpaceOnUse">
<stop stop-color="#FF9500"/>
<stop offset="0.86" stop-color="#AF6805"/>
</linearGradient>
<linearGradient id="paint31_linear_222_100" x1="1044.5" y1="692" x2="1044.5" y2="695" gradientUnits="userSpaceOnUse">
<stop stop-color="#FF9500"/>
<stop offset="0.86" stop-color="#AF6805"/>
</linearGradient>
<linearGradient id="paint32_linear_222_100" x1="1038.5" y1="698" x2="1038.5" y2="701" gradientUnits="userSpaceOnUse">
<stop stop-color="#FF9500"/>
<stop offset="0.86" stop-color="#AF6805"/>
</linearGradient>
<linearGradient id="paint33_linear_222_100" x1="1044.5" y1="702" x2="1044.5" y2="705" gradientUnits="userSpaceOnUse">
<stop stop-color="#FF9500"/>
<stop offset="0.86" stop-color="#AF6805"/>
</linearGradient>
<linearGradient id="paint34_linear_222_100" x1="1053.5" y1="709" x2="1053.5" y2="712" gradientUnits="userSpaceOnUse">
<stop stop-color="#FF9500"/>
<stop offset="0.86" stop-color="#AF6805"/>
</linearGradient>
<linearGradient id="paint35_linear_222_100" x1="1051.5" y1="699" x2="1051.5" y2="702" gradientUnits="userSpaceOnUse">
<stop stop-color="#FF9500"/>
<stop offset="0.86" stop-color="#AF6805"/>
</linearGradient>
<linearGradient id="paint36_linear_222_100" x1="1037.5" y1="709" x2="1037.5" y2="712" gradientUnits="userSpaceOnUse">
<stop stop-color="#FF9500"/>
<stop offset="0.86" stop-color="#AF6805"/>
</linearGradient>
<linearGradient id="paint37_linear_222_100" x1="1128.5" y1="705" x2="1128.5" y2="708" gradientUnits="userSpaceOnUse">
<stop stop-color="#5CCF64"/>
<stop offset="1" stop-color="#109128"/>
</linearGradient>
<linearGradient id="paint38_linear_222_100" x1="1121.5" y1="708" x2="1121.5" y2="711" gradientUnits="userSpaceOnUse">
<stop stop-color="#5CCF64"/>
<stop offset="1" stop-color="#109128"/>
</linearGradient>
<linearGradient id="paint39_linear_222_100" x1="1115.5" y1="714" x2="1115.5" y2="717" gradientUnits="userSpaceOnUse">
<stop stop-color="#5CCF64"/>
<stop offset="1" stop-color="#109128"/>
</linearGradient>
<linearGradient id="paint40_linear_222_100" x1="1121.5" y1="718" x2="1121.5" y2="721" gradientUnits="userSpaceOnUse">
<stop stop-color="#5CCF64"/>
<stop offset="1" stop-color="#109128"/>
</linearGradient>
<linearGradient id="paint41_linear_222_100" x1="1130.5" y1="725" x2="1130.5" y2="728" gradientUnits="userSpaceOnUse">
<stop stop-color="#5CCF64"/>
<stop offset="1" stop-color="#109128"/>
</linearGradient>
<linearGradient id="paint42_linear_222_100" x1="1128.5" y1="715" x2="1128.5" y2="718" gradientUnits="userSpaceOnUse">
<stop stop-color="#5CCF64"/>
<stop offset="1" stop-color="#109128"/>
</linearGradient>
<linearGradient id="paint43_linear_222_100" x1="1114.5" y1="725" x2="1114.5" y2="728" gradientUnits="userSpaceOnUse">
<stop stop-color="#5CCF64"/>
<stop offset="1" stop-color="#109128"/>
</linearGradient>
<linearGradient id="paint44_linear_222_100" x1="940.5" y1="635" x2="940.5" y2="638" gradientUnits="userSpaceOnUse">
<stop stop-color="#FA4545"/>
<stop offset="1" stop-color="#942929"/>
</linearGradient>
<linearGradient id="paint45_linear_222_100" x1="933.5" y1="638" x2="933.5" y2="641" gradientUnits="userSpaceOnUse">
<stop stop-color="#FA4545"/>
<stop offset="1" stop-color="#942929"/>
</linearGradient>
<linearGradient id="paint46_linear_222_100" x1="927.5" y1="644" x2="927.5" y2="647" gradientUnits="userSpaceOnUse">
<stop stop-color="#FA4545"/>
<stop offset="1" stop-color="#942929"/>
</linearGradient>
<linearGradient id="paint47_linear_222_100" x1="933.5" y1="648" x2="933.5" y2="651" gradientUnits="userSpaceOnUse">
<stop stop-color="#FA4545"/>
<stop offset="1" stop-color="#942929"/>
</linearGradient>
<linearGradient id="paint48_linear_222_100" x1="942.5" y1="655" x2="942.5" y2="658" gradientUnits="userSpaceOnUse">
<stop stop-color="#FA4545"/>
<stop offset="1" stop-color="#942929"/>
</linearGradient>
<linearGradient id="paint49_linear_222_100" x1="940.5" y1="645" x2="940.5" y2="648" gradientUnits="userSpaceOnUse">
<stop stop-color="#FA4545"/>
<stop offset="1" stop-color="#942929"/>
</linearGradient>
<linearGradient id="paint50_linear_222_100" x1="926.5" y1="655" x2="926.5" y2="658" gradientUnits="userSpaceOnUse">
<stop stop-color="#FA4545"/>
<stop offset="1" stop-color="#942929"/>
</linearGradient>
<linearGradient id="paint51_linear_222_100" x1="994.5" y1="685" x2="994.5" y2="688" gradientUnits="userSpaceOnUse">
<stop stop-color="#FA4545"/>
<stop offset="1" stop-color="#942929"/>
</linearGradient>
<linearGradient id="paint52_linear_222_100" x1="987.5" y1="688" x2="987.5" y2="691" gradientUnits="userSpaceOnUse">
<stop stop-color="#FA4545"/>
<stop offset="1" stop-color="#942929"/>
</linearGradient>
<linearGradient id="paint53_linear_222_100" x1="981.5" y1="694" x2="981.5" y2="697" gradientUnits="userSpaceOnUse">
<stop stop-color="#FA4545"/>
<stop offset="1" stop-color="#942929"/>
</linearGradient>
<linearGradient id="paint54_linear_222_100" x1="987.5" y1="698" x2="987.5" y2="701" gradientUnits="userSpaceOnUse">
<stop stop-color="#FA4545"/>
<stop offset="1" stop-color="#942929"/>
</linearGradient>
<linearGradient id="paint55_linear_222_100" x1="996.5" y1="705" x2="996.5" y2="708" gradientUnits="userSpaceOnUse">
<stop stop-color="#FA4545"/>
<stop offset="1" stop-color="#942929"/>
</linearGradient>
<linearGradient id="paint56_linear_222_100" x1="994.5" y1="695" x2="994.5" y2="698" gradientUnits="userSpaceOnUse">
<stop stop-color="#FA4545"/>
<stop offset="1" stop-color="#942929"/>
</linearGradient>
<linearGradient id="paint57_linear_222_100" x1="980.5" y1="705" x2="980.5" y2="708" gradientUnits="userSpaceOnUse">
<stop stop-color="#FA4545"/>
<stop offset="1" stop-color="#942929"/>
</linearGradient>
<linearGradient id="paint58_linear_222_100" x1="1336.5" y1="643" x2="1336.5" y2="646" gradientUnits="userSpaceOnUse">
<stop stop-color="#FA4545"/>
<stop offset="1" stop-color="#942929"/>
</linearGradient>
<linearGradient id="paint59_linear_222_100" x1="1329.5" y1="646" x2="1329.5" y2="649" gradientUnits="userSpaceOnUse">
<stop stop-color="#FA4545"/>
<stop offset="1" stop-color="#942929"/>
</linearGradient>
<linearGradient id="paint60_linear_222_100" x1="1323.5" y1="652" x2="1323.5" y2="655" gradientUnits="userSpaceOnUse">
<stop stop-color="#FA4545"/>
<stop offset="1" stop-color="#942929"/>
</linearGradient>
<linearGradient id="paint61_linear_222_100" x1="1329.5" y1="656" x2="1329.5" y2="659" gradientUnits="userSpaceOnUse">
<stop stop-color="#FA4545"/>
<stop offset="1" stop-color="#942929"/>
</linearGradient>
<linearGradient id="paint62_linear_222_100" x1="1338.5" y1="663" x2="1338.5" y2="666" gradientUnits="userSpaceOnUse">
<stop stop-color="#FA4545"/>
<stop offset="1" stop-color="#942929"/>
</linearGradient>
<linearGradient id="paint63_linear_222_100" x1="1336.5" y1="653" x2="1336.5" y2="656" gradientUnits="userSpaceOnUse">
<stop stop-color="#FA4545"/>
<stop offset="1" stop-color="#942929"/>
</linearGradient>
<linearGradient id="paint64_linear_222_100" x1="1322.5" y1="663" x2="1322.5" y2="666" gradientUnits="userSpaceOnUse">
<stop stop-color="#FA4545"/>
<stop offset="1" stop-color="#942929"/>
</linearGradient>
<linearGradient id="paint65_linear_222_100" x1="1294.5" y1="702" x2="1294.5" y2="705" gradientUnits="userSpaceOnUse">
<stop stop-color="#FA4545"/>
<stop offset="1" stop-color="#942929"/>
</linearGradient>
<linearGradient id="paint66_linear_222_100" x1="1287.5" y1="705" x2="1287.5" y2="708" gradientUnits="userSpaceOnUse">
<stop stop-color="#FA4545"/>
<stop offset="1" stop-color="#942929"/>
</linearGradient>
<linearGradient id="paint67_linear_222_100" x1="1281.5" y1="711" x2="1281.5" y2="714" gradientUnits="userSpaceOnUse">
<stop stop-color="#FA4545"/>
<stop offset="1" stop-color="#942929"/>
</linearGradient>
<linearGradient id="paint68_linear_222_100" x1="1287.5" y1="715" x2="1287.5" y2="718" gradientUnits="userSpaceOnUse">
<stop stop-color="#FA4545"/>
<stop offset="1" stop-color="#942929"/>
</linearGradient>
<linearGradient id="paint69_linear_222_100" x1="1296.5" y1="722" x2="1296.5" y2="725" gradientUnits="userSpaceOnUse">
<stop stop-color="#FA4545"/>
<stop offset="1" stop-color="#942929"/>
</linearGradient>
<linearGradient id="paint70_linear_222_100" x1="1294.5" y1="712" x2="1294.5" y2="715" gradientUnits="userSpaceOnUse">
<stop stop-color="#FA4545"/>
<stop offset="1" stop-color="#942929"/>
</linearGradient>
<linearGradient id="paint71_linear_222_100" x1="1280.5" y1="722" x2="1280.5" y2="725" gradientUnits="userSpaceOnUse">
<stop stop-color="#FA4545"/>
<stop offset="1" stop-color="#942929"/>
</linearGradient>
<linearGradient id="paint72_linear_222_100" x1="146.5" y1="661" x2="146.5" y2="664" gradientUnits="userSpaceOnUse">
<stop stop-color="#FA4545"/>
<stop offset="1" stop-color="#942929"/>
</linearGradient>
<linearGradient id="paint73_linear_222_100" x1="139.5" y1="664" x2="139.5" y2="667" gradientUnits="userSpaceOnUse">
<stop stop-color="#FA4545"/>
<stop offset="1" stop-color="#942929"/>
</linearGradient>
<linearGradient id="paint74_linear_222_100" x1="139.5" y1="674" x2="139.5" y2="677" gradientUnits="userSpaceOnUse">
<stop stop-color="#FA4545"/>
<stop offset="1" stop-color="#942929"/>
</linearGradient>
<linearGradient id="paint75_linear_222_100" x1="148.5" y1="681" x2="148.5" y2="684" gradientUnits="userSpaceOnUse">
<stop stop-color="#FA4545"/>
<stop offset="1" stop-color="#942929"/>
</linearGradient>
<linearGradient id="paint76_linear_222_100" x1="146.5" y1="671" x2="146.5" y2="674" gradientUnits="userSpaceOnUse">
<stop stop-color="#FA4545"/>
<stop offset="1" stop-color="#942929"/>
</linearGradient>
<linearGradient id="paint77_linear_222_100" x1="137.5" y1="682" x2="137.5" y2="685" gradientUnits="userSpaceOnUse">
<stop stop-color="#FF9500"/>
<stop offset="0.86" stop-color="#AF6805"/>
</linearGradient>
<linearGradient id="paint78_linear_222_100" x1="130.5" y1="685" x2="130.5" y2="688" gradientUnits="userSpaceOnUse">
<stop stop-color="#FF9500"/>
<stop offset="0.86" stop-color="#AF6805"/>
</linearGradient>
<linearGradient id="paint79_linear_222_100" x1="124.5" y1="691" x2="124.5" y2="694" gradientUnits="userSpaceOnUse">
<stop stop-color="#FF9500"/>
<stop offset="0.86" stop-color="#AF6805"/>
</linearGradient>
<linearGradient id="paint80_linear_222_100" x1="130.5" y1="695" x2="130.5" y2="698" gradientUnits="userSpaceOnUse">
<stop stop-color="#FF9500"/>
<stop offset="0.86" stop-color="#AF6805"/>
</linearGradient>
<linearGradient id="paint81_linear_222_100" x1="139.5" y1="702" x2="139.5" y2="705" gradientUnits="userSpaceOnUse">
<stop stop-color="#FF9500"/>
<stop offset="0.86" stop-color="#AF6805"/>
</linearGradient>
<linearGradient id="paint82_linear_222_100" x1="137.5" y1="692" x2="137.5" y2="695" gradientUnits="userSpaceOnUse">
<stop stop-color="#FF9500"/>
<stop offset="0.86" stop-color="#AF6805"/>
</linearGradient>
<linearGradient id="paint83_linear_222_100" x1="123.5" y1="702" x2="123.5" y2="705" gradientUnits="userSpaceOnUse">
<stop stop-color="#FF9500"/>
<stop offset="0.86" stop-color="#AF6805"/>
</linearGradient>
<linearGradient id="paint84_linear_222_100" x1="184.5" y1="662" x2="184.5" y2="665" gradientUnits="userSpaceOnUse">
<stop stop-color="#5CCF64"/>
<stop offset="1" stop-color="#109128"/>
</linearGradient>
<linearGradient id="paint85_linear_222_100" x1="177.5" y1="665" x2="177.5" y2="668" gradientUnits="userSpaceOnUse">
<stop stop-color="#5CCF64"/>
<stop offset="1" stop-color="#109128"/>
</linearGradient>
<linearGradient id="paint86_linear_222_100" x1="171.5" y1="671" x2="171.5" y2="674" gradientUnits="userSpaceOnUse">
<stop stop-color="#5CCF64"/>
<stop offset="1" stop-color="#109128"/>
</linearGradient>
<linearGradient id="paint87_linear_222_100" x1="177.5" y1="675" x2="177.5" y2="678" gradientUnits="userSpaceOnUse">
<stop stop-color="#5CCF64"/>
<stop offset="1" stop-color="#109128"/>
</linearGradient>
<linearGradient id="paint88_linear_222_100" x1="186.5" y1="682" x2="186.5" y2="685" gradientUnits="userSpaceOnUse">
<stop stop-color="#5CCF64"/>
<stop offset="1" stop-color="#109128"/>
</linearGradient>
<linearGradient id="paint89_linear_222_100" x1="184.5" y1="672" x2="184.5" y2="675" gradientUnits="userSpaceOnUse">
<stop stop-color="#5CCF64"/>
<stop offset="1" stop-color="#109128"/>
</linearGradient>
<linearGradient id="paint90_linear_222_100" x1="170.5" y1="682" x2="170.5" y2="685" gradientUnits="userSpaceOnUse">
<stop stop-color="#5CCF64"/>
<stop offset="1" stop-color="#109128"/>
</linearGradient>
<linearGradient id="paint91_linear_222_100" x1="882.5" y1="584" x2="882.5" y2="587" gradientUnits="userSpaceOnUse">
<stop stop-color="#FA4545"/>
<stop offset="1" stop-color="#942929"/>
</linearGradient>
<linearGradient id="paint92_linear_222_100" x1="875.5" y1="587" x2="875.5" y2="590" gradientUnits="userSpaceOnUse">
<stop stop-color="#FA4545"/>
<stop offset="1" stop-color="#942929"/>
</linearGradient>
<linearGradient id="paint93_linear_222_100" x1="869.5" y1="593" x2="869.5" y2="596" gradientUnits="userSpaceOnUse">
<stop stop-color="#FA4545"/>
<stop offset="1" stop-color="#942929"/>
</linearGradient>
<linearGradient id="paint94_linear_222_100" x1="875.5" y1="597" x2="875.5" y2="600" gradientUnits="userSpaceOnUse">
<stop stop-color="#FA4545"/>
<stop offset="1" stop-color="#942929"/>
</linearGradient>
<linearGradient id="paint95_linear_222_100" x1="884.5" y1="604" x2="884.5" y2="607" gradientUnits="userSpaceOnUse">
<stop stop-color="#FA4545"/>
<stop offset="1" stop-color="#942929"/>
</linearGradient>
<linearGradient id="paint96_linear_222_100" x1="882.5" y1="594" x2="882.5" y2="597" gradientUnits="userSpaceOnUse">
<stop stop-color="#FA4545"/>
<stop offset="1" stop-color="#942929"/>
</linearGradient>
<linearGradient id="paint97_linear_222_100" x1="868.5" y1="604" x2="868.5" y2="607" gradientUnits="userSpaceOnUse">
<stop stop-color="#FA4545"/>
<stop offset="1" stop-color="#942929"/>
</linearGradient>
<clipPath id="clip0_222_100">
<rect width="1440" height="1024" fill="white"/>
</clipPath>
</defs>
</svg>
