<svg width="1343" height="233" viewBox="0 0 1343 233" fill="none" xmlns="http://www.w3.org/2000/svg">
<path d="M441.174 178.022C441.174 158.473 457.02 142.627 476.569 142.627C479.519 142.627 482.341 143.094 485.08 143.773C494.316 133.8 507.411 127.458 522.077 127.458C550.003 127.458 572.641 150.097 572.641 178.022H441.174Z" fill="white"/>
<path d="M74.625 195.328C74.625 174.119 91.8188 156.927 113.027 156.927C116.228 156.927 119.288 157.433 122.261 158.17C132.281 147.348 146.489 140.469 162.4 140.469C192.698 140.469 217.259 165.03 217.259 195.328H74.625ZM460.606 169.775C457.925 169.775 455.391 170.303 452.963 171.069C445.27 160.011 432.508 152.739 418.017 152.739C403.527 152.739 390.764 160.009 383.072 171.069C380.644 170.303 378.109 169.775 375.428 169.775C361.316 169.775 349.875 181.216 349.875 195.328H486.161C486.159 181.216 474.719 169.775 460.606 169.775Z" fill="white"/>
<path d="M84.025 148.508C81.9906 148.508 80.0672 148.908 78.225 149.489C72.3875 141.098 62.7047 135.581 51.7078 135.581C40.7109 135.581 31.0281 141.098 25.1906 149.489C23.3484 148.908 21.425 148.508 19.3906 148.508C8.68124 148.508 0 157.189 0 167.899H103.412C103.414 157.189 94.7328 148.508 84.025 148.508Z" fill="white"/>
<path d="M376.87 18.7672C374.972 18.7672 373.178 19.1406 371.459 19.6828C366.014 11.8547 356.978 6.70625 346.719 6.70625C336.459 6.70625 327.423 11.8531 321.978 19.6828C320.258 19.1406 318.464 18.7672 316.567 18.7672C313.099 18.7672 309.889 19.7922 307.134 21.4859C301.297 8.83124 288.58 0 273.728 0C263.038 0 253.491 4.62344 246.759 11.8937C244.763 11.3984 242.706 11.0578 240.555 11.0578C226.305 11.0578 214.753 22.6109 214.753 36.8594H394.961C394.963 26.8672 386.863 18.7672 376.87 18.7672Z" fill="white"/>
<path d="M171.264 68.978C169.717 68.978 168.255 69.2827 166.853 69.7249C162.414 63.3436 155.05 59.1468 146.688 59.1468C140.52 59.1468 134.919 61.453 130.609 65.2093C124.728 56.7218 114.945 51.1421 103.838 51.1421C94.3876 51.1421 85.9485 55.228 79.9985 61.6561C78.2329 61.2171 76.4157 60.9171 74.5141 60.9171C61.9172 60.9171 51.7063 71.128 51.7063 83.7249H186.011C186.011 79.8138 184.457 76.0629 181.692 73.2973C178.926 70.5317 175.175 68.978 171.264 68.978Z" fill="white"/>
<path d="M588.095 57.8281C582.242 51.1078 576.238 44.5249 569.955 38.2109C569.456 38.5843 568.916 38.9046 568.447 39.314C562.566 30.8265 552.783 25.2468 541.675 25.2468C532.225 25.2468 523.786 29.3328 517.836 35.7609C516.07 35.3218 514.253 35.0218 512.352 35.0218C499.756 35.0203 489.545 45.2312 489.545 57.8281H588.095Z" fill="white"/>
<path d="M1195.17 215.022C1195.17 195.473 1211.02 179.627 1230.57 179.627C1233.52 179.627 1236.34 180.094 1239.08 180.773C1248.32 170.8 1261.41 164.458 1276.08 164.458C1304 164.458 1326.64 187.097 1326.64 215.022H1195.17Z" fill="white"/>
<path d="M828.625 232.328C828.625 211.119 845.819 193.927 867.027 193.927C870.228 193.927 873.288 194.433 876.261 195.17C886.281 184.348 900.489 177.469 916.4 177.469C946.698 177.469 971.259 202.03 971.259 232.328H828.625ZM1214.61 206.775C1211.93 206.775 1209.39 207.303 1206.96 208.069C1199.27 197.011 1186.51 189.739 1172.02 189.739C1157.53 189.739 1144.76 197.009 1137.07 208.069C1134.64 207.303 1132.11 206.775 1129.43 206.775C1115.32 206.775 1103.88 218.216 1103.88 232.328H1240.16C1240.16 218.216 1228.72 206.775 1214.61 206.775Z" fill="white"/>
<path d="M838.025 185.508C835.991 185.508 834.067 185.908 832.225 186.489C826.387 178.098 816.705 172.581 805.708 172.581C794.711 172.581 785.028 178.098 779.191 186.489C777.348 185.908 775.425 185.508 773.391 185.508C762.681 185.508 754 194.189 754 204.899H857.412C857.414 194.189 848.733 185.508 838.025 185.508Z" fill="white"/>
<path d="M1130.87 55.7672C1128.97 55.7672 1127.18 56.1406 1125.46 56.6828C1120.01 48.8547 1110.98 43.7062 1100.72 43.7062C1090.46 43.7062 1081.42 48.8531 1075.98 56.6828C1074.26 56.1406 1072.46 55.7672 1070.57 55.7672C1067.1 55.7672 1063.89 56.7922 1061.13 58.4859C1055.3 45.8312 1042.58 37 1027.73 37C1017.04 37 1007.49 41.6234 1000.76 48.8937C998.763 48.3984 996.706 48.0578 994.555 48.0578C980.305 48.0578 968.753 59.6109 968.753 73.8594H1148.96C1148.96 63.8672 1140.86 55.7672 1130.87 55.7672Z" fill="white"/>
<path d="M925.264 105.978C923.717 105.978 922.255 106.283 920.853 106.725C916.414 100.344 909.05 96.1468 900.688 96.1468C894.52 96.1468 888.919 98.453 884.609 102.209C878.728 93.7218 868.945 88.1421 857.838 88.1421C848.388 88.1421 839.948 92.228 833.998 98.6561C832.233 98.2171 830.416 97.9171 828.514 97.9171C815.917 97.9171 805.706 108.128 805.706 120.725H940.011C940.011 116.814 938.457 113.063 935.692 110.297C932.926 107.532 929.175 105.978 925.264 105.978Z" fill="white"/>
<path d="M1342.1 94.8281C1336.24 88.1078 1330.24 81.5249 1323.95 75.2109C1323.46 75.5843 1322.92 75.9046 1322.45 76.314C1316.57 67.8265 1306.78 62.2468 1295.68 62.2468C1286.23 62.2468 1277.79 66.3328 1271.84 72.7609C1270.07 72.3218 1268.25 72.0218 1266.35 72.0218C1253.76 72.0203 1243.55 82.2312 1243.55 94.8281H1342.1Z" fill="white"/>
</svg>
