<svg width="1440" height="604" viewBox="0 0 1440 604" fill="none" xmlns="http://www.w3.org/2000/svg">
<path d="M1440 413.5C1438.5 528 1485.32 477.284 1397.5 543.93L1321.5 552.93L1220.51 547.93L1086.5 465C1250.34 465 1258.5 421 1440 413.5Z" fill="#52C883"/>
<path d="M1037.87 540.846C842.614 540.846 808.119 488.643 773 304C920.898 304.044 1101.81 488.722 1265.85 466.144C1356.47 453.671 1361.91 445.121 1479 469.5C1519 618 1175.61 540.846 1037.87 540.846Z" fill="#34BE71"/>
<path d="M807 404.628C1028.27 362.432 1094.13 542.958 1441 543C1548 632 1137.88 544.28 1040.27 544.28C882.811 544.28 872.118 537.701 807 404.628Z" fill="#44A67D"/>
<path d="M1245.6 487.462C1244.97 487.463 1244.33 487.338 1243.75 487.094C1243.16 486.85 1242.62 486.493 1242.17 486.042C1241.72 485.591 1241.36 485.056 1241.12 484.466C1240.87 483.877 1240.75 483.246 1240.75 482.608V430.312C1240.75 427.631 1242.92 425.458 1245.6 425.458C1248.29 425.458 1250.46 427.631 1250.46 430.312V482.608C1250.46 483.246 1250.34 483.877 1250.09 484.466C1249.85 485.056 1249.49 485.591 1249.04 486.042C1248.59 486.493 1248.05 486.85 1247.46 487.094C1246.87 487.338 1246.24 487.463 1245.6 487.462Z" fill="#674447"/>
<path d="M1276.21 425.856C1276.21 442.758 1262.5 456.459 1245.6 456.459C1228.7 456.459 1215 442.758 1215 425.856C1215 408.955 1228.7 357 1245.6 357C1262.5 357 1276.21 408.955 1276.21 425.856Z" fill="#00A07D"/>
<path d="M1245.6 357C1241.36 357 1237.32 360.28 1233.65 365.452H1233.65C1249.12 365.452 1261.66 413.003 1261.66 428.472C1261.66 441.928 1252.16 453.147 1239.51 455.844C1241.48 456.242 1243.52 456.458 1245.6 456.458C1262.51 456.458 1276.21 442.756 1276.21 425.855C1276.21 408.955 1262.5 357 1245.6 357Z" fill="#36B294"/>
<path d="M1209.8 506.483C1209.31 506.483 1208.82 506.386 1208.36 506.196C1207.9 506.007 1207.48 505.729 1207.13 505.378C1206.78 505.027 1206.5 504.611 1206.31 504.152C1206.12 503.694 1206.02 503.202 1206.02 502.706V462.027C1206.02 461.53 1206.12 461.039 1206.31 460.581C1206.5 460.122 1206.78 459.706 1207.13 459.355C1207.48 459.004 1207.9 458.726 1208.36 458.537C1208.82 458.347 1209.31 458.25 1209.8 458.25C1210.3 458.25 1210.79 458.347 1211.25 458.537C1211.71 458.726 1212.13 459.004 1212.48 459.355C1212.83 459.706 1213.11 460.122 1213.3 460.581C1213.49 461.039 1213.58 461.53 1213.58 462.027V502.706C1213.58 503.202 1213.49 503.694 1213.3 504.152C1213.11 504.611 1212.83 505.027 1212.48 505.378C1212.13 505.729 1211.71 506.007 1211.25 506.196C1210.79 506.386 1210.3 506.483 1209.8 506.483Z" fill="#674447"/>
<path d="M1233.61 458.561C1233.61 471.708 1222.95 482.366 1209.8 482.366C1196.66 482.366 1186 471.708 1186 458.561C1186 445.414 1196.66 405 1209.8 405C1222.95 405 1233.61 445.414 1233.61 458.561Z" fill="#00A07D"/>
<path d="M1209.8 405C1206.5 405 1203.36 407.552 1200.5 411.573C1212.54 411.573 1222.29 448.563 1222.29 460.595C1222.29 471.063 1214.9 479.789 1205.06 481.888C1206.62 482.204 1208.21 482.364 1209.8 482.366C1222.95 482.366 1233.61 471.708 1233.61 458.561C1233.61 445.414 1222.95 405 1209.8 405Z" fill="#36B294"/>
<path d="M1275 498C1274.61 498 1274.22 497.92 1273.85 497.762C1273.49 497.605 1273.16 497.374 1272.88 497.084C1272.6 496.793 1272.38 496.447 1272.23 496.067C1272.08 495.687 1272 495.28 1272 494.868V461.132C1272 460.72 1272.08 460.313 1272.23 459.933C1272.38 459.553 1272.6 459.207 1272.88 458.916C1273.16 458.626 1273.49 458.395 1273.85 458.238C1274.22 458.08 1274.61 458 1275 458C1275.39 458 1275.78 458.08 1276.15 458.238C1276.51 458.395 1276.84 458.626 1277.12 458.916C1277.4 459.207 1277.62 459.553 1277.77 459.933C1277.92 460.313 1278 460.72 1278 461.132V494.868C1278 495.28 1277.92 495.687 1277.77 496.067C1277.62 496.447 1277.4 496.793 1277.12 497.084C1276.84 497.374 1276.51 497.605 1276.15 497.762C1275.78 497.92 1275.39 498 1275 498Z" fill="#674447"/>
<path d="M1295 458.308C1295 469.183 1286.05 478 1275 478C1263.95 478 1255 469.183 1255 458.308C1255 447.432 1263.95 414 1275 414C1286.05 414 1295 447.432 1295 458.308Z" fill="#00A07D"/>
<path d="M1274.87 414C1272.08 414 1269.42 416.111 1267 419.438C1277.18 419.438 1285.43 450.037 1285.43 459.991C1285.43 468.65 1279.18 475.869 1270.86 477.604C1272.18 477.866 1273.52 477.999 1274.87 478C1285.99 478 1295 469.183 1295 458.308C1295 447.432 1285.99 414 1274.87 414Z" fill="#36B294"/>
<path d="M-22.5 412C-15.2049 521.647 -94.6413 501.135 -27.9906 564H81.4816L231 452.138C106.651 452.138 120.49 420 -22.5 412Z" fill="#52C883"/>
<path d="M258.5 558C453.766 558 488.263 505.683 523.383 320.636C375.478 320.679 197.05 489.128 33 466.5C-57.625 454 -83.5546 445.583 -200.653 470.015C-128.706 575.995 120.753 558 258.5 558Z" fill="#34BE71"/>
<path d="M489.461 422.006C268.008 380.009 221.117 552.267 -126.038 552.309C-56.5798 610.484 158.309 561 256 561C477.5 556 424.291 554.453 489.461 422.006Z" fill="#44A67D"/>
<path d="M264.805 469.247C264.308 469.247 263.817 469.15 263.358 468.96C262.9 468.771 262.483 468.493 262.132 468.142C261.781 467.791 261.503 467.375 261.313 466.916C261.123 466.458 261.025 465.967 261.025 465.47V424.791C261.025 424.295 261.123 423.803 261.313 423.345C261.503 422.886 261.781 422.47 262.132 422.119C262.483 421.768 262.9 421.49 263.358 421.301C263.817 421.111 264.308 421.014 264.805 421.014C265.301 421.014 265.792 421.111 266.251 421.301C266.709 421.49 267.126 421.768 267.477 422.119C267.828 422.47 268.107 422.886 268.297 423.345C268.486 423.803 268.584 424.295 268.584 424.791V465.47C268.584 465.967 268.486 466.458 268.297 466.916C268.107 467.375 267.828 467.791 267.477 468.142C267.126 468.493 266.709 468.771 266.251 468.96C265.792 469.15 265.301 469.247 264.805 469.247Z" fill="#674447"/>
<path d="M288.609 421.325C288.609 434.472 277.952 445.13 264.805 445.13C251.658 445.13 241 434.472 241 421.325C241 408.178 251.658 367.764 264.805 367.764C277.952 367.764 288.609 408.178 288.609 421.325Z" fill="#00A07D"/>
<path d="M264.803 367.764C261.503 367.764 258.361 370.316 255.503 374.338C267.536 374.338 277.291 411.327 277.291 423.36C277.291 433.827 269.903 442.553 260.063 444.652C261.622 444.968 263.21 445.128 264.802 445.13C277.948 445.13 288.606 434.472 288.606 421.325C288.609 408.178 277.952 367.764 264.803 367.764Z" fill="#36B294"/>
<path d="M376.041 435.63C375.356 435.63 374.677 435.496 374.044 435.234C373.411 434.972 372.836 434.588 372.351 434.104C371.866 433.62 371.482 433.045 371.22 432.412C370.957 431.779 370.822 431.101 370.822 430.416V374.252C370.822 371.372 373.156 369.038 376.041 369.038C378.925 369.038 381.259 371.372 381.259 374.252V430.416C381.259 431.101 381.124 431.779 380.862 432.412C380.599 433.045 380.215 433.62 379.73 434.104C379.245 434.588 378.67 434.972 378.037 435.234C377.404 435.496 376.726 435.63 376.041 435.63Z" fill="#674447"/>
<path d="M408.906 369.467C408.906 387.619 394.192 402.334 376.041 402.334C357.889 402.334 343.173 387.62 343.173 369.467C343.173 351.314 357.887 295.517 376.041 295.517C394.194 295.517 408.906 351.316 408.906 369.467Z" fill="#00A07D"/>
<path d="M376.039 295.517C371.483 295.517 367.144 299.039 363.198 304.594H363.2C379.814 304.594 393.281 355.663 393.281 372.277C393.281 386.728 383.083 398.777 369.495 401.674C371.611 402.1 373.797 402.333 376.039 402.333C394.191 402.333 408.906 387.619 408.906 369.467C408.906 351.316 394.191 295.517 376.039 295.517Z" fill="#36B294"/>
<path d="M307.294 460.394C306.656 460.394 306.024 460.269 305.435 460.025C304.845 459.781 304.31 459.424 303.858 458.973C303.407 458.522 303.049 457.987 302.805 457.398C302.56 456.809 302.435 456.177 302.434 455.539V403.244C302.434 400.563 304.608 398.389 307.294 398.389C309.98 398.389 312.153 400.563 312.153 403.244V455.539C312.153 456.177 312.027 456.809 311.783 457.398C311.538 457.987 311.18 458.522 310.729 458.973C310.278 459.424 309.742 459.781 309.153 460.025C308.563 460.269 307.932 460.394 307.294 460.394Z" fill="#674447"/>
<path d="M337.895 398.788C337.895 415.689 324.194 429.391 307.292 429.391C290.391 429.391 276.689 415.689 276.689 398.788C276.689 381.886 290.391 329.931 307.292 329.931C324.194 329.931 337.895 381.886 337.895 398.788Z" fill="#00A07D"/>
<path d="M307.292 329.931C303.05 329.931 299.009 333.211 295.336 338.383H295.338C310.806 338.383 323.347 385.935 323.347 401.403C323.347 414.86 313.85 426.078 301.2 428.775C303.17 429.174 305.206 429.389 307.294 429.389C324.195 429.389 337.897 415.688 337.897 398.786C337.895 381.886 324.194 329.931 307.292 329.931Z" fill="#36B294"/>
<path d="M1245.6 487.462C1244.97 487.463 1244.33 487.338 1243.75 487.094C1243.16 486.85 1242.62 486.493 1242.17 486.042C1241.72 485.591 1241.36 485.056 1241.12 484.466C1240.87 483.877 1240.75 483.246 1240.75 482.608V430.312C1240.75 427.631 1242.92 425.458 1245.6 425.458C1248.29 425.458 1250.46 427.631 1250.46 430.312V482.608C1250.46 483.246 1250.34 483.877 1250.09 484.466C1249.85 485.056 1249.49 485.591 1249.04 486.042C1248.59 486.493 1248.05 486.85 1247.46 487.094C1246.87 487.338 1246.24 487.463 1245.6 487.462Z" fill="#674447"/>
<path d="M1276.21 425.856C1276.21 442.758 1262.5 456.459 1245.6 456.459C1228.7 456.459 1215 442.758 1215 425.856C1215 408.955 1228.7 357 1245.6 357C1262.5 357 1276.21 408.955 1276.21 425.856Z" fill="#00A07D"/>
<path d="M1245.6 357C1241.36 357 1237.32 360.28 1233.65 365.452H1233.65C1249.12 365.452 1261.66 413.003 1261.66 428.472C1261.66 441.928 1252.16 453.147 1239.51 455.844C1241.48 456.242 1243.52 456.458 1245.6 456.458C1262.51 456.458 1276.21 442.756 1276.21 425.855C1276.21 408.955 1262.5 357 1245.6 357Z" fill="#36B294"/>
<path d="M431.919 448.433C430.919 448.434 429.929 448.237 429.006 447.855C428.082 447.473 427.243 446.913 426.536 446.207C425.829 445.5 425.268 444.661 424.885 443.738C424.502 442.814 424.305 441.825 424.305 440.825V358.878C424.305 354.677 427.711 351.271 431.919 351.271C436.127 351.271 439.533 354.677 439.533 358.878V440.825C439.533 441.825 439.335 442.814 438.953 443.738C438.57 444.661 438.009 445.5 437.302 446.207C436.595 446.913 435.755 447.473 434.832 447.855C433.908 448.237 432.918 448.434 431.919 448.433Z" fill="#674447"/>
<path d="M479.87 351.897C479.87 378.381 458.4 399.852 431.916 399.852C405.431 399.852 383.961 378.381 383.961 351.897C383.961 325.412 405.431 244 431.916 244C458.402 244 479.87 325.412 479.87 351.897Z" fill="#00A07D"/>
<path d="M431.917 244C425.269 244 418.939 249.139 413.183 257.242H413.184C437.425 257.242 457.075 331.755 457.075 355.995C457.075 377.081 442.194 394.661 422.37 398.887C425.458 399.511 428.647 399.85 431.919 399.85C458.403 399.85 479.873 378.38 479.873 351.897C479.87 325.412 458.4 244 431.917 244Z" fill="#36B294"/>
<path d="M727.754 408.595C727.754 408.595 351.317 523.532 350.504 531.845C349.692 540.157 501.192 606.97 754.379 603.47C995.879 600.157 1048.5 550.845 1119 550.845C1120.62 544.157 736.066 406.907 727.754 408.595Z" fill="#44A67D"/>
<path d="M710.441 92.72L683.504 58.845C683.504 58.845 640.004 104.47 628.254 116.907C616.504 129.345 607.442 136.532 601.817 148.22C593.754 164.907 568.192 308.97 568.192 308.97L494.254 384.907C494.254 384.907 480.316 376.22 476.879 379.032C473.442 381.845 360.192 516.845 360.192 516.845L350.442 531.782C350.442 531.782 372.942 536.782 379.879 536.095C383.254 535.782 399.879 531.97 418.692 530.032C438.504 527.97 463.817 529.657 466.629 529.345C469.817 529.032 480.817 525.783 480.817 525.783L579.191 467.095L660.004 447.032L733.941 480.22L879.004 487.157L958.442 368.345L785.754 139.657L710.441 92.72Z" fill="#9EA2A3"/>
<path d="M499.754 440.345C499.754 440.345 497.066 432.657 495.066 426.97C493.066 421.282 494.254 384.907 494.254 384.907C494.254 384.907 539.316 411.532 544.316 415.907C549.316 420.282 593.941 448.095 593.941 448.095C593.941 448.095 625.754 444.095 636.816 443.407C647.879 442.72 667.004 443.72 667.004 443.72L659.629 454.47C659.629 454.47 587.567 477.907 574.817 481.97C562.067 485.97 480.379 527.532 480.504 525.97C480.754 522.72 501.754 492.657 501.754 492.657L499.754 440.345Z" fill="#717A7C"/>
<path d="M825.879 475.907L518.004 524.532C518.004 524.532 503.129 537.72 504.629 541.22C506.129 544.72 562.941 555.282 582.566 557.782C602.191 560.282 736.379 567.845 750.941 566.845C765.504 565.845 914.317 558.282 934.942 555.782C955.567 553.282 1024.88 548.47 1029.44 546.407C1038.25 542.407 1078.69 520.595 1078.69 520.595C1078.69 520.595 1033.44 449.22 1024.38 432.095C1015.32 415.032 1000.25 384.345 989.692 373.783C979.129 363.22 971.567 358.72 971.567 358.72C971.567 358.72 957.316 325.595 940.691 304.47C924.129 283.345 904.442 246.345 899.192 241.095C879.254 221.22 875.629 222.157 875.629 222.157L888.129 372.782C888.129 372.782 865.004 419.033 856.941 431.595C849.004 444.283 825.879 475.907 825.879 475.907Z" fill="#717A7C"/>
<path d="M715.254 1.90749L709.191 124.532L780.504 168.782C780.504 168.782 801.941 223.72 802.941 228.782C803.941 233.782 802.004 247.345 804.004 250.845C806.004 254.345 842.942 279.782 844.379 279.845C852.567 280.282 869.504 277.345 868.504 275.845C867.504 274.345 875.254 241.72 875.254 241.72C875.254 241.72 826.254 162.282 815.691 140.157C805.129 118.032 765.441 60.72 760.879 51.1575C756.316 41.595 734.754 9.90748 730.191 4.90748C725.629 -0.0925174 718.316 -1.59251 715.254 1.90749Z" fill="#717A7C"/>
<path d="M746.441 235.845C746.441 235.845 780.129 180.345 781.129 171.845C782.129 163.345 754.004 111.532 746.941 92.9075C739.879 74.2825 721.316 36.095 719.316 31.095C717.316 26.095 715.316 1.96997 715.316 1.96997C715.316 1.96997 701.254 17.0325 696.191 29.095C691.191 41.1575 672.254 70.845 672.254 70.845C672.254 70.845 684.129 139.72 688.691 169.345C693.191 199.032 696.566 237.97 695.879 239.408C691.566 248.158 662.566 318.658 662.566 318.658C662.566 318.658 658.816 352.845 662.316 356.345C665.816 359.845 686.129 364.47 687.691 362.095C690.754 357.533 690.691 340.22 690.691 340.22C690.691 340.22 747.067 264.095 748.879 260.345C749.567 258.908 746.441 235.845 746.441 235.845Z" fill="#C0C0C0"/>
<path d="M631.566 241.282C631.379 233.72 620.317 197.845 618.317 189.782C616.317 181.72 612.067 141.907 606.504 141.907C601.004 141.907 575.504 212.032 572.941 218.595C570.441 225.157 534.754 302.032 530.191 311.095C525.691 320.157 505.067 359.345 501.067 365.907C497.067 372.47 491.754 383.595 491.754 383.595L593.879 448.157L630.754 443.97C630.754 443.97 609.192 386.032 604.129 372.97C599.067 359.907 593.067 338.782 593.067 338.782C593.067 338.782 604.754 310.782 612.379 290.657C620.066 270.407 631.816 248.782 631.566 241.282Z" fill="#C0C0C0"/>
<path d="M479.566 379.095C479.816 380.032 481.129 403.595 480.441 417.657C479.754 431.782 477.004 445.908 477.004 445.908L435.692 499.657C435.692 499.657 360.942 528.595 356.442 529.97C351.942 531.345 350.504 531.845 350.504 531.845C350.504 531.845 341.129 526.157 369.192 495.532C405.442 455.97 451.816 401.782 457.691 394.97C468.129 382.845 478.879 376.282 479.566 379.095Z" fill="#C0C0C0"/>
<path d="M570.066 395.47C565.816 395.032 560.441 409.22 557.566 419.783C555.504 427.22 542.192 464.908 540.629 472.22C539.004 479.595 530.754 501.345 533.004 502.345C535.254 503.283 552.691 504.533 562.004 502.595C571.254 500.658 591.504 484.407 591.504 480.595C591.504 476.782 582.754 437.282 581.942 432.595C579.692 419.157 576.691 396.157 570.066 395.47Z" fill="#367C2D"/>
<path d="M988.254 453.157C984.504 451.595 974.941 493.907 972.941 508.845C970.941 523.782 965.629 552.157 967.004 554.97C971.004 562.907 1013.63 557.657 1017.75 550.845C1018.94 548.907 1012.94 517.095 1008.63 503.657C1002.75 485.282 997.941 457.22 988.254 453.157Z" fill="#367C2D"/>
<path d="M1062.94 399.845C1057.07 400.095 1050.82 451.407 1046.94 462.595C1042.57 475.282 1027.94 535.345 1034 542.22C1040.07 549.095 1063.25 543.657 1071.88 541.157C1080.19 538.782 1087.38 534.782 1089.38 530.345C1091.38 525.907 1086.63 490.095 1080.88 465.095C1075 439.782 1072.19 399.407 1062.94 399.845Z" fill="#367C2D"/>
<path d="M518.004 524.595C518.004 524.595 534.192 530.72 589.629 534.157C645.067 537.595 672.316 537.282 672.316 537.282L798.941 518.782L827.691 473.282C827.691 473.282 789.441 471.845 769.129 471.157C748.816 470.47 718.504 470.345 717.129 466.595C715.754 462.782 751.316 436.97 761.316 431.845C771.316 426.658 795.441 423.907 800.941 418.095C806.441 412.22 875.942 373.032 884.504 372.72C893.129 372.345 920.004 388.908 925.129 387.158C930.317 385.408 907.254 324.407 904.192 312.97C903.942 311.97 891.754 252.532 891.379 251.407C888.504 242.595 879.691 219.72 874.129 222.47C868.629 225.22 859.317 246.22 852.442 267.22C845.567 288.22 841.441 299.282 838.004 304.407C834.566 309.532 794.629 335.095 789.066 340.908C783.566 346.783 767.004 359.158 757.004 363.283C747.004 367.408 737.379 367.408 730.129 373.97C722.879 380.533 713.941 391.908 703.941 402.533C693.941 413.22 673.629 437.72 666.941 443.72C660.254 449.72 654.254 455.532 654.254 455.532C654.254 455.532 605.941 469.22 589.691 477.095C573.566 485.033 513.816 523.532 518.004 524.595Z" fill="#C0C0C0"/>
<path d="M799.566 491.97C795.066 492.345 788.754 526.095 786.504 533.595C785.254 537.845 774.817 566.908 777.629 571.783C783.254 581.783 829.504 579.095 831.566 573.845C833.566 568.595 818.379 533.47 815.567 526.97C812.692 520.595 806.191 491.408 799.566 491.97Z" fill="#367C2D"/>
<path d="M608.254 409.595C604.566 410.845 600.004 425.095 595.692 439.845C592.942 449.157 584.942 477.095 586.879 478.47C588.817 479.845 608.129 480.782 615.754 476.095C623.379 471.407 628.942 467.345 629.942 464.595C630.942 461.845 622.191 437.595 618.816 428.72C616.191 422.032 612.129 408.22 608.254 409.595Z" fill="#367C2D"/>
<path d="M1209.8 506.483C1209.31 506.483 1208.82 506.386 1208.36 506.196C1207.9 506.007 1207.48 505.729 1207.13 505.378C1206.78 505.027 1206.5 504.611 1206.31 504.152C1206.12 503.694 1206.02 503.202 1206.02 502.706V462.027C1206.02 461.53 1206.12 461.039 1206.31 460.581C1206.5 460.122 1206.78 459.706 1207.13 459.355C1207.48 459.004 1207.9 458.726 1208.36 458.537C1208.82 458.347 1209.31 458.25 1209.8 458.25C1210.3 458.25 1210.79 458.347 1211.25 458.537C1211.71 458.726 1212.13 459.004 1212.48 459.355C1212.83 459.706 1213.11 460.122 1213.3 460.581C1213.49 461.039 1213.58 461.53 1213.58 462.027V502.706C1213.58 503.202 1213.49 503.694 1213.3 504.152C1213.11 504.611 1212.83 505.027 1212.48 505.378C1212.13 505.729 1211.71 506.007 1211.25 506.196C1210.79 506.386 1210.3 506.483 1209.8 506.483Z" fill="#674447"/>
<path d="M1233.61 458.561C1233.61 471.708 1222.95 482.366 1209.8 482.366C1196.66 482.366 1186 471.708 1186 458.561C1186 445.414 1196.66 405 1209.8 405C1222.95 405 1233.61 445.414 1233.61 458.561Z" fill="#00A07D"/>
<path d="M1209.8 405C1206.5 405 1203.36 407.552 1200.5 411.573C1212.54 411.573 1222.29 448.563 1222.29 460.595C1222.29 471.063 1214.9 479.789 1205.06 481.888C1206.62 482.204 1208.21 482.364 1209.8 482.366C1222.95 482.366 1233.61 471.708 1233.61 458.561C1233.61 445.414 1222.95 405 1209.8 405Z" fill="#36B294"/>
<path d="M1275 498C1274.61 498 1274.22 497.92 1273.85 497.762C1273.49 497.605 1273.16 497.374 1272.88 497.084C1272.6 496.793 1272.38 496.447 1272.23 496.067C1272.08 495.687 1272 495.28 1272 494.868V461.132C1272 460.72 1272.08 460.313 1272.23 459.933C1272.38 459.553 1272.6 459.207 1272.88 458.916C1273.16 458.626 1273.49 458.395 1273.85 458.238C1274.22 458.08 1274.61 458 1275 458C1275.39 458 1275.78 458.08 1276.15 458.238C1276.51 458.395 1276.84 458.626 1277.12 458.916C1277.4 459.207 1277.62 459.553 1277.77 459.933C1277.92 460.313 1278 460.72 1278 461.132V494.868C1278 495.28 1277.92 495.687 1277.77 496.067C1277.62 496.447 1277.4 496.793 1277.12 497.084C1276.84 497.374 1276.51 497.605 1276.15 497.762C1275.78 497.92 1275.39 498 1275 498Z" fill="#674447"/>
<path d="M1295 458.308C1295 469.183 1286.05 478 1275 478C1263.95 478 1255 469.183 1255 458.308C1255 447.432 1263.95 414 1275 414C1286.05 414 1295 447.432 1295 458.308Z" fill="#00A07D"/>
<path d="M1274.87 414C1272.08 414 1269.42 416.111 1267 419.438C1277.18 419.438 1285.43 450.037 1285.43 459.991C1285.43 468.65 1279.18 475.869 1270.86 477.604C1272.18 477.866 1273.52 477.999 1274.87 478C1285.99 478 1295 469.183 1295 458.308C1295 447.432 1285.99 414 1274.87 414Z" fill="#36B294"/>
</svg>
