<svg width="1440" height="710" viewBox="0 0 1440 710" fill="none" xmlns="http://www.w3.org/2000/svg">
<path d="M1031.73 663L772.33 527.826C742.453 478.838 721.079 424.139 710 365.793C710 365.793 812.826 368.651 853.809 350.552C904.203 328.297 1018.42 170.81 1089.86 76.2679C1103.15 59.5709 1116.04 44.0685 1128.31 30.4828C1149.5 7.03771 1211.36 0 1219.81 0C1227.14 0 1286.41 69.6988 1329.68 121.937C1394.91 201.542 1471.71 297.474 1509.57 335.31L1440 509V628L1351.5 631L1256 634L1031.73 663Z" fill="#6E6E84"/>
<path d="M761 460.529C836.033 460.529 910.52 471.745 998.818 396.957C1033.16 367.874 1067.11 339.908 1096.11 375.017C1114.23 396.957 1147.8 469.456 1189.58 438.93C1231.36 408.404 1248.96 314.061 1288.78 313.011C1321.21 312.157 1347.91 359.453 1371.8 333.363C1387.53 316.186 1532 416.99 1532 416.99C1532 416.99 1455.5 508.5 1418 521C1359 549.5 1218.38 564.681 1218.38 564.681C1218.38 564.681 1174.46 616.416 1151.91 608.094C1129.35 599.772 1074.24 617.128 1042.64 603.122C1011.04 589.118 860.345 526.691 857.093 519.06C853.84 511.428 761 460.529 761 460.529Z" fill="#5F5F74"/>
<path d="M1090.21 76.3768C1103.48 59.656 1116.37 44.1315 1128.63 30.5263C1149.8 7.04776 1211.63 0 1220.07 0C1227.39 0 1286.63 69.7984 1329.86 122.111C1346.44 142.382 1363.76 163.709 1381 184.871C1373.55 195.288 1359.12 209.96 1337.77 207.875C1295.74 203.769 1287.55 154.494 1255.77 158.598C1212.49 164.192 1219.06 290 1173.77 290C1129.7 290 1160.26 194.586 1108.17 175.023C1069.8 160.612 1055.66 201.928 991 207.295C1026.37 162.013 1061.7 114.191 1090.21 76.3768Z" fill="#C3E1F5"/>
<path d="M1074 102.55C1080.31 94.1466 1086.44 85.9677 1092.24 78.2861C1105.51 61.5852 1118.39 46.0791 1130.65 32.49C1151.81 9.03939 1213.61 2 1222.06 2C1227.15 2 1257.47 35.8725 1290 74.0842C1254.43 45.8294 1235.02 57.4557 1228.4 90.5069C1213.13 166.837 1196.67 228.133 1177.62 179.858C1158.58 131.583 1166.95 103.936 1111.09 109.668C1089.04 111.93 1084.5 105.47 1074 102.55Z" fill="#EDF5FB"/>
<path d="M345.659 709.75L558.28 598.889C582.769 558.712 600.288 513.852 609.369 466C609.369 466 525.086 468.344 491.494 453.5C450.188 435.248 356.566 306.087 298.009 228.55C287.122 214.856 276.556 202.142 266.494 191C249.13 171.772 198.42 166 191.494 166C185.492 166 136.903 223.163 101.438 266.005C47.9719 331.292 -14.9766 409.969 -46.0078 441L-98 547.25L-23 694.5L61 697L259 703L345.659 709.75Z" fill="#6E6E84"/>
<path d="M-2.24422 253.713L89.5 347.5L-2.24432 388L-2.24422 253.713Z" fill="#6E6E84"/>
<path d="M567.511 489.939C506.053 489.939 445.042 499.125 372.719 437.875C344.594 414.056 316.784 391.153 293.031 419.906C278.187 437.875 250.691 497.25 216.469 472.25C182.247 447.25 167.833 369.984 135.219 369.125C108.656 368.425 91.5 396.5 67.2156 385.792C45 381.5 -0.500045 358 -0.500045 358C-0.500045 358 -17.6875 509.025 -0.500021 508C16.6875 506.975 192.878 575.238 192.878 575.238C192.878 575.238 228.852 617.608 247.327 610.792C265.802 603.977 310.945 618.191 336.825 606.72C362.705 595.252 486.139 544.125 488.803 537.875C491.467 531.625 567.511 489.939 567.511 489.939Z" fill="#5F5F74"/>
<path d="M297.984 228.55C287.097 214.856 276.531 202.142 266.469 191C249.105 171.772 198.395 166 191.469 166C185.467 166 136.878 223.163 101.412 266.005C87.8172 282.606 73.6094 300.072 59.4688 317.403C65.5828 325.934 77.4125 337.95 94.9281 336.242C129.398 332.88 136.123 292.525 162.186 295.886C197.689 300.467 192.3 403.5 229.445 403.5C265.597 403.5 240.527 325.359 283.252 309.337C314.723 297.536 326.327 331.372 379.361 335.767C350.353 298.683 321.372 259.519 297.984 228.55Z" fill="#C3E1F5"/>
<path d="M312.953 248.445C307.78 241.555 302.742 234.848 297.986 228.55C287.098 214.856 276.533 202.142 266.47 191C249.106 171.772 198.397 166 191.47 166C187.287 166 162.416 193.773 135.72 225.105C164.908 201.937 180.833 211.47 186.261 238.57C198.797 301.156 212.303 351.416 227.928 311.833C243.553 272.25 236.686 249.581 282.519 254.281C300.609 256.136 304.336 250.839 312.953 248.445Z" fill="#EDF5FB"/>
</svg>
