<svg width="1440" height="262" viewBox="0 0 1440 262" fill="none" xmlns="http://www.w3.org/2000/svg">
<rect width="1440" height="262" fill="url(#paint0_linear_226_596)"/>
<path d="M1330 91.832C1362.44 86.2333 1389.15 108.628 1421.59 91.832C1457.85 75.0359 1482.65 99.2969 1517 104.896C1484.56 110.494 1457.85 88.0995 1425.41 104.896C1389.15 121.692 1364.35 99.2969 1330 91.832Z" fill="#B4D7EE"/>
<path d="M274 75.5156C293.125 72.1406 308.875 85.6406 328 75.5156C349.375 65.3906 364 80.0156 384.25 83.3906C365.125 86.7656 349.375 73.2656 330.25 83.3906C308.875 93.5156 294.25 80.0156 274 75.5156Z" fill="#B4D7EE"/>
<path d="M136 126.832C167.745 121.233 193.888 143.628 225.633 126.832C261.112 110.036 285.388 134.297 319 139.896C287.255 145.494 261.112 123.1 229.367 139.896C193.888 156.692 169.612 134.297 136 126.832Z" fill="#B4D7EE"/>
<path d="M-73 80.832C-41.2551 75.2333 -15.1122 97.628 16.6327 80.832C52.1123 64.0359 76.3878 88.2969 110 93.8956C78.2551 99.4943 52.1122 77.0995 20.3673 93.8956C-15.1123 110.692 -39.3878 88.2969 -73 80.832Z" fill="#B4D7EE"/>
<path d="M1098 139.832C1129.74 134.233 1155.89 156.628 1187.63 139.832C1223.11 123.036 1247.39 147.297 1281 152.896C1249.26 158.494 1223.11 136.1 1191.37 152.896C1155.89 169.692 1131.61 147.297 1098 139.832Z" fill="#B4D7EE"/>
<path d="M413 121.516C432.125 118.141 447.875 131.641 467 121.516C488.375 111.391 503 126.016 523.25 129.391C504.125 132.766 488.375 119.266 469.25 129.391C447.875 139.516 433.25 126.016 413 121.516Z" fill="#B4D7EE"/>
<path d="M568 82.5156C587.125 79.1406 602.875 92.6406 622 82.5156C643.375 72.3906 658 87.0156 678.25 90.3906C659.125 93.7656 643.375 80.2656 624.25 90.3906C602.875 100.516 588.25 87.0156 568 82.5156Z" fill="#B4D7EE"/>
<path d="M678 137.666C704.367 133.187 726.082 151.102 752.449 137.666C781.918 124.229 802.082 143.638 830 148.116C803.633 152.595 781.918 134.68 755.551 148.116C726.082 161.553 705.918 143.638 678 137.666Z" fill="#B4D7EE"/>
<path d="M872 91.6656C898.367 87.1866 920.082 105.102 946.449 91.6656C975.918 78.2287 996.082 97.6375 1024 102.116C997.633 106.595 975.918 88.6796 949.551 102.116C920.082 115.553 899.918 97.6375 872 91.6656Z" fill="#B4D7EE"/>
<defs>
<linearGradient id="paint0_linear_226_596" x1="720" y1="0" x2="720" y2="262" gradientUnits="userSpaceOnUse">
<stop stop-color="#68BBFF"/>
<stop offset="0.442699" stop-color="#2A6696"/>
<stop offset="0.937699" stop-color="#111B21"/>
</linearGradient>
</defs>
</svg>
